<ttFont>
    <TTGlyph name=".notdef" xMin="62" yMin="0" xMax="538" yMax="660">
      <contour>
        <pt x="62" y="660" on="1"/>
        <pt x="538" y="660" on="1"/>
        <pt x="538" y="0" on="1"/>
        <pt x="62" y="0" on="1"/>
      </contour>
      <contour>
        <pt x="255" y="340" on="1"/>
        <pt x="127" y="572" on="1"/>
        <pt x="127" y="110" on="1"/>
      </contour>
      <contour>
        <pt x="472" y="110" on="1"/>
        <pt x="472" y="572" on="1"/>
        <pt x="345" y="340" on="1"/>
      </contour>
      <contour>
        <pt x="427" y="58" on="1"/>
        <pt x="354" y="190" on="1"/>
        <pt x="302" y="293" on="1"/>
        <pt x="298" y="293" on="1"/>
        <pt x="244" y="190" on="1"/>
        <pt x="170" y="58" on="1"/>
      </contour>
      <contour>
        <pt x="302" y="387" on="1"/>
        <pt x="351" y="481" on="1"/>
        <pt x="417" y="600" on="1"/>
        <pt x="182" y="600" on="1"/>
        <pt x="248" y="481" on="1"/>
        <pt x="298" y="387" on="1"/>
      </contour>
    </TTGlyph>
    <TTGlyph name="A" xMin="32" yMin="0" xMax="568" yMax="656">
      <contour>
        <pt x="397" y="267" on="1"/>
        <pt x="366" y="367" on="1"/>
        <pt x="349" y="422" on="0"/>
        <pt x="317" y="531" on="0"/>
        <pt x="301" y="588" on="1"/>
        <pt x="297" y="588" on="1"/>
        <pt x="281" y="531" on="0"/>
        <pt x="249" y="422" on="0"/>
        <pt x="232" y="367" on="1"/>
        <pt x="201" y="267" on="1"/>
      </contour>
      <contour>
        <pt x="418" y="200" on="1"/>
        <pt x="180" y="200" on="1"/>
        <pt x="117" y="0" on="1"/>
        <pt x="32" y="0" on="1"/>
        <pt x="253" y="656" on="1"/>
        <pt x="347" y="656" on="1"/>
        <pt x="568" y="0" on="1"/>
        <pt x="480" y="0" on="1"/>
      </contour>
    </TTGlyph>
    <TTGlyph name="AE" xMin="-1" yMin="0" xMax="591" yMax="656">
      <contour>
        <pt x="317" y="258" on="1"/>
        <pt x="317" y="590" on="1"/>
        <pt x="314" y="590" on="1"/>
        <pt x="294" y="536" on="0"/>
        <pt x="251" y="431" on="0"/>
        <pt x="231" y="377" on="1"/>
        <pt x="185" y="258" on="1"/>
      </contour>
      <contour>
        <pt x="591" y="71" on="1"/>
        <pt x="591" y="0" on="1"/>
        <pt x="317" y="0" on="1"/>
        <pt x="317" y="191" on="1"/>
        <pt x="159" y="191" on="1"/>
        <pt x="86" y="0" on="1"/>
        <pt x="-1" y="0" on="1"/>
        <pt x="259" y="656" on="1"/>
        <pt x="582" y="656" on="1"/>
        <pt x="582" y="586" on="1"/>
        <pt x="393" y="586" on="1"/>
        <pt x="393" y="381" on="1"/>
        <pt x="540" y="381" on="1"/>
        <pt x="540" y="310" on="1"/>
        <pt x="393" y="310" on="1"/>
        <pt x="393" y="71" on="1"/>
      </contour>
    </TTGlyph>
    <TTGlyph name="Aacute" xMin="32" yMin="0" xMax="568" yMax="818">
      <component glyphName="A" x="0" y="0" flags="0x204"/>
      <component glyphName="uni0301.cap" x="0" y="0" flags="0x4"/>
    </TTGlyph>
    <TTGlyph name="Abreve" xMin="32" yMin="0" xMax="568" yMax="818">
      <component glyphName="A" x="0" y="0" flags="0x204"/>
      <component glyphName="uni0306.cap" x="0" y="0" flags="0x4"/>
    </TTGlyph>
    <TTGlyph name="Acircumflex" xMin="32" yMin="0" xMax="568" yMax="818">
      <component glyphName="A" x="0" y="0" flags="0x204"/>
      <component glyphName="uni0302.cap" x="0" y="0" flags="0x4"/>
    </TTGlyph>
    <TTGlyph name="Adieresis" xMin="32" yMin="0" xMax="568" yMax="813">
      <component glyphName="A" x="0" y="0" flags="0x204"/>
      <component glyphName="uni0308.cap" x="0" y="0" flags="0x4"/>
    </TTGlyph>
    <TTGlyph name="Agrave" xMin="32" yMin="0" xMax="568" yMax="818">
      <component glyphName="A" x="0" y="0" flags="0x204"/>
      <component glyphName="uni0300.cap" x="0" y="0" flags="0x4"/>
    </TTGlyph>
    <TTGlyph name="Amacron" xMin="32" yMin="0" xMax="568" yMax="786">
      <component glyphName="A" x="0" y="0" flags="0x204"/>
      <component glyphName="uni0304.cap" x="0" y="0" flags="0x4"/>
    </TTGlyph>
    <TTGlyph name="Aogonek" xMin="32" yMin="-212" xMax="599" yMax="656">
      <contour>
        <pt x="397" y="267" on="1"/>
        <pt x="366" y="367" on="1"/>
        <pt x="349" y="422" on="0"/>
        <pt x="317" y="531" on="0"/>
        <pt x="301" y="588" on="1"/>
        <pt x="297" y="588" on="1"/>
        <pt x="281" y="531" on="0"/>
        <pt x="249" y="422" on="0"/>
        <pt x="232" y="367" on="1"/>
        <pt x="201" y="267" on="1"/>
      </contour>
      <contour>
        <pt x="599" y="-184" on="1"/>
        <pt x="585" y="-195" on="0"/>
        <pt x="539" y="-212" on="0"/>
        <pt x="519" y="-212" on="1"/>
        <pt x="479" y="-212" on="0"/>
        <pt x="424" y="-168" on="0"/>
        <pt x="424" y="-125" on="1"/>
        <pt x="424" y="-105" on="0"/>
        <pt x="438" y="-67" on="0"/>
        <pt x="459" y="-35" on="0"/>
        <pt x="486" y="-9" on="0"/>
        <pt x="499" y="0" on="1"/>
        <pt x="480" y="0" on="1"/>
        <pt x="418" y="200" on="1"/>
        <pt x="180" y="200" on="1"/>
        <pt x="117" y="0" on="1"/>
        <pt x="32" y="0" on="1"/>
        <pt x="253" y="656" on="1"/>
        <pt x="347" y="656" on="1"/>
        <pt x="568" y="0" on="1"/>
        <pt x="533" y="-14" on="0"/>
        <pt x="488" y="-75" on="0"/>
        <pt x="488" y="-107" on="1"/>
        <pt x="488" y="-130" on="0"/>
        <pt x="517" y="-153" on="0"/>
        <pt x="534" y="-153" on="1"/>
        <pt x="557" y="-153" on="0"/>
        <pt x="576" y="-139" on="1"/>
      </contour>
    </TTGlyph>
    <TTGlyph name="Aring" xMin="32" yMin="0" xMax="568" yMax="875">
      <component glyphName="A" x="0" y="0" flags="0x204"/>
      <component glyphName="uni030A.cap" x="0" y="0" flags="0x4"/>
    </TTGlyph>
    <TTGlyph name="Atilde" xMin="32" yMin="0" xMax="568" yMax="819">
      <component glyphName="A" x="0" y="0" flags="0x204"/>
      <component glyphName="uni0303.cap" x="0" y="0" flags="0x4"/>
    </TTGlyph>
    <TTGlyph name="B" xMin="103" yMin="0" xMax="545" yMax="656">
      <contour>
        <pt x="103" y="656" on="1"/>
        <pt x="283" y="656" on="1"/>
        <pt x="333" y="656" on="0"/>
        <pt x="416" y="638" on="0"/>
        <pt x="475" y="600" on="0"/>
        <pt x="508" y="539" on="0"/>
        <pt x="508" y="496" on="1"/>
        <pt x="508" y="447" on="0"/>
        <pt x="451" y="368" on="0"/>
        <pt x="393" y="353" on="1"/>
        <pt x="393" y="349" on="1"/>
        <pt x="465" y="338" on="0"/>
        <pt x="545" y="260" on="0"/>
        <pt x="545" y="192" on="1"/>
        <pt x="545" y="144" on="0"/>
        <pt x="509" y="72" on="0"/>
        <pt x="444" y="24" on="0"/>
        <pt x="353" y="0" on="0"/>
        <pt x="298" y="0" on="1"/>
        <pt x="103" y="0" on="1"/>
      </contour>
      <contour>
        <pt x="269" y="376" on="1"/>
        <pt x="353" y="376" on="0"/>
        <pt x="426" y="434" on="0"/>
        <pt x="426" y="489" on="1"/>
        <pt x="426" y="543" on="0"/>
        <pt x="349" y="590" on="0"/>
        <pt x="273" y="590" on="1"/>
        <pt x="187" y="590" on="1"/>
        <pt x="187" y="376" on="1"/>
      </contour>
      <contour>
        <pt x="286" y="66" on="1"/>
        <pt x="371" y="66" on="0"/>
        <pt x="463" y="129" on="0"/>
        <pt x="463" y="196" on="1"/>
        <pt x="463" y="257" on="0"/>
        <pt x="373" y="314" on="0"/>
        <pt x="286" y="314" on="1"/>
        <pt x="187" y="314" on="1"/>
        <pt x="187" y="66" on="1"/>
      </contour>
    </TTGlyph>
    <TTGlyph name="C" xMin="66" yMin="-12" xMax="554" yMax="668">
      <contour>
        <pt x="66" y="328" on="1"/>
        <pt x="66" y="407" on="0"/>
        <pt x="109" y="533" on="0"/>
        <pt x="187" y="621" on="0"/>
        <pt x="295" y="668" on="0"/>
        <pt x="359" y="668" on="1"/>
        <pt x="419" y="668" on="0"/>
        <pt x="509" y="620" on="0"/>
        <pt x="538" y="588" on="1"/>
        <pt x="491" y="535" on="1"/>
        <pt x="465" y="562" on="0"/>
        <pt x="401" y="595" on="0"/>
        <pt x="359" y="595" on="1"/>
        <pt x="312" y="595" on="0"/>
        <pt x="235" y="558" on="0"/>
        <pt x="181" y="489" on="0"/>
        <pt x="152" y="391" on="0"/>
        <pt x="152" y="330" on="1"/>
        <pt x="152" y="268" on="0"/>
        <pt x="181" y="169" on="0"/>
        <pt x="235" y="99" on="0"/>
        <pt x="312" y="61" on="0"/>
        <pt x="359" y="61" on="1"/>
        <pt x="404" y="61" on="0"/>
        <pt x="474" y="99" on="0"/>
        <pt x="506" y="134" on="1"/>
        <pt x="554" y="83" on="1"/>
        <pt x="515" y="38" on="0"/>
        <pt x="417" y="-12" on="0"/>
        <pt x="354" y="-12" on="1"/>
        <pt x="292" y="-12" on="0"/>
        <pt x="187" y="34" on="0"/>
        <pt x="110" y="121" on="0"/>
        <pt x="66" y="248" on="0"/>
      </contour>
    </TTGlyph>
    <TTGlyph name="Cacute" xMin="66" yMin="-12" xMax="554" yMax="818">
      <component glyphName="C" x="0" y="0" flags="0x204"/>
      <component glyphName="uni0301.cap" x="47" y="0" flags="0x4"/>
    </TTGlyph>
    <TTGlyph name="Ccaron" xMin="66" yMin="-12" xMax="554" yMax="818">
      <component glyphName="C" x="0" y="0" flags="0x204"/>
      <component glyphName="uni030C.cap" x="47" y="0" flags="0x4"/>
    </TTGlyph>
    <TTGlyph name="Ccedilla" xMin="66" yMin="-213" xMax="554" yMax="668">
      <component glyphName="C" x="0" y="0" flags="0x204"/>
      <component glyphName="uni0327.cap" x="47" y="0" flags="0x4"/>
    </TTGlyph>
    <TTGlyph name="Ccircumflex" xMin="66" yMin="-12" xMax="554" yMax="818">
      <component glyphName="C" x="0" y="0" flags="0x204"/>
      <component glyphName="uni0302.cap" x="47" y="0" flags="0x4"/>
    </TTGlyph>
    <TTGlyph name="Cdotaccent" xMin="66" yMin="-12" xMax="554" yMax="821">
      <component glyphName="C" x="0" y="0" flags="0x204"/>
      <component glyphName="uni0307.cap" x="47" y="0" flags="0x4"/>
    </TTGlyph>
    <TTGlyph name="D" xMin="85" yMin="0" xMax="549" yMax="656">
      <contour>
        <pt x="85" y="656" on="1"/>
        <pt x="245" y="656" on="1"/>
        <pt x="394" y="656" on="0"/>
        <pt x="549" y="488" on="0"/>
        <pt x="549" y="331" on="1"/>
        <pt x="549" y="253" on="0"/>
        <pt x="510" y="130" on="0"/>
        <pt x="434" y="45" on="0"/>
        <pt x="322" y="0" on="0"/>
        <pt x="249" y="0" on="1"/>
        <pt x="85" y="0" on="1"/>
      </contour>
      <contour>
        <pt x="240" y="68" on="1"/>
        <pt x="352" y="68" on="0"/>
        <pt x="463" y="206" on="0"/>
        <pt x="463" y="331" on="1"/>
        <pt x="463" y="456" on="0"/>
        <pt x="352" y="588" on="0"/>
        <pt x="240" y="588" on="1"/>
        <pt x="168" y="588" on="1"/>
        <pt x="168" y="68" on="1"/>
      </contour>
    </TTGlyph>
    <TTGlyph name="Dcaron" xMin="85" yMin="0" xMax="549" yMax="818">
      <component glyphName="D" x="0" y="0" flags="0x204"/>
      <component glyphName="uni030C.cap" x="0" y="0" flags="0x4"/>
    </TTGlyph>
    <TTGlyph name="Dcroat" xMin="16" yMin="0" xMax="555" yMax="656">
      <component glyphName="Eth" x="0" y="0" flags="0x204"/>
    </TTGlyph>
    <TTGlyph name="E" xMin="115" yMin="0" xMax="530" yMax="656">
      <contour>
        <pt x="115" y="656" on="1"/>
        <pt x="520" y="656" on="1"/>
        <pt x="520" y="586" on="1"/>
        <pt x="199" y="586" on="1"/>
        <pt x="199" y="380" on="1"/>
        <pt x="470" y="380" on="1"/>
        <pt x="470" y="309" on="1"/>
        <pt x="199" y="309" on="1"/>
        <pt x="199" y="71" on="1"/>
        <pt x="530" y="71" on="1"/>
        <pt x="530" y="0" on="1"/>
        <pt x="115" y="0" on="1"/>
      </contour>
    </TTGlyph>
    <TTGlyph name="Eacute" xMin="115" yMin="0" xMax="530" yMax="818">
      <component glyphName="E" x="0" y="0" flags="0x204"/>
      <component glyphName="uni0301.cap" x="31" y="0" flags="0x4"/>
    </TTGlyph>
    <TTGlyph name="Ebreve" xMin="115" yMin="0" xMax="530" yMax="818">
      <component glyphName="E" x="0" y="0" flags="0x204"/>
      <component glyphName="uni0306.cap" x="31" y="0" flags="0x4"/>
    </TTGlyph>
    <TTGlyph name="Ecaron" xMin="115" yMin="0" xMax="530" yMax="818">
      <component glyphName="E" x="0" y="0" flags="0x204"/>
      <component glyphName="uni030C.cap" x="31" y="0" flags="0x4"/>
    </TTGlyph>
    <TTGlyph name="Ecircumflex" xMin="115" yMin="0" xMax="530" yMax="818">
      <component glyphName="E" x="0" y="0" flags="0x204"/>
      <component glyphName="uni0302.cap" x="31" y="0" flags="0x4"/>
    </TTGlyph>
    <TTGlyph name="Edieresis" xMin="115" yMin="0" xMax="530" yMax="813">
      <component glyphName="E" x="0" y="0" flags="0x204"/>
      <component glyphName="uni0308.cap" x="31" y="0" flags="0x4"/>
    </TTGlyph>
    <TTGlyph name="Edotaccent" xMin="115" yMin="0" xMax="530" yMax="821">
      <component glyphName="E" x="0" y="0" flags="0x204"/>
      <component glyphName="uni0307.cap" x="31" y="0" flags="0x4"/>
    </TTGlyph>
    <TTGlyph name="Egrave" xMin="115" yMin="0" xMax="530" yMax="818">
      <component glyphName="E" x="0" y="0" flags="0x204"/>
      <component glyphName="uni0300.cap" x="31" y="0" flags="0x4"/>
    </TTGlyph>
    <TTGlyph name="Emacron" xMin="115" yMin="0" xMax="530" yMax="786">
      <component glyphName="E" x="0" y="0" flags="0x204"/>
      <component glyphName="uni0304.cap" x="31" y="0" flags="0x4"/>
    </TTGlyph>
    <TTGlyph name="Eogonek" xMin="115" yMin="-212" xMax="545" yMax="656">
      <contour>
        <pt x="115" y="656" on="1"/>
        <pt x="520" y="656" on="1"/>
        <pt x="520" y="586" on="1"/>
        <pt x="199" y="586" on="1"/>
        <pt x="199" y="380" on="1"/>
        <pt x="470" y="380" on="1"/>
        <pt x="470" y="309" on="1"/>
        <pt x="199" y="309" on="1"/>
        <pt x="199" y="71" on="1"/>
        <pt x="530" y="71" on="1"/>
        <pt x="530" y="0" on="1"/>
        <pt x="526" y="0" on="1"/>
        <pt x="509" y="-2" on="0"/>
        <pt x="476" y="-21" on="0"/>
        <pt x="451" y="-50" on="0"/>
        <pt x="435" y="-87" on="0"/>
        <pt x="435" y="-107" on="1"/>
        <pt x="435" y="-130" on="0"/>
        <pt x="464" y="-153" on="0"/>
        <pt x="482" y="-153" on="1"/>
        <pt x="494" y="-153" on="0"/>
        <pt x="513" y="-146" on="0"/>
        <pt x="523" y="-139" on="1"/>
        <pt x="545" y="-184" on="1"/>
        <pt x="531" y="-195" on="0"/>
        <pt x="485" y="-212" on="0"/>
        <pt x="465" y="-212" on="1"/>
        <pt x="426" y="-212" on="0"/>
        <pt x="370" y="-168" on="0"/>
        <pt x="370" y="-125" on="1"/>
        <pt x="370" y="-83" on="0"/>
        <pt x="417" y="-18" on="0"/>
        <pt x="445" y="0" on="1"/>
        <pt x="115" y="0" on="1"/>
      </contour>
    </TTGlyph>
    <TTGlyph name="Eth" xMin="16" yMin="0" xMax="555" yMax="656">
      <contour>
        <pt x="91" y="321" on="1"/>
        <pt x="16" y="321" on="1"/>
        <pt x="16" y="363" on="1"/>
        <pt x="91" y="368" on="1"/>
        <pt x="91" y="656" on="1"/>
        <pt x="252" y="656" on="1"/>
        <pt x="400" y="656" on="0"/>
        <pt x="555" y="488" on="0"/>
        <pt x="555" y="331" on="1"/>
        <pt x="555" y="174" on="0"/>
        <pt x="400" y="0" on="0"/>
        <pt x="255" y="0" on="1"/>
        <pt x="91" y="0" on="1"/>
      </contour>
      <contour>
        <pt x="246" y="68" on="1"/>
        <pt x="358" y="68" on="0"/>
        <pt x="469" y="206" on="0"/>
        <pt x="469" y="331" on="1"/>
        <pt x="469" y="456" on="0"/>
        <pt x="358" y="588" on="0"/>
        <pt x="246" y="588" on="1"/>
        <pt x="174" y="588" on="1"/>
        <pt x="174" y="368" on="1"/>
        <pt x="317" y="368" on="1"/>
        <pt x="317" y="321" on="1"/>
        <pt x="174" y="321" on="1"/>
        <pt x="174" y="68" on="1"/>
      </contour>
    </TTGlyph>
    <TTGlyph name="Euro" xMin="58" yMin="-12" xMax="566" yMax="650">
      <contour>
        <pt x="566" y="81" on="1"/>
        <pt x="528" y="37" on="0"/>
        <pt x="436" y="-12" on="0"/>
        <pt x="374" y="-12" on="1"/>
        <pt x="276" y="-12" on="0"/>
        <pt x="141" y="117" on="0"/>
        <pt x="122" y="235" on="1"/>
        <pt x="58" y="235" on="1"/>
        <pt x="58" y="278" on="1"/>
        <pt x="117" y="282" on="1"/>
        <pt x="116" y="291" on="0"/>
        <pt x="116" y="309" on="0"/>
        <pt x="116" y="318" on="1"/>
        <pt x="116" y="326" on="0"/>
        <pt x="116" y="342" on="0"/>
        <pt x="117" y="350" on="1"/>
        <pt x="58" y="350" on="1"/>
        <pt x="58" y="394" on="1"/>
        <pt x="122" y="399" on="1"/>
        <pt x="141" y="517" on="0"/>
        <pt x="282" y="650" on="0"/>
        <pt x="388" y="650" on="1"/>
        <pt x="439" y="650" on="0"/>
        <pt x="527" y="605" on="0"/>
        <pt x="557" y="572" on="1"/>
        <pt x="508" y="525" on="1"/>
        <pt x="482" y="551" on="0"/>
        <pt x="423" y="584" on="0"/>
        <pt x="385" y="584" on="1"/>
        <pt x="311" y="584" on="0"/>
        <pt x="221" y="486" on="0"/>
        <pt x="207" y="399" on="1"/>
        <pt x="501" y="399" on="1"/>
        <pt x="501" y="350" on="1"/>
        <pt x="202" y="350" on="1"/>
        <pt x="201" y="343" on="0"/>
        <pt x="201" y="329" on="0"/>
        <pt x="201" y="321" on="1"/>
        <pt x="201" y="311" on="0"/>
        <pt x="201" y="292" on="0"/>
        <pt x="202" y="283" on="1"/>
        <pt x="461" y="283" on="1"/>
        <pt x="461" y="235" on="1"/>
        <pt x="208" y="235" on="1"/>
        <pt x="222" y="150" on="0"/>
        <pt x="310" y="54" on="0"/>
        <pt x="379" y="54" on="1"/>
        <pt x="422" y="54" on="0"/>
        <pt x="487" y="90" on="0"/>
        <pt x="517" y="125" on="1"/>
      </contour>
    </TTGlyph>
    <TTGlyph name="F" xMin="135" yMin="0" xMax="536" yMax="656">
      <contour>
        <pt x="135" y="656" on="1"/>
        <pt x="536" y="656" on="1"/>
        <pt x="536" y="586" on="1"/>
        <pt x="218" y="586" on="1"/>
        <pt x="218" y="364" on="1"/>
        <pt x="487" y="364" on="1"/>
        <pt x="487" y="294" on="1"/>
        <pt x="218" y="294" on="1"/>
        <pt x="218" y="0" on="1"/>
        <pt x="135" y="0" on="1"/>
      </contour>
    </TTGlyph>
    <TTGlyph name="G" xMin="53" yMin="-12" xMax="533" yMax="668">
      <contour>
        <pt x="53" y="328" on="1"/>
        <pt x="53" y="407" on="0"/>
        <pt x="96" y="534" on="0"/>
        <pt x="173" y="621" on="0"/>
        <pt x="280" y="668" on="0"/>
        <pt x="344" y="668" on="1"/>
        <pt x="377" y="668" on="0"/>
        <pt x="431" y="654" on="0"/>
        <pt x="476" y="631" on="0"/>
        <pt x="511" y="603" on="0"/>
        <pt x="525" y="588" on="1"/>
        <pt x="478" y="535" on="1"/>
        <pt x="454" y="561" on="0"/>
        <pt x="392" y="595" on="0"/>
        <pt x="344" y="595" on="1"/>
        <pt x="298" y="595" on="0"/>
        <pt x="223" y="558" on="0"/>
        <pt x="169" y="489" on="0"/>
        <pt x="140" y="391" on="0"/>
        <pt x="140" y="330" on="1"/>
        <pt x="140" y="268" on="0"/>
        <pt x="167" y="169" on="0"/>
        <pt x="218" y="99" on="0"/>
        <pt x="294" y="61" on="0"/>
        <pt x="342" y="61" on="1"/>
        <pt x="377" y="61" on="0"/>
        <pt x="437" y="82" on="0"/>
        <pt x="456" y="100" on="1"/>
        <pt x="456" y="271" on="1"/>
        <pt x="325" y="271" on="1"/>
        <pt x="325" y="340" on="1"/>
        <pt x="533" y="340" on="1"/>
        <pt x="533" y="64" on="1"/>
        <pt x="501" y="32" on="0"/>
        <pt x="401" y="-12" on="0"/>
        <pt x="337" y="-12" on="1"/>
        <pt x="275" y="-12" on="0"/>
        <pt x="171" y="34" on="0"/>
        <pt x="95" y="121" on="0"/>
        <pt x="53" y="248" on="0"/>
      </contour>
    </TTGlyph>
    <TTGlyph name="Gbreve" xMin="53" yMin="-12" xMax="533" yMax="818">
      <component glyphName="G" x="0" y="0" flags="0x204"/>
      <component glyphName="uni0306.cap" x="31" y="0" flags="0x4"/>
    </TTGlyph>
    <TTGlyph name="Gcaron" xMin="53" yMin="-12" xMax="533" yMax="818">
      <component glyphName="G" x="0" y="0" flags="0x204"/>
      <component glyphName="uni030C.cap" x="31" y="0" flags="0x4"/>
    </TTGlyph>
    <TTGlyph name="Gcircumflex" xMin="53" yMin="-12" xMax="533" yMax="818">
      <component glyphName="G" x="0" y="0" flags="0x204"/>
      <component glyphName="uni0302.cap" x="31" y="0" flags="0x4"/>
    </TTGlyph>
    <TTGlyph name="Gdotaccent" xMin="53" yMin="-12" xMax="533" yMax="821">
      <component glyphName="G" x="0" y="0" flags="0x204"/>
      <component glyphName="uni0307.cap" x="31" y="0" flags="0x4"/>
    </TTGlyph>
    <TTGlyph name="H" xMin="79" yMin="0" xMax="521" yMax="656">
      <contour>
        <pt x="79" y="656" on="1"/>
        <pt x="163" y="656" on="1"/>
        <pt x="163" y="381" on="1"/>
        <pt x="437" y="381" on="1"/>
        <pt x="437" y="656" on="1"/>
        <pt x="521" y="656" on="1"/>
        <pt x="521" y="0" on="1"/>
        <pt x="437" y="0" on="1"/>
        <pt x="437" y="309" on="1"/>
        <pt x="163" y="309" on="1"/>
        <pt x="163" y="0" on="1"/>
        <pt x="79" y="0" on="1"/>
      </contour>
    </TTGlyph>
    <TTGlyph name="Hbar" xMin="10" yMin="0" xMax="590" yMax="656">
      <contour>
        <pt x="437" y="492" on="1"/>
        <pt x="163" y="492" on="1"/>
        <pt x="163" y="381" on="1"/>
        <pt x="437" y="381" on="1"/>
      </contour>
      <contour>
        <pt x="590" y="492" on="1"/>
        <pt x="521" y="492" on="1"/>
        <pt x="521" y="0" on="1"/>
        <pt x="437" y="0" on="1"/>
        <pt x="437" y="309" on="1"/>
        <pt x="163" y="309" on="1"/>
        <pt x="163" y="0" on="1"/>
        <pt x="79" y="0" on="1"/>
        <pt x="79" y="492" on="1"/>
        <pt x="10" y="492" on="1"/>
        <pt x="10" y="534" on="1"/>
        <pt x="79" y="539" on="1"/>
        <pt x="79" y="656" on="1"/>
        <pt x="163" y="656" on="1"/>
        <pt x="163" y="539" on="1"/>
        <pt x="437" y="539" on="1"/>
        <pt x="437" y="656" on="1"/>
        <pt x="521" y="656" on="1"/>
        <pt x="521" y="539" on="1"/>
        <pt x="590" y="539" on="1"/>
      </contour>
    </TTGlyph>
    <TTGlyph name="Hcircumflex" xMin="79" yMin="0" xMax="521" yMax="818">
      <component glyphName="H" x="0" y="0" flags="0x204"/>
      <component glyphName="uni0302.cap" x="0" y="0" flags="0x4"/>
    </TTGlyph>
    <TTGlyph name="I" xMin="95" yMin="0" xMax="505" yMax="656">
      <contour>
        <pt x="95" y="71" on="1"/>
        <pt x="258" y="71" on="1"/>
        <pt x="258" y="586" on="1"/>
        <pt x="95" y="586" on="1"/>
        <pt x="95" y="656" on="1"/>
        <pt x="505" y="656" on="1"/>
        <pt x="505" y="586" on="1"/>
        <pt x="342" y="586" on="1"/>
        <pt x="342" y="71" on="1"/>
        <pt x="505" y="71" on="1"/>
        <pt x="505" y="0" on="1"/>
        <pt x="95" y="0" on="1"/>
      </contour>
    </TTGlyph>
    <TTGlyph name="Iacute" xMin="95" yMin="0" xMax="505" yMax="818">
      <component glyphName="I" x="0" y="0" flags="0x204"/>
      <component glyphName="uni0301.cap" x="0" y="0" flags="0x4"/>
    </TTGlyph>
    <TTGlyph name="Icircumflex" xMin="95" yMin="0" xMax="505" yMax="818">
      <component glyphName="I" x="0" y="0" flags="0x204"/>
      <component glyphName="uni0302.cap" x="0" y="0" flags="0x4"/>
    </TTGlyph>
    <TTGlyph name="Idieresis" xMin="95" yMin="0" xMax="505" yMax="813">
      <component glyphName="I" x="0" y="0" flags="0x204"/>
      <component glyphName="uni0308.cap" x="0" y="0" flags="0x4"/>
    </TTGlyph>
    <TTGlyph name="Idotaccent" xMin="95" yMin="0" xMax="505" yMax="821">
      <component glyphName="I" x="0" y="0" flags="0x204"/>
      <component glyphName="uni0307.cap" x="0" y="0" flags="0x4"/>
    </TTGlyph>
    <TTGlyph name="Igrave" xMin="95" yMin="0" xMax="505" yMax="818">
      <component glyphName="I" x="0" y="0" flags="0x204"/>
      <component glyphName="uni0300.cap" x="0" y="0" flags="0x4"/>
    </TTGlyph>
    <TTGlyph name="Imacron" xMin="95" yMin="0" xMax="505" yMax="786">
      <component glyphName="I" x="0" y="0" flags="0x204"/>
      <component glyphName="uni0304.cap" x="0" y="0" flags="0x4"/>
    </TTGlyph>
    <TTGlyph name="Iogonek" xMin="95" yMin="-212" xMax="505" yMax="656">
      <contour>
        <pt x="95" y="71" on="1"/>
        <pt x="258" y="71" on="1"/>
        <pt x="258" y="586" on="1"/>
        <pt x="95" y="586" on="1"/>
        <pt x="95" y="656" on="1"/>
        <pt x="505" y="656" on="1"/>
        <pt x="505" y="586" on="1"/>
        <pt x="342" y="586" on="1"/>
        <pt x="342" y="71" on="1"/>
        <pt x="505" y="71" on="1"/>
        <pt x="505" y="0" on="1"/>
        <pt x="342" y="0" on="1"/>
        <pt x="310" y="-24" on="0"/>
        <pt x="276" y="-76" on="0"/>
        <pt x="276" y="-107" on="1"/>
        <pt x="276" y="-130" on="0"/>
        <pt x="306" y="-153" on="0"/>
        <pt x="324" y="-153" on="1"/>
        <pt x="347" y="-153" on="0"/>
        <pt x="364" y="-139" on="1"/>
        <pt x="387" y="-184" on="1"/>
        <pt x="373" y="-195" on="0"/>
        <pt x="327" y="-212" on="0"/>
        <pt x="307" y="-212" on="1"/>
        <pt x="267" y="-212" on="0"/>
        <pt x="212" y="-168" on="0"/>
        <pt x="212" y="-125" on="1"/>
        <pt x="212" y="-82" on="0"/>
        <pt x="254" y="-22" on="0"/>
        <pt x="278" y="0" on="1"/>
        <pt x="95" y="0" on="1"/>
      </contour>
    </TTGlyph>
    <TTGlyph name="Itilde" xMin="95" yMin="0" xMax="505" yMax="819">
      <component glyphName="I" x="0" y="0" flags="0x204"/>
      <component glyphName="uni0303.cap" x="0" y="0" flags="0x4"/>
    </TTGlyph>
    <TTGlyph name="J" xMin="81" yMin="-12" xMax="493" yMax="657">
      <contour>
        <pt x="135" y="147" on="1"/>
        <pt x="164" y="103" on="0"/>
        <pt x="236" y="61" on="0"/>
        <pt x="274" y="61" on="1"/>
        <pt x="345" y="61" on="0"/>
        <pt x="410" y="136" on="0"/>
        <pt x="410" y="217" on="1"/>
        <pt x="410" y="587" on="1"/>
        <pt x="135" y="587" on="1"/>
        <pt x="135" y="657" on="1"/>
        <pt x="493" y="657" on="1"/>
        <pt x="493" y="210" on="1"/>
        <pt x="493" y="164" on="0"/>
        <pt x="471" y="83" on="0"/>
        <pt x="420" y="23" on="0"/>
        <pt x="337" y="-12" on="0"/>
        <pt x="276" y="-12" on="1"/>
        <pt x="220" y="-12" on="0"/>
        <pt x="115" y="40" on="0"/>
        <pt x="81" y="97" on="1"/>
      </contour>
    </TTGlyph>
    <TTGlyph name="Jcircumflex" xMin="81" yMin="-12" xMax="493" yMax="818">
      <component glyphName="J" x="0" y="0" flags="0x204"/>
      <component glyphName="uni0302.cap" x="21" y="0" flags="0x4"/>
    </TTGlyph>
    <TTGlyph name="K" xMin="98" yMin="0" xMax="579" yMax="656">
      <contour>
        <pt x="98" y="656" on="1"/>
        <pt x="182" y="656" on="1"/>
        <pt x="182" y="327" on="1"/>
        <pt x="185" y="327" on="1"/>
        <pt x="461" y="656" on="1"/>
        <pt x="555" y="656" on="1"/>
        <pt x="348" y="406" on="1"/>
        <pt x="579" y="0" on="1"/>
        <pt x="486" y="0" on="1"/>
        <pt x="296" y="341" on="1"/>
        <pt x="182" y="208" on="1"/>
        <pt x="182" y="0" on="1"/>
        <pt x="98" y="0" on="1"/>
      </contour>
    </TTGlyph>
    <TTGlyph name="L" xMin="134" yMin="0" xMax="541" yMax="656">
      <contour>
        <pt x="134" y="656" on="1"/>
        <pt x="216" y="656" on="1"/>
        <pt x="216" y="71" on="1"/>
        <pt x="541" y="71" on="1"/>
        <pt x="541" y="0" on="1"/>
        <pt x="134" y="0" on="1"/>
      </contour>
    </TTGlyph>
    <TTGlyph name="Lacute" xMin="134" yMin="0" xMax="541" yMax="818">
      <component glyphName="L" x="0" y="0" flags="0x204"/>
      <component glyphName="uni0301.cap" x="-109" y="0" flags="0x4"/>
    </TTGlyph>
    <TTGlyph name="Lcaron" xMin="134" yMin="0" xMax="541" yMax="727">
      <component glyphName="L" x="0" y="0" flags="0x204"/>
      <component glyphName="uni030C.a" x="124" y="-33" flags="0x4"/>
    </TTGlyph>
    <TTGlyph name="Ldot" xMin="134" yMin="0" xMax="541" yMax="656">
      <component glyphName="L" x="0" y="0" flags="0x204"/>
      <component glyphName="uni0307" x="130" y="-301" flags="0x4"/>
    </TTGlyph>
    <TTGlyph name="Lslash" xMin="53" yMin="0" xMax="541" yMax="656">
      <contour>
        <pt x="541" y="71" on="1"/>
        <pt x="541" y="0" on="1"/>
        <pt x="134" y="0" on="1"/>
        <pt x="134" y="227" on="1"/>
        <pt x="53" y="184" on="1"/>
        <pt x="53" y="251" on="1"/>
        <pt x="134" y="295" on="1"/>
        <pt x="134" y="656" on="1"/>
        <pt x="216" y="656" on="1"/>
        <pt x="216" y="335" on="1"/>
        <pt x="442" y="455" on="1"/>
        <pt x="442" y="387" on="1"/>
        <pt x="216" y="267" on="1"/>
        <pt x="216" y="71" on="1"/>
      </contour>
    </TTGlyph>
    <TTGlyph name="M" xMin="81" yMin="0" xMax="519" yMax="656">
      <contour>
        <pt x="81" y="656" on="1"/>
        <pt x="173" y="656" on="1"/>
        <pt x="266" y="377" on="1"/>
        <pt x="299" y="271" on="1"/>
        <pt x="303" y="271" on="1"/>
        <pt x="335" y="377" on="1"/>
        <pt x="427" y="656" on="1"/>
        <pt x="519" y="656" on="1"/>
        <pt x="519" y="0" on="1"/>
        <pt x="448" y="0" on="1"/>
        <pt x="448" y="369" on="1"/>
        <pt x="448" y="389" on="0"/>
        <pt x="450" y="443" on="0"/>
        <pt x="453" y="498" on="0"/>
        <pt x="456" y="551" on="0"/>
        <pt x="458" y="571" on="1"/>
        <pt x="455" y="571" on="1"/>
        <pt x="412" y="431" on="1"/>
        <pt x="322" y="178" on="1"/>
        <pt x="277" y="178" on="1"/>
        <pt x="187" y="431" on="1"/>
        <pt x="143" y="571" on="1"/>
        <pt x="140" y="571" on="1"/>
        <pt x="141" y="551" on="0"/>
        <pt x="145" y="498" on="0"/>
        <pt x="149" y="443" on="0"/>
        <pt x="151" y="389" on="0"/>
        <pt x="151" y="369" on="1"/>
        <pt x="151" y="0" on="1"/>
        <pt x="81" y="0" on="1"/>
      </contour>
    </TTGlyph>
    <TTGlyph name="N" xMin="83" yMin="0" xMax="517" yMax="656">
      <contour>
        <pt x="83" y="656" on="1"/>
        <pt x="168" y="656" on="1"/>
        <pt x="381" y="242" on="1"/>
        <pt x="447" y="108" on="1"/>
        <pt x="449" y="108" on="1"/>
        <pt x="447" y="157" on="0"/>
        <pt x="438" y="264" on="0"/>
        <pt x="438" y="316" on="1"/>
        <pt x="438" y="656" on="1"/>
        <pt x="517" y="656" on="1"/>
        <pt x="517" y="0" on="1"/>
        <pt x="432" y="0" on="1"/>
        <pt x="219" y="414" on="1"/>
        <pt x="153" y="548" on="1"/>
        <pt x="151" y="548" on="1"/>
        <pt x="153" y="497" on="0"/>
        <pt x="162" y="394" on="0"/>
        <pt x="162" y="343" on="1"/>
        <pt x="162" y="0" on="1"/>
        <pt x="83" y="0" on="1"/>
      </contour>
    </TTGlyph>
    <TTGlyph name="Nacute" xMin="83" yMin="0" xMax="517" yMax="818">
      <component glyphName="N" x="0" y="0" flags="0x204"/>
      <component glyphName="uni0301.cap" x="6" y="0" flags="0x4"/>
    </TTGlyph>
    <TTGlyph name="Ncaron" xMin="83" yMin="0" xMax="517" yMax="818">
      <component glyphName="N" x="0" y="0" flags="0x204"/>
      <component glyphName="uni030C.cap" x="6" y="0" flags="0x4"/>
    </TTGlyph>
    <TTGlyph name="Ntilde" xMin="83" yMin="0" xMax="517" yMax="819">
      <component glyphName="N" x="0" y="0" flags="0x204"/>
      <component glyphName="uni0303.cap" x="6" y="0" flags="0x4"/>
    </TTGlyph>
    <TTGlyph name="O" xMin="48" yMin="-12" xMax="552" yMax="668">
      <contour>
        <pt x="300" y="-12" on="1"/>
        <pt x="244" y="-12" on="0"/>
        <pt x="152" y="36" on="0"/>
        <pt x="85" y="125" on="0"/>
        <pt x="48" y="252" on="0"/>
        <pt x="48" y="331" on="1"/>
        <pt x="48" y="410" on="0"/>
        <pt x="85" y="535" on="0"/>
        <pt x="152" y="622" on="0"/>
        <pt x="244" y="668" on="0"/>
        <pt x="300" y="668" on="1"/>
        <pt x="355" y="668" on="0"/>
        <pt x="448" y="621" on="0"/>
        <pt x="515" y="534" on="0"/>
        <pt x="552" y="409" on="0"/>
        <pt x="552" y="331" on="1"/>
        <pt x="552" y="252" on="0"/>
        <pt x="515" y="125" on="0"/>
        <pt x="448" y="36" on="0"/>
        <pt x="355" y="-12" on="0"/>
      </contour>
      <contour>
        <pt x="300" y="61" on="1"/>
        <pt x="337" y="61" on="0"/>
        <pt x="399" y="99" on="0"/>
        <pt x="442" y="170" on="0"/>
        <pt x="466" y="269" on="0"/>
        <pt x="466" y="331" on="1"/>
        <pt x="466" y="392" on="0"/>
        <pt x="442" y="490" on="0"/>
        <pt x="399" y="558" on="0"/>
        <pt x="337" y="595" on="0"/>
        <pt x="300" y="595" on="1"/>
        <pt x="262" y="595" on="0"/>
        <pt x="201" y="558" on="0"/>
        <pt x="158" y="490" on="0"/>
        <pt x="134" y="392" on="0"/>
        <pt x="134" y="331" on="1"/>
        <pt x="134" y="269" on="0"/>
        <pt x="158" y="170" on="0"/>
        <pt x="201" y="99" on="0"/>
        <pt x="262" y="61" on="0"/>
      </contour>
    </TTGlyph>
    <TTGlyph name="OE" xMin="33" yMin="0" xMax="591" yMax="657">
      <contour>
        <pt x="33" y="331" on="1"/>
        <pt x="33" y="489" on="0"/>
        <pt x="174" y="657" on="0"/>
        <pt x="299" y="657" on="1"/>
        <pt x="581" y="657" on="1"/>
        <pt x="581" y="587" on="1"/>
        <pt x="387" y="587" on="1"/>
        <pt x="387" y="380" on="1"/>
        <pt x="535" y="380" on="1"/>
        <pt x="535" y="309" on="1"/>
        <pt x="387" y="309" on="1"/>
        <pt x="387" y="71" on="1"/>
        <pt x="591" y="71" on="1"/>
        <pt x="591" y="0" on="1"/>
        <pt x="296" y="0" on="1"/>
        <pt x="234" y="0" on="0"/>
        <pt x="137" y="45" on="0"/>
        <pt x="69" y="130" on="0"/>
        <pt x="33" y="253" on="0"/>
      </contour>
      <contour>
        <pt x="119" y="331" on="1"/>
        <pt x="119" y="205" on="0"/>
        <pt x="203" y="68" on="0"/>
        <pt x="289" y="68" on="1"/>
        <pt x="310" y="68" on="1"/>
        <pt x="310" y="588" on="1"/>
        <pt x="289" y="588" on="1"/>
        <pt x="203" y="588" on="0"/>
        <pt x="119" y="457" on="0"/>
      </contour>
    </TTGlyph>
    <TTGlyph name="Oacute" xMin="48" yMin="-12" xMax="552" yMax="818">
      <component glyphName="O" x="0" y="0" flags="0x204"/>
      <component glyphName="uni0301.cap" x="0" y="0" flags="0x4"/>
    </TTGlyph>
    <TTGlyph name="Ocircumflex" xMin="48" yMin="-12" xMax="552" yMax="818">
      <component glyphName="O" x="0" y="0" flags="0x204"/>
      <component glyphName="uni0302.cap" x="0" y="0" flags="0x4"/>
    </TTGlyph>
    <TTGlyph name="Odieresis" xMin="48" yMin="-12" xMax="552" yMax="813">
      <component glyphName="O" x="0" y="0" flags="0x204"/>
      <component glyphName="uni0308.cap" x="0" y="0" flags="0x4"/>
    </TTGlyph>
    <TTGlyph name="Ograve" xMin="48" yMin="-12" xMax="552" yMax="818">
      <component glyphName="O" x="0" y="0" flags="0x204"/>
      <component glyphName="uni0300.cap" x="0" y="0" flags="0x4"/>
    </TTGlyph>
    <TTGlyph name="Ohorn" xMin="48" yMin="-12" xMax="562" yMax="773">
      <contour>
        <pt x="300" y="61" on="1"/>
        <pt x="337" y="61" on="0"/>
        <pt x="399" y="99" on="0"/>
        <pt x="442" y="170" on="0"/>
        <pt x="466" y="269" on="0"/>
        <pt x="466" y="331" on="1"/>
        <pt x="466" y="392" on="0"/>
        <pt x="442" y="490" on="0"/>
        <pt x="399" y="558" on="0"/>
        <pt x="337" y="595" on="0"/>
        <pt x="300" y="595" on="1"/>
        <pt x="262" y="595" on="0"/>
        <pt x="201" y="558" on="0"/>
        <pt x="158" y="490" on="0"/>
        <pt x="134" y="392" on="0"/>
        <pt x="134" y="331" on="1"/>
        <pt x="134" y="269" on="0"/>
        <pt x="158" y="170" on="0"/>
        <pt x="201" y="99" on="0"/>
        <pt x="262" y="61" on="0"/>
      </contour>
      <contour>
        <pt x="539" y="773" on="1"/>
        <pt x="550" y="759" on="0"/>
        <pt x="562" y="727" on="0"/>
        <pt x="562" y="708" on="1"/>
        <pt x="562" y="663" on="0"/>
        <pt x="505" y="613" on="0"/>
        <pt x="460" y="602" on="1"/>
        <pt x="504" y="559" on="0"/>
        <pt x="552" y="422" on="0"/>
        <pt x="552" y="331" on="1"/>
        <pt x="552" y="252" on="0"/>
        <pt x="515" y="125" on="0"/>
        <pt x="448" y="36" on="0"/>
        <pt x="355" y="-12" on="0"/>
        <pt x="300" y="-12" on="1"/>
        <pt x="244" y="-12" on="0"/>
        <pt x="152" y="36" on="0"/>
        <pt x="85" y="125" on="0"/>
        <pt x="48" y="252" on="0"/>
        <pt x="48" y="331" on="1"/>
        <pt x="48" y="410" on="0"/>
        <pt x="85" y="535" on="0"/>
        <pt x="152" y="622" on="0"/>
        <pt x="244" y="668" on="0"/>
        <pt x="300" y="668" on="1"/>
        <pt x="363" y="668" on="0"/>
        <pt x="416" y="637" on="1"/>
        <pt x="455" y="643" on="0"/>
        <pt x="495" y="673" on="0"/>
        <pt x="495" y="703" on="1"/>
        <pt x="495" y="714" on="0"/>
        <pt x="487" y="734" on="0"/>
        <pt x="480" y="744" on="1"/>
      </contour>
    </TTGlyph>
    <TTGlyph name="Ohungarumlaut" xMin="48" yMin="-12" xMax="552" yMax="818">
      <component glyphName="O" x="0" y="0" flags="0x204"/>
      <component glyphName="uni030B.cap" x="0" y="0" flags="0x4"/>
    </TTGlyph>
    <TTGlyph name="Omacron" xMin="48" yMin="-12" xMax="552" yMax="786">
      <component glyphName="O" x="0" y="0" flags="0x204"/>
      <component glyphName="uni0304.cap" x="0" y="0" flags="0x4"/>
    </TTGlyph>
    <TTGlyph name="Oslash" xMin="45" yMin="-30" xMax="556" yMax="686">
      <contour>
        <pt x="192" y="116" on="1"/>
        <pt x="213" y="90" on="0"/>
        <pt x="268" y="61" on="0"/>
        <pt x="300" y="61" on="1"/>
        <pt x="337" y="61" on="0"/>
        <pt x="399" y="99" on="0"/>
        <pt x="442" y="170" on="0"/>
        <pt x="466" y="269" on="0"/>
        <pt x="466" y="331" on="1"/>
        <pt x="466" y="420" on="0"/>
        <pt x="441" y="484" on="1"/>
      </contour>
      <contour>
        <pt x="410" y="540" on="1"/>
        <pt x="389" y="566" on="0"/>
        <pt x="333" y="595" on="0"/>
        <pt x="300" y="595" on="1"/>
        <pt x="262" y="595" on="0"/>
        <pt x="201" y="558" on="0"/>
        <pt x="158" y="490" on="0"/>
        <pt x="134" y="392" on="0"/>
        <pt x="134" y="331" on="1"/>
        <pt x="134" y="236" on="0"/>
        <pt x="161" y="172" on="1"/>
      </contour>
      <contour>
        <pt x="493" y="561" on="1"/>
        <pt x="522" y="518" on="0"/>
        <pt x="552" y="403" on="0"/>
        <pt x="552" y="331" on="1"/>
        <pt x="552" y="252" on="0"/>
        <pt x="515" y="125" on="0"/>
        <pt x="448" y="36" on="0"/>
        <pt x="355" y="-12" on="0"/>
        <pt x="300" y="-12" on="1"/>
        <pt x="210" y="-12" on="0"/>
        <pt x="146" y="49" on="1"/>
        <pt x="93" y="-30" on="1"/>
        <pt x="45" y="2" on="1"/>
        <pt x="108" y="95" on="1"/>
        <pt x="79" y="140" on="0"/>
        <pt x="48" y="258" on="0"/>
        <pt x="48" y="331" on="1"/>
        <pt x="48" y="410" on="0"/>
        <pt x="85" y="535" on="0"/>
        <pt x="152" y="622" on="0"/>
        <pt x="244" y="668" on="0"/>
        <pt x="300" y="668" on="1"/>
        <pt x="392" y="668" on="0"/>
        <pt x="455" y="607" on="1"/>
        <pt x="509" y="686" on="1"/>
        <pt x="556" y="654" on="1"/>
      </contour>
    </TTGlyph>
    <TTGlyph name="Otilde" xMin="48" yMin="-12" xMax="552" yMax="819">
      <component glyphName="O" x="0" y="0" flags="0x204"/>
      <component glyphName="uni0303.cap" x="0" y="0" flags="0x4"/>
    </TTGlyph>
    <TTGlyph name="P" xMin="102" yMin="0" xMax="545" yMax="656">
      <contour>
        <pt x="102" y="656" on="1"/>
        <pt x="303" y="656" on="1"/>
        <pt x="357" y="656" on="0"/>
        <pt x="447" y="636" on="0"/>
        <pt x="510" y="591" on="0"/>
        <pt x="545" y="517" on="0"/>
        <pt x="545" y="463" on="1"/>
        <pt x="545" y="411" on="0"/>
        <pt x="510" y="335" on="0"/>
        <pt x="446" y="285" on="0"/>
        <pt x="357" y="260" on="0"/>
        <pt x="303" y="260" on="1"/>
        <pt x="185" y="260" on="1"/>
        <pt x="185" y="0" on="1"/>
        <pt x="102" y="0" on="1"/>
      </contour>
      <contour>
        <pt x="292" y="328" on="1"/>
        <pt x="379" y="328" on="0"/>
        <pt x="462" y="393" on="0"/>
        <pt x="462" y="463" on="1"/>
        <pt x="462" y="534" on="0"/>
        <pt x="377" y="589" on="0"/>
        <pt x="292" y="589" on="1"/>
        <pt x="185" y="589" on="1"/>
        <pt x="185" y="328" on="1"/>
      </contour>
    </TTGlyph>
    <TTGlyph name="Q" xMin="49" yMin="-163" xMax="553" yMax="669">
      <contour>
        <pt x="134" y="331" on="1"/>
        <pt x="134" y="270" on="0"/>
        <pt x="157" y="170" on="0"/>
        <pt x="200" y="99" on="0"/>
        <pt x="261" y="60" on="0"/>
        <pt x="299" y="60" on="1"/>
        <pt x="336" y="60" on="0"/>
        <pt x="397" y="99" on="0"/>
        <pt x="440" y="170" on="0"/>
        <pt x="463" y="270" on="0"/>
        <pt x="463" y="331" on="1"/>
        <pt x="463" y="392" on="0"/>
        <pt x="440" y="491" on="0"/>
        <pt x="397" y="560" on="0"/>
        <pt x="336" y="597" on="0"/>
        <pt x="299" y="597" on="1"/>
        <pt x="261" y="597" on="0"/>
        <pt x="200" y="560" on="0"/>
        <pt x="157" y="491" on="0"/>
        <pt x="134" y="392" on="0"/>
      </contour>
      <contour>
        <pt x="553" y="-149" on="1"/>
        <pt x="537" y="-155" on="0"/>
        <pt x="501" y="-163" on="0"/>
        <pt x="479" y="-163" on="1"/>
        <pt x="392" y="-163" on="0"/>
        <pt x="283" y="-75" on="0"/>
        <pt x="258" y="-8" on="1"/>
        <pt x="211" y="0" on="0"/>
        <pt x="134" y="55" on="0"/>
        <pt x="79" y="142" on="0"/>
        <pt x="49" y="260" on="0"/>
        <pt x="49" y="331" on="1"/>
        <pt x="49" y="410" on="0"/>
        <pt x="85" y="535" on="0"/>
        <pt x="151" y="622" on="0"/>
        <pt x="243" y="669" on="0"/>
        <pt x="299" y="669" on="1"/>
        <pt x="354" y="669" on="0"/>
        <pt x="446" y="622" on="0"/>
        <pt x="512" y="535" on="0"/>
        <pt x="548" y="409" on="0"/>
        <pt x="548" y="331" on="1"/>
        <pt x="548" y="261" on="0"/>
        <pt x="519" y="145" on="0"/>
        <pt x="467" y="58" on="0"/>
        <pt x="392" y="2" on="0"/>
        <pt x="347" y="-7" on="1"/>
        <pt x="364" y="-49" on="0"/>
        <pt x="438" y="-92" on="0"/>
        <pt x="489" y="-92" on="1"/>
        <pt x="504" y="-92" on="0"/>
        <pt x="529" y="-86" on="0"/>
        <pt x="538" y="-82" on="1"/>
      </contour>
    </TTGlyph>
    <TTGlyph name="R" xMin="100" yMin="0" xMax="553" yMax="656">
      <contour>
        <pt x="183" y="345" on="1"/>
        <pt x="292" y="345" on="1"/>
        <pt x="369" y="345" on="0"/>
        <pt x="450" y="408" on="0"/>
        <pt x="450" y="472" on="1"/>
        <pt x="450" y="537" on="0"/>
        <pt x="369" y="589" on="0"/>
        <pt x="292" y="589" on="1"/>
        <pt x="183" y="589" on="1"/>
      </contour>
      <contour>
        <pt x="458" y="0" on="1"/>
        <pt x="300" y="277" on="1"/>
        <pt x="183" y="277" on="1"/>
        <pt x="183" y="0" on="1"/>
        <pt x="100" y="0" on="1"/>
        <pt x="100" y="656" on="1"/>
        <pt x="304" y="656" on="1"/>
        <pt x="354" y="656" on="0"/>
        <pt x="438" y="637" on="0"/>
        <pt x="499" y="593" on="0"/>
        <pt x="533" y="523" on="0"/>
        <pt x="533" y="472" on="1"/>
        <pt x="533" y="395" on="0"/>
        <pt x="453" y="303" on="0"/>
        <pt x="386" y="286" on="1"/>
        <pt x="553" y="0" on="1"/>
      </contour>
    </TTGlyph>
    <TTGlyph name="Racute" xMin="100" yMin="0" xMax="553" yMax="818">
      <component glyphName="R" x="0" y="0" flags="0x204"/>
      <component glyphName="uni0301.cap" x="5" y="0" flags="0x4"/>
    </TTGlyph>
    <TTGlyph name="Rcaron" xMin="100" yMin="0" xMax="553" yMax="818">
      <component glyphName="R" x="0" y="0" flags="0x204"/>
      <component glyphName="uni030C.cap" x="5" y="0" flags="0x4"/>
    </TTGlyph>
    <TTGlyph name="S" xMin="67" yMin="-12" xMax="537" yMax="668">
      <contour>
        <pt x="117" y="143" on="1"/>
        <pt x="154" y="106" on="0"/>
        <pt x="252" y="61" on="0"/>
        <pt x="306" y="61" on="1"/>
        <pt x="376" y="61" on="0"/>
        <pt x="452" y="120" on="0"/>
        <pt x="452" y="168" on="1"/>
        <pt x="452" y="193" on="0"/>
        <pt x="434" y="228" on="0"/>
        <pt x="402" y="253" on="0"/>
        <pt x="359" y="273" on="0"/>
        <pt x="334" y="284" on="1"/>
        <pt x="240" y="325" on="1"/>
        <pt x="215" y="335" on="0"/>
        <pt x="165" y="363" on="0"/>
        <pt x="124" y="403" on="0"/>
        <pt x="98" y="458" on="0"/>
        <pt x="98" y="494" on="1"/>
        <pt x="98" y="531" on="0"/>
        <pt x="130" y="595" on="0"/>
        <pt x="187" y="642" on="0"/>
        <pt x="266" y="668" on="0"/>
        <pt x="313" y="668" on="1"/>
        <pt x="375" y="668" on="0"/>
        <pt x="479" y="623" on="0"/>
        <pt x="515" y="587" on="1"/>
        <pt x="471" y="533" on="1"/>
        <pt x="439" y="562" on="0"/>
        <pt x="362" y="595" on="0"/>
        <pt x="313" y="595" on="1"/>
        <pt x="253" y="595" on="0"/>
        <pt x="183" y="544" on="0"/>
        <pt x="183" y="499" on="1"/>
        <pt x="183" y="475" on="0"/>
        <pt x="204" y="442" on="0"/>
        <pt x="237" y="417" on="0"/>
        <pt x="279" y="399" on="0"/>
        <pt x="300" y="390" on="1"/>
        <pt x="392" y="350" on="1"/>
        <pt x="422" y="338" on="0"/>
        <pt x="475" y="307" on="0"/>
        <pt x="514" y="266" on="0"/>
        <pt x="537" y="211" on="0"/>
        <pt x="537" y="175" on="1"/>
        <pt x="537" y="136" on="0"/>
        <pt x="505" y="68" on="0"/>
        <pt x="445" y="17" on="0"/>
        <pt x="359" y="-12" on="0"/>
        <pt x="305" y="-12" on="1"/>
        <pt x="233" y="-12" on="0"/>
        <pt x="112" y="40" on="0"/>
        <pt x="67" y="85" on="1"/>
      </contour>
    </TTGlyph>
    <TTGlyph name="Sacute" xMin="67" yMin="-12" xMax="537" yMax="818">
      <component glyphName="S" x="0" y="0" flags="0x204"/>
      <component glyphName="uni0301.cap" x="11" y="0" flags="0x4"/>
    </TTGlyph>
    <TTGlyph name="Scaron" xMin="67" yMin="-12" xMax="537" yMax="818">
      <component glyphName="S" x="0" y="0" flags="0x204"/>
      <component glyphName="uni030C.cap" x="11" y="0" flags="0x4"/>
    </TTGlyph>
    <TTGlyph name="Scircumflex" xMin="67" yMin="-12" xMax="537" yMax="818">
      <component glyphName="S" x="0" y="0" flags="0x204"/>
      <component glyphName="uni0302.cap" x="11" y="0" flags="0x4"/>
    </TTGlyph>
    <TTGlyph name="T" xMin="42" yMin="0" xMax="558" yMax="656">
      <contour>
        <pt x="258" y="586" on="1"/>
        <pt x="42" y="586" on="1"/>
        <pt x="42" y="656" on="1"/>
        <pt x="558" y="656" on="1"/>
        <pt x="558" y="586" on="1"/>
        <pt x="342" y="586" on="1"/>
        <pt x="342" y="0" on="1"/>
        <pt x="258" y="0" on="1"/>
      </contour>
    </TTGlyph>
    <TTGlyph name="Tcaron" xMin="42" yMin="0" xMax="558" yMax="818">
      <component glyphName="T" x="0" y="0" flags="0x204"/>
      <component glyphName="uni030C.cap" x="0" y="0" flags="0x4"/>
    </TTGlyph>
    <TTGlyph name="Thorn" xMin="101" yMin="0" xMax="545" yMax="656">
      <contour>
        <pt x="101" y="656" on="1"/>
        <pt x="185" y="656" on="1"/>
        <pt x="185" y="546" on="1"/>
        <pt x="303" y="546" on="1"/>
        <pt x="357" y="546" on="0"/>
        <pt x="447" y="526" on="0"/>
        <pt x="510" y="480" on="0"/>
        <pt x="545" y="407" on="0"/>
        <pt x="545" y="353" on="1"/>
        <pt x="545" y="301" on="0"/>
        <pt x="510" y="224" on="0"/>
        <pt x="446" y="174" on="0"/>
        <pt x="357" y="150" on="0"/>
        <pt x="303" y="150" on="1"/>
        <pt x="185" y="150" on="1"/>
        <pt x="185" y="0" on="1"/>
        <pt x="101" y="0" on="1"/>
      </contour>
      <contour>
        <pt x="292" y="218" on="1"/>
        <pt x="379" y="218" on="0"/>
        <pt x="462" y="282" on="0"/>
        <pt x="462" y="353" on="1"/>
        <pt x="462" y="424" on="0"/>
        <pt x="377" y="478" on="0"/>
        <pt x="292" y="478" on="1"/>
        <pt x="185" y="478" on="1"/>
        <pt x="185" y="218" on="1"/>
      </contour>
    </TTGlyph>
    <TTGlyph name="U" xMin="79" yMin="-12" xMax="521" yMax="656">
      <contour>
        <pt x="79" y="656" on="1"/>
        <pt x="163" y="656" on="1"/>
        <pt x="163" y="246" on="1"/>
        <pt x="163" y="195" on="0"/>
        <pt x="184" y="124" on="0"/>
        <pt x="221" y="81" on="0"/>
        <pt x="271" y="61" on="0"/>
        <pt x="301" y="61" on="1"/>
        <pt x="331" y="61" on="0"/>
        <pt x="381" y="81" on="0"/>
        <pt x="419" y="124" on="0"/>
        <pt x="440" y="195" on="0"/>
        <pt x="440" y="246" on="1"/>
        <pt x="440" y="656" on="1"/>
        <pt x="521" y="656" on="1"/>
        <pt x="521" y="248" on="1"/>
        <pt x="521" y="177" on="0"/>
        <pt x="488" y="79" on="0"/>
        <pt x="430" y="16" on="0"/>
        <pt x="349" y="-12" on="0"/>
        <pt x="301" y="-12" on="1"/>
        <pt x="253" y="-12" on="0"/>
        <pt x="171" y="16" on="0"/>
        <pt x="112" y="79" on="0"/>
        <pt x="79" y="177" on="0"/>
        <pt x="79" y="248" on="1"/>
      </contour>
    </TTGlyph>
    <TTGlyph name="Uacute" xMin="79" yMin="-12" xMax="521" yMax="818">
      <component glyphName="U" x="0" y="0" flags="0x204"/>
      <component glyphName="uni0301.cap" x="0" y="0" flags="0x4"/>
    </TTGlyph>
    <TTGlyph name="Ubreve" xMin="79" yMin="-12" xMax="521" yMax="818">
      <component glyphName="U" x="0" y="0" flags="0x204"/>
      <component glyphName="uni0306.cap" x="0" y="0" flags="0x4"/>
    </TTGlyph>
    <TTGlyph name="Ucircumflex" xMin="79" yMin="-12" xMax="521" yMax="818">
      <component glyphName="U" x="0" y="0" flags="0x204"/>
      <component glyphName="uni0302.cap" x="0" y="0" flags="0x4"/>
    </TTGlyph>
    <TTGlyph name="Udieresis" xMin="79" yMin="-12" xMax="521" yMax="813">
      <component glyphName="U" x="0" y="0" flags="0x204"/>
      <component glyphName="uni0308.cap" x="0" y="0" flags="0x4"/>
    </TTGlyph>
    <TTGlyph name="Ugrave" xMin="79" yMin="-12" xMax="521" yMax="818">
      <component glyphName="U" x="0" y="0" flags="0x204"/>
      <component glyphName="uni0300.cap" x="0" y="0" flags="0x4"/>
    </TTGlyph>
    <TTGlyph name="Uhorn" xMin="79" yMin="-12" xMax="630" yMax="793">
      <contour>
        <pt x="607" y="793" on="1"/>
        <pt x="618" y="779" on="0"/>
        <pt x="630" y="747" on="0"/>
        <pt x="630" y="728" on="1"/>
        <pt x="630" y="703" on="0"/>
        <pt x="612" y="667" on="0"/>
        <pt x="582" y="641" on="0"/>
        <pt x="543" y="625" on="0"/>
        <pt x="521" y="620" on="1"/>
        <pt x="521" y="248" on="1"/>
        <pt x="521" y="177" on="0"/>
        <pt x="488" y="79" on="0"/>
        <pt x="430" y="16" on="0"/>
        <pt x="349" y="-12" on="0"/>
        <pt x="301" y="-12" on="1"/>
        <pt x="253" y="-12" on="0"/>
        <pt x="171" y="16" on="0"/>
        <pt x="112" y="79" on="0"/>
        <pt x="79" y="177" on="0"/>
        <pt x="79" y="248" on="1"/>
        <pt x="79" y="656" on="1"/>
        <pt x="163" y="656" on="1"/>
        <pt x="163" y="246" on="1"/>
        <pt x="163" y="195" on="0"/>
        <pt x="184" y="124" on="0"/>
        <pt x="221" y="81" on="0"/>
        <pt x="271" y="61" on="0"/>
        <pt x="301" y="61" on="1"/>
        <pt x="331" y="61" on="0"/>
        <pt x="381" y="81" on="0"/>
        <pt x="419" y="124" on="0"/>
        <pt x="440" y="195" on="0"/>
        <pt x="440" y="246" on="1"/>
        <pt x="440" y="656" on="1"/>
        <pt x="475" y="656" on="1"/>
        <pt x="515" y="661" on="0"/>
        <pt x="563" y="688" on="0"/>
        <pt x="563" y="723" on="1"/>
        <pt x="563" y="734" on="0"/>
        <pt x="555" y="754" on="0"/>
        <pt x="548" y="764" on="1"/>
      </contour>
    </TTGlyph>
    <TTGlyph name="Uhungarumlaut" xMin="79" yMin="-12" xMax="521" yMax="818">
      <component glyphName="U" x="0" y="0" flags="0x204"/>
      <component glyphName="uni030B.cap" x="0" y="0" flags="0x4"/>
    </TTGlyph>
    <TTGlyph name="Umacron" xMin="79" yMin="-12" xMax="521" yMax="786">
      <component glyphName="U" x="0" y="0" flags="0x204"/>
      <component glyphName="uni0304.cap" x="0" y="0" flags="0x4"/>
    </TTGlyph>
    <TTGlyph name="Uogonek" xMin="79" yMin="-212" xMax="521" yMax="656">
      <contour>
        <pt x="79" y="656" on="1"/>
        <pt x="163" y="656" on="1"/>
        <pt x="163" y="246" on="1"/>
        <pt x="163" y="195" on="0"/>
        <pt x="184" y="124" on="0"/>
        <pt x="220" y="81" on="0"/>
        <pt x="270" y="61" on="0"/>
        <pt x="300" y="61" on="1"/>
        <pt x="330" y="61" on="0"/>
        <pt x="381" y="81" on="0"/>
        <pt x="418" y="124" on="0"/>
        <pt x="440" y="195" on="0"/>
        <pt x="440" y="246" on="1"/>
        <pt x="440" y="656" on="1"/>
        <pt x="521" y="656" on="1"/>
        <pt x="521" y="248" on="1"/>
        <pt x="521" y="146" on="0"/>
        <pt x="452" y="30" on="0"/>
        <pt x="397" y="5" on="1"/>
        <pt x="344" y="-19" on="0"/>
        <pt x="296" y="-80" on="0"/>
        <pt x="296" y="-107" on="1"/>
        <pt x="296" y="-130" on="0"/>
        <pt x="325" y="-153" on="0"/>
        <pt x="343" y="-153" on="1"/>
        <pt x="355" y="-153" on="0"/>
        <pt x="374" y="-146" on="0"/>
        <pt x="384" y="-139" on="1"/>
        <pt x="406" y="-184" on="1"/>
        <pt x="392" y="-195" on="0"/>
        <pt x="347" y="-212" on="0"/>
        <pt x="327" y="-212" on="1"/>
        <pt x="287" y="-212" on="0"/>
        <pt x="231" y="-168" on="0"/>
        <pt x="231" y="-125" on="1"/>
        <pt x="231" y="-104" on="0"/>
        <pt x="244" y="-71" on="0"/>
        <pt x="264" y="-43" on="0"/>
        <pt x="287" y="-20" on="0"/>
        <pt x="296" y="-11" on="1"/>
        <pt x="186" y="-9" on="0"/>
        <pt x="79" y="123" on="0"/>
        <pt x="79" y="248" on="1"/>
      </contour>
    </TTGlyph>
    <TTGlyph name="Uring" xMin="79" yMin="-12" xMax="521" yMax="875">
      <component glyphName="U" x="0" y="0" flags="0x204"/>
      <component glyphName="uni030A.cap" x="0" y="0" flags="0x4"/>
    </TTGlyph>
    <TTGlyph name="Utilde" xMin="79" yMin="-12" xMax="521" yMax="819">
      <component glyphName="U" x="0" y="0" flags="0x204"/>
      <component glyphName="uni0303.cap" x="0" y="0" flags="0x4"/>
    </TTGlyph>
    <TTGlyph name="V" xMin="43" yMin="0" xMax="557" yMax="656">
      <contour>
        <pt x="43" y="656" on="1"/>
        <pt x="131" y="656" on="1"/>
        <pt x="237" y="302" on="1"/>
        <pt x="254" y="243" on="0"/>
        <pt x="282" y="143" on="0"/>
        <pt x="300" y="85" on="1"/>
        <pt x="304" y="85" on="1"/>
        <pt x="313" y="114" on="0"/>
        <pt x="329" y="167" on="0"/>
        <pt x="344" y="219" on="0"/>
        <pt x="359" y="273" on="0"/>
        <pt x="367" y="302" on="1"/>
        <pt x="472" y="656" on="1"/>
        <pt x="557" y="656" on="1"/>
        <pt x="349" y="0" on="1"/>
        <pt x="252" y="0" on="1"/>
      </contour>
    </TTGlyph>
    <TTGlyph name="W" xMin="10" yMin="0" xMax="590" yMax="657">
      <contour>
        <pt x="10" y="657" on="1"/>
        <pt x="93" y="657" on="1"/>
        <pt x="146" y="245" on="1"/>
        <pt x="148" y="203" on="0"/>
        <pt x="157" y="124" on="0"/>
        <pt x="160" y="83" on="1"/>
        <pt x="163" y="83" on="1"/>
        <pt x="174" y="124" on="0"/>
        <pt x="195" y="204" on="0"/>
        <pt x="205" y="245" on="1"/>
        <pt x="274" y="487" on="1"/>
        <pt x="333" y="487" on="1"/>
        <pt x="402" y="245" on="1"/>
        <pt x="411" y="205" on="0"/>
        <pt x="432" y="124" on="0"/>
        <pt x="443" y="83" on="1"/>
        <pt x="447" y="83" on="1"/>
        <pt x="450" y="124" on="0"/>
        <pt x="458" y="204" on="0"/>
        <pt x="461" y="245" on="1"/>
        <pt x="511" y="657" on="1"/>
        <pt x="590" y="657" on="1"/>
        <pt x="493" y="0" on="1"/>
        <pt x="401" y="0" on="1"/>
        <pt x="326" y="275" on="1"/>
        <pt x="319" y="304" on="0"/>
        <pt x="307" y="364" on="0"/>
        <pt x="302" y="393" on="1"/>
        <pt x="299" y="393" on="1"/>
        <pt x="293" y="364" on="0"/>
        <pt x="281" y="304" on="0"/>
        <pt x="273" y="275" on="1"/>
        <pt x="201" y="0" on="1"/>
        <pt x="111" y="0" on="1"/>
      </contour>
    </TTGlyph>
    <TTGlyph name="Wacute" xMin="10" yMin="0" xMax="590" yMax="818">
      <component glyphName="W" x="0" y="0" flags="0x204"/>
      <component glyphName="uni0301.cap" x="0" y="0" flags="0x4"/>
    </TTGlyph>
    <TTGlyph name="Wcircumflex" xMin="10" yMin="0" xMax="590" yMax="818">
      <component glyphName="W" x="0" y="0" flags="0x204"/>
      <component glyphName="uni0302.cap" x="0" y="0" flags="0x4"/>
    </TTGlyph>
    <TTGlyph name="Wdieresis" xMin="10" yMin="0" xMax="590" yMax="813">
      <component glyphName="W" x="0" y="0" flags="0x204"/>
      <component glyphName="uni0308.cap" x="0" y="0" flags="0x4"/>
    </TTGlyph>
    <TTGlyph name="Wgrave" xMin="10" yMin="0" xMax="590" yMax="818">
      <component glyphName="W" x="0" y="0" flags="0x204"/>
      <component glyphName="uni0300.cap" x="0" y="0" flags="0x4"/>
    </TTGlyph>
    <TTGlyph name="X" xMin="54" yMin="0" xMax="546" yMax="656">
      <contour>
        <pt x="250" y="339" on="1"/>
        <pt x="67" y="656" on="1"/>
        <pt x="159" y="656" on="1"/>
        <pt x="251" y="488" on="1"/>
        <pt x="264" y="465" on="0"/>
        <pt x="288" y="422" on="0"/>
        <pt x="304" y="393" on="1"/>
        <pt x="308" y="393" on="1"/>
        <pt x="322" y="422" on="0"/>
        <pt x="343" y="465" on="0"/>
        <pt x="355" y="488" on="1"/>
        <pt x="445" y="656" on="1"/>
        <pt x="533" y="656" on="1"/>
        <pt x="350" y="335" on="1"/>
        <pt x="546" y="0" on="1"/>
        <pt x="454" y="0" on="1"/>
        <pt x="355" y="177" on="1"/>
        <pt x="341" y="201" on="0"/>
        <pt x="314" y="252" on="0"/>
        <pt x="297" y="282" on="1"/>
        <pt x="293" y="282" on="1"/>
        <pt x="279" y="252" on="0"/>
        <pt x="253" y="201" on="0"/>
        <pt x="240" y="177" on="1"/>
        <pt x="142" y="0" on="1"/>
        <pt x="54" y="0" on="1"/>
      </contour>
    </TTGlyph>
    <TTGlyph name="Y" xMin="38" yMin="0" xMax="562" yMax="656">
      <contour>
        <pt x="258" y="234" on="1"/>
        <pt x="38" y="656" on="1"/>
        <pt x="126" y="656" on="1"/>
        <pt x="225" y="461" on="1"/>
        <pt x="244" y="423" on="0"/>
        <pt x="280" y="348" on="0"/>
        <pt x="300" y="308" on="1"/>
        <pt x="304" y="308" on="1"/>
        <pt x="324" y="348" on="0"/>
        <pt x="362" y="424" on="0"/>
        <pt x="381" y="462" on="1"/>
        <pt x="476" y="656" on="1"/>
        <pt x="562" y="656" on="1"/>
        <pt x="342" y="234" on="1"/>
        <pt x="342" y="0" on="1"/>
        <pt x="258" y="0" on="1"/>
      </contour>
    </TTGlyph>
    <TTGlyph name="Yacute" xMin="38" yMin="0" xMax="562" yMax="818">
      <component glyphName="Y" x="0" y="0" flags="0x204"/>
      <component glyphName="uni0301.cap" x="0" y="0" flags="0x4"/>
    </TTGlyph>
    <TTGlyph name="Ycircumflex" xMin="38" yMin="0" xMax="562" yMax="818">
      <component glyphName="Y" x="0" y="0" flags="0x204"/>
      <component glyphName="uni0302.cap" x="0" y="0" flags="0x4"/>
    </TTGlyph>
    <TTGlyph name="Ydieresis" xMin="38" yMin="0" xMax="562" yMax="813">
      <component glyphName="Y" x="0" y="0" flags="0x204"/>
      <component glyphName="uni0308.cap" x="0" y="0" flags="0x4"/>
    </TTGlyph>
    <TTGlyph name="Ygrave" xMin="38" yMin="0" xMax="562" yMax="818">
      <component glyphName="Y" x="0" y="0" flags="0x204"/>
      <component glyphName="uni0300.cap" x="0" y="0" flags="0x4"/>
    </TTGlyph>
    <TTGlyph name="Z" xMin="65" yMin="0" xMax="539" yMax="657">
      <contour>
        <pt x="65" y="50" on="1"/>
        <pt x="432" y="587" on="1"/>
        <pt x="97" y="587" on="1"/>
        <pt x="97" y="657" on="1"/>
        <pt x="534" y="657" on="1"/>
        <pt x="534" y="607" on="1"/>
        <pt x="166" y="71" on="1"/>
        <pt x="539" y="71" on="1"/>
        <pt x="539" y="0" on="1"/>
        <pt x="65" y="0" on="1"/>
      </contour>
    </TTGlyph>
    <TTGlyph name="Zacute" xMin="65" yMin="0" xMax="539" yMax="818">
      <component glyphName="Z" x="0" y="0" flags="0x204"/>
      <component glyphName="uni0301.cap" x="15" y="0" flags="0x4"/>
    </TTGlyph>
    <TTGlyph name="Zcaron" xMin="65" yMin="0" xMax="539" yMax="818">
      <component glyphName="Z" x="0" y="0" flags="0x204"/>
      <component glyphName="uni030C.cap" x="15" y="0" flags="0x4"/>
    </TTGlyph>
    <TTGlyph name="Zdotaccent" xMin="65" yMin="0" xMax="539" yMax="821">
      <component glyphName="Z" x="0" y="0" flags="0x204"/>
      <component glyphName="uni0307.cap" x="15" y="0" flags="0x4"/>
    </TTGlyph>
    <TTGlyph name="a" xMin="81" yMin="-12" xMax="515" yMax="498">
      <contour>
        <pt x="81" y="126" on="1"/>
        <pt x="81" y="167" on="0"/>
        <pt x="120" y="228" on="0"/>
        <pt x="205" y="272" on="0"/>
        <pt x="339" y="300" on="0"/>
        <pt x="433" y="308" on="1"/>
        <pt x="432" y="333" on="0"/>
        <pt x="418" y="377" on="0"/>
        <pt x="388" y="410" on="0"/>
        <pt x="339" y="430" on="0"/>
        <pt x="304" y="430" on="1"/>
        <pt x="256" y="430" on="0"/>
        <pt x="168" y="393" on="0"/>
        <pt x="134" y="372" on="1"/>
        <pt x="102" y="428" on="1"/>
        <pt x="120" y="440" on="0"/>
        <pt x="169" y="465" on="0"/>
        <pt x="224" y="485" on="0"/>
        <pt x="286" y="498" on="0"/>
        <pt x="318" y="498" on="1"/>
        <pt x="418" y="498" on="0"/>
        <pt x="515" y="389" on="0"/>
        <pt x="515" y="298" on="1"/>
        <pt x="515" y="0" on="1"/>
        <pt x="448" y="0" on="1"/>
        <pt x="441" y="66" on="1"/>
        <pt x="438" y="66" on="1"/>
        <pt x="397" y="34" on="0"/>
        <pt x="298" y="-12" on="0"/>
        <pt x="246" y="-12" on="1"/>
        <pt x="212" y="-12" on="0"/>
        <pt x="152" y="7" on="0"/>
        <pt x="107" y="42" on="0"/>
        <pt x="81" y="93" on="0"/>
      </contour>
      <contour>
        <pt x="161" y="132" on="1"/>
        <pt x="161" y="111" on="0"/>
        <pt x="179" y="82" on="0"/>
        <pt x="208" y="63" on="0"/>
        <pt x="247" y="54" on="0"/>
        <pt x="268" y="54" on="1"/>
        <pt x="310" y="54" on="0"/>
        <pt x="391" y="91" on="0"/>
        <pt x="433" y="126" on="1"/>
        <pt x="433" y="254" on="1"/>
        <pt x="355" y="248" on="0"/>
        <pt x="250" y="226" on="0"/>
        <pt x="187" y="195" on="0"/>
        <pt x="161" y="156" on="0"/>
      </contour>
    </TTGlyph>
    <TTGlyph name="a.a" xMin="60" yMin="-12" xMax="507" yMax="498">
      <component glyphName="uni0251" x="0" y="0" flags="0x204"/>
    </TTGlyph>
    <TTGlyph name="a.supa" xMin="137" yMin="252" xMax="438" yMax="590">
      <contour>
        <pt x="203" y="421" on="1"/>
        <pt x="203" y="366" on="0"/>
        <pt x="249" y="305" on="0"/>
        <pt x="291" y="305" on="1"/>
        <pt x="335" y="305" on="0"/>
        <pt x="374" y="345" on="1"/>
        <pt x="374" y="506" on="1"/>
        <pt x="354" y="523" on="0"/>
        <pt x="314" y="537" on="0"/>
        <pt x="294" y="537" on="1"/>
        <pt x="256" y="537" on="0"/>
        <pt x="203" y="475" on="0"/>
      </contour>
      <contour>
        <pt x="137" y="421" on="1"/>
        <pt x="137" y="460" on="0"/>
        <pt x="161" y="523" on="0"/>
        <pt x="201" y="567" on="0"/>
        <pt x="254" y="590" on="0"/>
        <pt x="283" y="590" on="1"/>
        <pt x="311" y="590" on="0"/>
        <pt x="356" y="571" on="0"/>
        <pt x="379" y="551" on="1"/>
        <pt x="381" y="551" on="1"/>
        <pt x="386" y="582" on="1"/>
        <pt x="438" y="582" on="1"/>
        <pt x="438" y="260" on="1"/>
        <pt x="385" y="260" on="1"/>
        <pt x="380" y="297" on="1"/>
        <pt x="378" y="297" on="1"/>
        <pt x="358" y="278" on="0"/>
        <pt x="305" y="252" on="0"/>
        <pt x="276" y="252" on="1"/>
        <pt x="213" y="252" on="0"/>
        <pt x="137" y="340" on="0"/>
      </contour>
    </TTGlyph>
    <TTGlyph name="a.sups" xMin="167" yMin="252" xMax="442" yMax="590">
      <contour>
        <pt x="167" y="345" on="1"/>
        <pt x="167" y="398" on="0"/>
        <pt x="269" y="454" on="0"/>
        <pt x="378" y="465" on="1"/>
        <pt x="377" y="495" on="0"/>
        <pt x="347" y="539" on="0"/>
        <pt x="308" y="539" on="1"/>
        <pt x="279" y="539" on="0"/>
        <pt x="227" y="518" on="0"/>
        <pt x="205" y="505" on="1"/>
        <pt x="180" y="548" on="1"/>
        <pt x="206" y="563" on="0"/>
        <pt x="278" y="590" on="0"/>
        <pt x="318" y="590" on="1"/>
        <pt x="381" y="590" on="0"/>
        <pt x="442" y="518" on="0"/>
        <pt x="442" y="455" on="1"/>
        <pt x="442" y="260" on="1"/>
        <pt x="390" y="260" on="1"/>
        <pt x="385" y="297" on="1"/>
        <pt x="383" y="297" on="1"/>
        <pt x="359" y="278" on="0"/>
        <pt x="302" y="252" on="0"/>
        <pt x="270" y="252" on="1"/>
        <pt x="227" y="252" on="0"/>
        <pt x="167" y="302" on="0"/>
      </contour>
      <contour>
        <pt x="230" y="349" on="1"/>
        <pt x="230" y="325" on="0"/>
        <pt x="264" y="302" on="0"/>
        <pt x="289" y="302" on="1"/>
        <pt x="312" y="302" on="0"/>
        <pt x="355" y="323" on="0"/>
        <pt x="378" y="342" on="1"/>
        <pt x="378" y="424" on="1"/>
        <pt x="297" y="415" on="0"/>
        <pt x="230" y="378" on="0"/>
      </contour>
    </TTGlyph>
    <TTGlyph name="aacute" xMin="81" yMin="-12" xMax="515" yMax="721">
      <component glyphName="a" x="0" y="0" flags="0x204"/>
      <component glyphName="uni0301" x="14" y="0" flags="0x4"/>
    </TTGlyph>
    <TTGlyph name="aacute.a" xMin="60" yMin="-12" xMax="507" yMax="721">
      <component glyphName="uni0251" x="0" y="0" flags="0x204"/>
      <component glyphName="uni0301" x="7" y="0" flags="0x4"/>
    </TTGlyph>
    <TTGlyph name="abreve" xMin="81" yMin="-12" xMax="515" yMax="709">
      <component glyphName="a" x="0" y="0" flags="0x204"/>
      <component glyphName="uni0306" x="14" y="0" flags="0x4"/>
    </TTGlyph>
    <TTGlyph name="abreve.a" xMin="60" yMin="-12" xMax="507" yMax="709">
      <component glyphName="uni0251" x="0" y="0" flags="0x204"/>
      <component glyphName="uni0306" x="7" y="0" flags="0x4"/>
    </TTGlyph>
    <TTGlyph name="acircumflex" xMin="81" yMin="-12" xMax="515" yMax="721">
      <component glyphName="a" x="0" y="0" flags="0x204"/>
      <component glyphName="uni0302" x="14" y="0" flags="0x4"/>
    </TTGlyph>
    <TTGlyph name="acircumflex.a" xMin="60" yMin="-12" xMax="507" yMax="721">
      <component glyphName="uni0251" x="0" y="0" flags="0x204"/>
      <component glyphName="uni0302" x="7" y="0" flags="0x4"/>
    </TTGlyph>
    <TTGlyph name="acute" xMin="235" yMin="573" xMax="415" yMax="721">
      <component glyphName="uni0301" x="0" y="0" flags="0x204"/>
    </TTGlyph>
    <TTGlyph name="adieresis" xMin="81" yMin="-12" xMax="515" yMax="698">
      <component glyphName="a" x="0" y="0" flags="0x204"/>
      <component glyphName="uni0308" x="14" y="0" flags="0x4"/>
    </TTGlyph>
    <TTGlyph name="adieresis.a" xMin="60" yMin="-12" xMax="507" yMax="698">
      <component glyphName="uni0251" x="0" y="0" flags="0x204"/>
      <component glyphName="uni0308" x="7" y="0" flags="0x4"/>
    </TTGlyph>
    <TTGlyph name="ae" xMin="17" yMin="-12" xMax="597" yMax="498">
      <contour>
        <pt x="17" y="129" on="1"/>
        <pt x="17" y="202" on="0"/>
        <pt x="141" y="289" on="0"/>
        <pt x="265" y="308" on="1"/>
        <pt x="264" y="362" on="0"/>
        <pt x="225" y="431" on="0"/>
        <pt x="178" y="431" on="1"/>
        <pt x="152" y="431" on="0"/>
        <pt x="87" y="406" on="0"/>
        <pt x="64" y="390" on="1"/>
        <pt x="33" y="446" on="1"/>
        <pt x="63" y="466" on="0"/>
        <pt x="143" y="498" on="0"/>
        <pt x="188" y="498" on="1"/>
        <pt x="236" y="498" on="0"/>
        <pt x="295" y="442" on="0"/>
        <pt x="309" y="400" on="1"/>
        <pt x="333" y="447" on="0"/>
        <pt x="402" y="498" on="0"/>
        <pt x="450" y="498" on="1"/>
        <pt x="487" y="498" on="0"/>
        <pt x="542" y="462" on="0"/>
        <pt x="579" y="401" on="0"/>
        <pt x="597" y="321" on="0"/>
        <pt x="597" y="276" on="1"/>
        <pt x="597" y="262" on="0"/>
        <pt x="595" y="236" on="0"/>
        <pt x="593" y="223" on="1"/>
        <pt x="335" y="223" on="1"/>
        <pt x="338" y="147" on="0"/>
        <pt x="398" y="54" on="0"/>
        <pt x="457" y="54" on="1"/>
        <pt x="485" y="54" on="0"/>
        <pt x="532" y="72" on="0"/>
        <pt x="553" y="85" on="1"/>
        <pt x="582" y="31" on="1"/>
        <pt x="557" y="14" on="0"/>
        <pt x="492" y="-12" on="0"/>
        <pt x="454" y="-12" on="1"/>
        <pt x="401" y="-12" on="0"/>
        <pt x="329" y="36" on="0"/>
        <pt x="305" y="79" on="1"/>
        <pt x="264" y="34" on="0"/>
        <pt x="185" y="-12" on="0"/>
        <pt x="147" y="-12" on="1"/>
        <pt x="87" y="-12" on="0"/>
        <pt x="17" y="63" on="0"/>
      </contour>
      <contour>
        <pt x="528" y="278" on="1"/>
        <pt x="528" y="309" on="0"/>
        <pt x="520" y="365" on="0"/>
        <pt x="500" y="408" on="0"/>
        <pt x="467" y="433" on="0"/>
        <pt x="443" y="433" on="1"/>
        <pt x="396" y="433" on="0"/>
        <pt x="339" y="351" on="0"/>
        <pt x="334" y="278" on="1"/>
      </contour>
      <contour>
        <pt x="93" y="133" on="1"/>
        <pt x="93" y="94" on="0"/>
        <pt x="133" y="54" on="0"/>
        <pt x="167" y="54" on="1"/>
        <pt x="193" y="54" on="0"/>
        <pt x="255" y="90" on="0"/>
        <pt x="281" y="125" on="1"/>
        <pt x="273" y="147" on="0"/>
        <pt x="266" y="200" on="0"/>
        <pt x="265" y="229" on="1"/>
        <pt x="264" y="254" on="1"/>
        <pt x="172" y="238" on="0"/>
        <pt x="93" y="180" on="0"/>
      </contour>
    </TTGlyph>
    <TTGlyph name="agrave" xMin="81" yMin="-12" xMax="515" yMax="721">
      <component glyphName="a" x="0" y="0" flags="0x204"/>
      <component glyphName="uni0300" x="14" y="0" flags="0x4"/>
    </TTGlyph>
    <TTGlyph name="agrave.a" xMin="60" yMin="-12" xMax="507" yMax="721">
      <component glyphName="uni0251" x="0" y="0" flags="0x204"/>
      <component glyphName="uni0300" x="7" y="0" flags="0x4"/>
    </TTGlyph>
    <TTGlyph name="amacron" xMin="81" yMin="-12" xMax="515" yMax="658">
      <component glyphName="a" x="0" y="0" flags="0x204"/>
      <component glyphName="uni0304" x="14" y="0" flags="0x4"/>
    </TTGlyph>
    <TTGlyph name="amacron.a" xMin="60" yMin="-12" xMax="507" yMax="658">
      <component glyphName="uni0251" x="0" y="0" flags="0x204"/>
      <component glyphName="uni0304" x="7" y="0" flags="0x4"/>
    </TTGlyph>
    <TTGlyph name="ampersand" xMin="42" yMin="-12" xMax="577" yMax="668">
      <contour>
        <pt x="122" y="175" on="1"/>
        <pt x="122" y="148" on="0"/>
        <pt x="142" y="103" on="0"/>
        <pt x="176" y="71" on="0"/>
        <pt x="222" y="54" on="0"/>
        <pt x="248" y="54" on="1"/>
        <pt x="279" y="54" on="0"/>
        <pt x="337" y="82" on="0"/>
        <pt x="363" y="106" on="1"/>
        <pt x="315" y="148" on="0"/>
        <pt x="230" y="248" on="0"/>
        <pt x="196" y="302" on="1"/>
        <pt x="164" y="274" on="0"/>
        <pt x="122" y="213" on="0"/>
      </contour>
      <contour>
        <pt x="192" y="514" on="1"/>
        <pt x="192" y="487" on="0"/>
        <pt x="208" y="429" on="0"/>
        <pt x="222" y="399" on="1"/>
        <pt x="243" y="414" on="0"/>
        <pt x="280" y="445" on="0"/>
        <pt x="309" y="478" on="0"/>
        <pt x="325" y="515" on="0"/>
        <pt x="325" y="537" on="1"/>
        <pt x="325" y="566" on="0"/>
        <pt x="298" y="609" on="0"/>
        <pt x="265" y="609" on="1"/>
        <pt x="230" y="609" on="0"/>
        <pt x="192" y="555" on="0"/>
      </contour>
      <contour>
        <pt x="554" y="-12" on="1"/>
        <pt x="489" y="8" on="0"/>
        <pt x="417" y="63" on="1"/>
        <pt x="381" y="28" on="0"/>
        <pt x="294" y="-12" on="0"/>
        <pt x="238" y="-12" on="1"/>
        <pt x="194" y="-12" on="0"/>
        <pt x="122" y="15" on="0"/>
        <pt x="71" y="63" on="0"/>
        <pt x="42" y="130" on="0"/>
        <pt x="42" y="170" on="1"/>
        <pt x="42" y="202" on="0"/>
        <pt x="62" y="256" on="0"/>
        <pt x="97" y="301" on="0"/>
        <pt x="141" y="340" on="0"/>
        <pt x="165" y="358" on="1"/>
        <pt x="144" y="399" on="0"/>
        <pt x="121" y="478" on="0"/>
        <pt x="121" y="513" on="1"/>
        <pt x="121" y="546" on="0"/>
        <pt x="142" y="602" on="0"/>
        <pt x="179" y="644" on="0"/>
        <pt x="232" y="668" on="0"/>
        <pt x="265" y="668" on="1"/>
        <pt x="326" y="668" on="0"/>
        <pt x="392" y="596" on="0"/>
        <pt x="392" y="538" on="1"/>
        <pt x="392" y="506" on="0"/>
        <pt x="367" y="454" on="0"/>
        <pt x="327" y="407" on="0"/>
        <pt x="277" y="366" on="0"/>
        <pt x="251" y="346" on="1"/>
        <pt x="283" y="295" on="0"/>
        <pt x="366" y="201" on="0"/>
        <pt x="411" y="162" on="1"/>
        <pt x="439" y="202" on="0"/>
        <pt x="480" y="297" on="0"/>
        <pt x="494" y="354" on="1"/>
        <pt x="570" y="354" on="1"/>
        <pt x="552" y="289" on="0"/>
        <pt x="500" y="171" on="0"/>
        <pt x="464" y="119" on="1"/>
        <pt x="524" y="73" on="0"/>
        <pt x="577" y="56" on="1"/>
      </contour>
    </TTGlyph>
    <TTGlyph name="aogonek" xMin="81" yMin="-206" xMax="537" yMax="498">
      <contour>
        <pt x="81" y="126" on="1"/>
        <pt x="81" y="167" on="0"/>
        <pt x="120" y="228" on="0"/>
        <pt x="205" y="272" on="0"/>
        <pt x="339" y="300" on="0"/>
        <pt x="433" y="308" on="1"/>
        <pt x="432" y="333" on="0"/>
        <pt x="418" y="377" on="0"/>
        <pt x="388" y="410" on="0"/>
        <pt x="339" y="430" on="0"/>
        <pt x="304" y="430" on="1"/>
        <pt x="256" y="430" on="0"/>
        <pt x="168" y="393" on="0"/>
        <pt x="134" y="372" on="1"/>
        <pt x="102" y="428" on="1"/>
        <pt x="120" y="440" on="0"/>
        <pt x="169" y="465" on="0"/>
        <pt x="224" y="485" on="0"/>
        <pt x="286" y="498" on="0"/>
        <pt x="318" y="498" on="1"/>
        <pt x="418" y="498" on="0"/>
        <pt x="515" y="389" on="0"/>
        <pt x="515" y="298" on="1"/>
        <pt x="515" y="0" on="1"/>
        <pt x="473" y="-17" on="0"/>
        <pt x="429" y="-76" on="0"/>
        <pt x="429" y="-105" on="1"/>
        <pt x="429" y="-128" on="0"/>
        <pt x="457" y="-151" on="0"/>
        <pt x="475" y="-151" on="1"/>
        <pt x="497" y="-151" on="0"/>
        <pt x="515" y="-138" on="1"/>
        <pt x="537" y="-179" on="1"/>
        <pt x="523" y="-190" on="0"/>
        <pt x="477" y="-206" on="0"/>
        <pt x="458" y="-206" on="1"/>
        <pt x="420" y="-206" on="0"/>
        <pt x="368" y="-163" on="0"/>
        <pt x="368" y="-121" on="1"/>
        <pt x="368" y="-101" on="0"/>
        <pt x="382" y="-64" on="0"/>
        <pt x="405" y="-32" on="0"/>
        <pt x="433" y="-5" on="0"/>
        <pt x="448" y="4" on="1"/>
        <pt x="441" y="66" on="1"/>
        <pt x="438" y="66" on="1"/>
        <pt x="397" y="34" on="0"/>
        <pt x="298" y="-12" on="0"/>
        <pt x="246" y="-12" on="1"/>
        <pt x="212" y="-12" on="0"/>
        <pt x="152" y="7" on="0"/>
        <pt x="107" y="42" on="0"/>
        <pt x="81" y="93" on="0"/>
      </contour>
      <contour>
        <pt x="161" y="132" on="1"/>
        <pt x="161" y="111" on="0"/>
        <pt x="179" y="82" on="0"/>
        <pt x="208" y="63" on="0"/>
        <pt x="247" y="54" on="0"/>
        <pt x="268" y="54" on="1"/>
        <pt x="310" y="54" on="0"/>
        <pt x="391" y="91" on="0"/>
        <pt x="433" y="126" on="1"/>
        <pt x="433" y="254" on="1"/>
        <pt x="355" y="248" on="0"/>
        <pt x="250" y="226" on="0"/>
        <pt x="187" y="195" on="0"/>
        <pt x="161" y="156" on="0"/>
      </contour>
    </TTGlyph>
    <TTGlyph name="aogonek.a" xMin="60" yMin="-206" xMax="528" yMax="498">
      <contour>
        <pt x="145" y="243" on="1"/>
        <pt x="145" y="155" on="0"/>
        <pt x="220" y="57" on="0"/>
        <pt x="288" y="57" on="1"/>
        <pt x="360" y="57" on="0"/>
        <pt x="425" y="130" on="1"/>
        <pt x="425" y="372" on="1"/>
        <pt x="392" y="403" on="0"/>
        <pt x="329" y="429" on="0"/>
        <pt x="297" y="429" on="1"/>
        <pt x="265" y="429" on="0"/>
        <pt x="210" y="402" on="0"/>
        <pt x="169" y="353" on="0"/>
        <pt x="145" y="285" on="0"/>
      </contour>
      <contour>
        <pt x="60" y="242" on="1"/>
        <pt x="60" y="301" on="0"/>
        <pt x="96" y="396" on="0"/>
        <pt x="158" y="462" on="0"/>
        <pt x="238" y="498" on="0"/>
        <pt x="282" y="498" on="1"/>
        <pt x="325" y="498" on="0"/>
        <pt x="397" y="464" on="0"/>
        <pt x="431" y="432" on="1"/>
        <pt x="434" y="432" on="1"/>
        <pt x="441" y="486" on="1"/>
        <pt x="507" y="486" on="1"/>
        <pt x="507" y="0" on="1"/>
        <pt x="462" y="-22" on="0"/>
        <pt x="420" y="-76" on="0"/>
        <pt x="420" y="-105" on="1"/>
        <pt x="420" y="-128" on="0"/>
        <pt x="448" y="-151" on="0"/>
        <pt x="467" y="-151" on="1"/>
        <pt x="487" y="-151" on="0"/>
        <pt x="507" y="-138" on="1"/>
        <pt x="528" y="-179" on="1"/>
        <pt x="514" y="-190" on="0"/>
        <pt x="469" y="-206" on="0"/>
        <pt x="450" y="-206" on="1"/>
        <pt x="412" y="-206" on="0"/>
        <pt x="359" y="-163" on="0"/>
        <pt x="359" y="-121" on="1"/>
        <pt x="359" y="-80" on="0"/>
        <pt x="408" y="-19" on="0"/>
        <pt x="440" y="4" on="1"/>
        <pt x="432" y="64" on="1"/>
        <pt x="429" y="64" on="1"/>
        <pt x="400" y="33" on="0"/>
        <pt x="316" y="-12" on="0"/>
        <pt x="270" y="-12" on="1"/>
        <pt x="223" y="-12" on="0"/>
        <pt x="146" y="22" on="0"/>
        <pt x="90" y="87" on="0"/>
        <pt x="60" y="181" on="0"/>
      </contour>
    </TTGlyph>
    <TTGlyph name="approxequal" xMin="76" yMin="149" xMax="524" yMax="512">
      <component glyphName="asciitilde" x="0" y="107" flags="0x204"/>
      <component glyphName="asciitilde" x="0" y="-106" flags="0x4"/>
    </TTGlyph>
    <TTGlyph name="aring" xMin="81" yMin="-12" xMax="515" yMax="727">
      <component glyphName="a" x="0" y="0" flags="0x204"/>
      <component glyphName="uni030A" x="14" y="0" flags="0x4"/>
    </TTGlyph>
    <TTGlyph name="aring.a" xMin="60" yMin="-12" xMax="507" yMax="727">
      <component glyphName="uni0251" x="0" y="0" flags="0x204"/>
      <component glyphName="uni030A" x="7" y="0" flags="0x4"/>
    </TTGlyph>
    <TTGlyph name="arrowdown" xMin="33" yMin="-25" xMax="567" yMax="527">
      <contour>
        <pt x="298" y="-25" on="1"/>
        <pt x="33" y="248" on="1"/>
        <pt x="79" y="290" on="1"/>
        <pt x="266" y="89" on="1"/>
        <pt x="266" y="527" on="1"/>
        <pt x="334" y="527" on="1"/>
        <pt x="334" y="89" on="1"/>
        <pt x="521" y="290" on="1"/>
        <pt x="567" y="248" on="1"/>
        <pt x="302" y="-25" on="1"/>
      </contour>
    </TTGlyph>
    <TTGlyph name="arrowup" xMin="33" yMin="-25" xMax="567" yMax="527">
      <contour>
        <pt x="302" y="527" on="1"/>
        <pt x="567" y="255" on="1"/>
        <pt x="521" y="213" on="1"/>
        <pt x="334" y="414" on="1"/>
        <pt x="334" y="-25" on="1"/>
        <pt x="266" y="-25" on="1"/>
        <pt x="266" y="414" on="1"/>
        <pt x="79" y="213" on="1"/>
        <pt x="33" y="255" on="1"/>
        <pt x="298" y="527" on="1"/>
      </contour>
    </TTGlyph>
    <TTGlyph name="asciicircum" xMin="111" yMin="284" xMax="489" yMax="670">
      <contour>
        <pt x="264" y="670" on="1"/>
        <pt x="336" y="670" on="1"/>
        <pt x="489" y="284" on="1"/>
        <pt x="417" y="284" on="1"/>
        <pt x="351" y="460" on="1"/>
        <pt x="302" y="593" on="1"/>
        <pt x="298" y="593" on="1"/>
        <pt x="249" y="460" on="1"/>
        <pt x="183" y="284" on="1"/>
        <pt x="111" y="284" on="1"/>
      </contour>
    </TTGlyph>
    <TTGlyph name="asciitilde" xMin="76" yMin="255" xMax="524" yMax="405">
      <contour>
        <pt x="76" y="278" on="1"/>
        <pt x="102" y="348" on="0"/>
        <pt x="174" y="403" on="0"/>
        <pt x="212" y="403" on="1"/>
        <pt x="242" y="403" on="0"/>
        <pt x="289" y="377" on="0"/>
        <pt x="330" y="345" on="0"/>
        <pt x="369" y="319" on="0"/>
        <pt x="390" y="319" on="1"/>
        <pt x="402" y="319" on="0"/>
        <pt x="423" y="326" on="0"/>
        <pt x="444" y="345" on="0"/>
        <pt x="462" y="379" on="0"/>
        <pt x="471" y="405" on="1"/>
        <pt x="524" y="381" on="1"/>
        <pt x="498" y="311" on="0"/>
        <pt x="426" y="257" on="0"/>
        <pt x="388" y="257" on="1"/>
        <pt x="358" y="257" on="0"/>
        <pt x="311" y="283" on="0"/>
        <pt x="270" y="315" on="0"/>
        <pt x="231" y="341" on="0"/>
        <pt x="210" y="341" on="1"/>
        <pt x="187" y="341" on="0"/>
        <pt x="146" y="307" on="0"/>
        <pt x="129" y="255" on="1"/>
      </contour>
    </TTGlyph>
    <TTGlyph name="asterisk" xMin="84" yMin="111" xMax="516" yMax="556">
      <contour>
        <pt x="138" y="141" on="1"/>
        <pt x="246" y="306" on="1"/>
        <pt x="84" y="376" on="1"/>
        <pt x="100" y="422" on="1"/>
        <pt x="267" y="367" on="1"/>
        <pt x="276" y="556" on="1"/>
        <pt x="324" y="556" on="1"/>
        <pt x="333" y="367" on="1"/>
        <pt x="500" y="422" on="1"/>
        <pt x="516" y="376" on="1"/>
        <pt x="354" y="306" on="1"/>
        <pt x="462" y="141" on="1"/>
        <pt x="420" y="111" on="1"/>
        <pt x="300" y="270" on="1"/>
        <pt x="180" y="111" on="1"/>
      </contour>
    </TTGlyph>
    <TTGlyph name="asterisk.a" xMin="104" yMin="316" xMax="496" yMax="712">
      <contour>
        <pt x="155" y="345" on="1"/>
        <pt x="247" y="492" on="1"/>
        <pt x="104" y="549" on="1"/>
        <pt x="120" y="595" on="1"/>
        <pt x="267" y="551" on="1"/>
        <pt x="276" y="712" on="1"/>
        <pt x="324" y="712" on="1"/>
        <pt x="333" y="553" on="1"/>
        <pt x="480" y="595" on="1"/>
        <pt x="496" y="549" on="1"/>
        <pt x="353" y="492" on="1"/>
        <pt x="445" y="345" on="1"/>
        <pt x="403" y="316" on="1"/>
        <pt x="300" y="456" on="1"/>
        <pt x="197" y="316" on="1"/>
      </contour>
    </TTGlyph>
    <TTGlyph name="at" xMin="49" yMin="-144" xMax="546" yMax="635">
      <contour>
        <pt x="546" y="100" on="1"/>
        <pt x="496" y="100" on="1"/>
        <pt x="489" y="158" on="1"/>
        <pt x="485" y="158" on="1"/>
        <pt x="463" y="130" on="0"/>
        <pt x="392" y="88" on="0"/>
        <pt x="353" y="88" on="1"/>
        <pt x="326" y="88" on="0"/>
        <pt x="279" y="106" on="0"/>
        <pt x="244" y="140" on="0"/>
        <pt x="224" y="189" on="0"/>
        <pt x="224" y="219" on="1"/>
        <pt x="224" y="296" on="0"/>
        <pt x="360" y="374" on="0"/>
        <pt x="488" y="390" on="1"/>
        <pt x="488" y="404" on="1"/>
        <pt x="488" y="440" on="0"/>
        <pt x="471" y="504" on="0"/>
        <pt x="435" y="552" on="0"/>
        <pt x="378" y="580" on="0"/>
        <pt x="339" y="580" on="1"/>
        <pt x="294" y="580" on="0"/>
        <pt x="212" y="538" on="0"/>
        <pt x="149" y="455" on="0"/>
        <pt x="112" y="330" on="0"/>
        <pt x="112" y="247" on="1"/>
        <pt x="112" y="167" on="0"/>
        <pt x="148" y="42" on="0"/>
        <pt x="210" y="-44" on="0"/>
        <pt x="294" y="-89" on="0"/>
        <pt x="343" y="-89" on="1"/>
        <pt x="388" y="-89" on="0"/>
        <pt x="455" y="-66" on="0"/>
        <pt x="484" y="-44" on="1"/>
        <pt x="512" y="-89" on="1"/>
        <pt x="473" y="-116" on="0"/>
        <pt x="391" y="-144" on="0"/>
        <pt x="341" y="-144" on="1"/>
        <pt x="282" y="-144" on="0"/>
        <pt x="176" y="-93" on="0"/>
        <pt x="96" y="6" on="0"/>
        <pt x="49" y="154" on="0"/>
        <pt x="49" y="250" on="1"/>
        <pt x="49" y="346" on="0"/>
        <pt x="94" y="490" on="0"/>
        <pt x="174" y="586" on="0"/>
        <pt x="281" y="635" on="0"/>
        <pt x="343" y="635" on="1"/>
        <pt x="395" y="635" on="0"/>
        <pt x="471" y="599" on="0"/>
        <pt x="521" y="535" on="0"/>
        <pt x="546" y="448" on="0"/>
        <pt x="546" y="397" on="1"/>
      </contour>
      <contour>
        <pt x="290" y="221" on="1"/>
        <pt x="290" y="186" on="0"/>
        <pt x="333" y="146" on="0"/>
        <pt x="370" y="146" on="1"/>
        <pt x="426" y="146" on="0"/>
        <pt x="482" y="210" on="1"/>
        <pt x="482" y="336" on="1"/>
        <pt x="378" y="322" on="0"/>
        <pt x="290" y="267" on="0"/>
      </contour>
    </TTGlyph>
    <TTGlyph name="at.case" xMin="49" yMin="-18" xMax="546" yMax="668">
      <contour>
        <pt x="546" y="173" on="1"/>
        <pt x="496" y="173" on="1"/>
        <pt x="489" y="231" on="1"/>
        <pt x="485" y="231" on="1"/>
        <pt x="463" y="202" on="0"/>
        <pt x="392" y="161" on="0"/>
        <pt x="353" y="161" on="1"/>
        <pt x="326" y="161" on="0"/>
        <pt x="279" y="179" on="0"/>
        <pt x="244" y="213" on="0"/>
        <pt x="224" y="262" on="0"/>
        <pt x="224" y="292" on="1"/>
        <pt x="224" y="368" on="0"/>
        <pt x="360" y="447" on="0"/>
        <pt x="488" y="463" on="1"/>
        <pt x="488" y="473" on="1"/>
        <pt x="488" y="501" on="0"/>
        <pt x="471" y="552" on="0"/>
        <pt x="435" y="590" on="0"/>
        <pt x="380" y="613" on="0"/>
        <pt x="342" y="613" on="1"/>
        <pt x="297" y="613" on="0"/>
        <pt x="213" y="576" on="0"/>
        <pt x="150" y="503" on="0"/>
        <pt x="112" y="393" on="0"/>
        <pt x="112" y="320" on="1"/>
        <pt x="112" y="252" on="0"/>
        <pt x="148" y="147" on="0"/>
        <pt x="210" y="75" on="0"/>
        <pt x="294" y="37" on="0"/>
        <pt x="343" y="37" on="1"/>
        <pt x="388" y="37" on="0"/>
        <pt x="455" y="60" on="0"/>
        <pt x="484" y="82" on="1"/>
        <pt x="512" y="37" on="1"/>
        <pt x="473" y="11" on="0"/>
        <pt x="391" y="-18" on="0"/>
        <pt x="341" y="-18" on="1"/>
        <pt x="282" y="-18" on="0"/>
        <pt x="176" y="26" on="0"/>
        <pt x="96" y="112" on="0"/>
        <pt x="49" y="239" on="0"/>
        <pt x="49" y="323" on="1"/>
        <pt x="49" y="409" on="0"/>
        <pt x="95" y="538" on="0"/>
        <pt x="175" y="625" on="0"/>
        <pt x="284" y="668" on="0"/>
        <pt x="346" y="668" on="1"/>
        <pt x="397" y="668" on="0"/>
        <pt x="472" y="636" on="0"/>
        <pt x="522" y="580" on="0"/>
        <pt x="546" y="505" on="0"/>
        <pt x="546" y="463" on="1"/>
      </contour>
      <contour>
        <pt x="290" y="293" on="1"/>
        <pt x="290" y="258" on="0"/>
        <pt x="333" y="219" on="0"/>
        <pt x="370" y="219" on="1"/>
        <pt x="426" y="219" on="0"/>
        <pt x="482" y="283" on="1"/>
        <pt x="482" y="409" on="1"/>
        <pt x="378" y="394" on="0"/>
        <pt x="290" y="340" on="0"/>
      </contour>
    </TTGlyph>
    <TTGlyph name="atilde" xMin="81" yMin="-12" xMax="515" yMax="688">
      <component glyphName="a" x="0" y="0" flags="0x204"/>
      <component glyphName="uni0303" x="14" y="0" flags="0x4"/>
    </TTGlyph>
    <TTGlyph name="atilde.a" xMin="60" yMin="-12" xMax="507" yMax="688">
      <component glyphName="uni0251" x="0" y="0" flags="0x204"/>
      <component glyphName="uni0303" x="7" y="0" flags="0x4"/>
    </TTGlyph>
    <TTGlyph name="b" xMin="93" yMin="-12" xMax="540" yMax="712">
      <contour>
        <pt x="93" y="712" on="1"/>
        <pt x="175" y="712" on="1"/>
        <pt x="175" y="518" on="1"/>
        <pt x="173" y="424" on="1"/>
        <pt x="208" y="458" on="0"/>
        <pt x="295" y="498" on="0"/>
        <pt x="338" y="498" on="1"/>
        <pt x="387" y="498" on="0"/>
        <pt x="463" y="463" on="0"/>
        <pt x="514" y="398" on="0"/>
        <pt x="540" y="307" on="0"/>
        <pt x="540" y="251" on="1"/>
        <pt x="540" y="189" on="0"/>
        <pt x="504" y="91" on="0"/>
        <pt x="443" y="23" on="0"/>
        <pt x="363" y="-12" on="0"/>
        <pt x="320" y="-12" on="1"/>
        <pt x="285" y="-12" on="0"/>
        <pt x="204" y="23" on="0"/>
        <pt x="169" y="54" on="1"/>
        <pt x="166" y="54" on="1"/>
        <pt x="159" y="0" on="1"/>
        <pt x="93" y="0" on="1"/>
      </contour>
      <contour>
        <pt x="175" y="114" on="1"/>
        <pt x="210" y="83" on="0"/>
        <pt x="281" y="57" on="0"/>
        <pt x="307" y="57" on="1"/>
        <pt x="339" y="57" on="0"/>
        <pt x="393" y="84" on="0"/>
        <pt x="433" y="133" on="0"/>
        <pt x="455" y="205" on="0"/>
        <pt x="455" y="250" on="1"/>
        <pt x="455" y="290" on="0"/>
        <pt x="439" y="356" on="0"/>
        <pt x="406" y="403" on="0"/>
        <pt x="354" y="429" on="0"/>
        <pt x="318" y="429" on="1"/>
        <pt x="286" y="429" on="0"/>
        <pt x="213" y="394" on="0"/>
        <pt x="175" y="356" on="1"/>
      </contour>
    </TTGlyph>
    <TTGlyph name="b.sups" xMin="172" yMin="252" xMax="472" yMax="728">
      <contour>
        <pt x="172" y="728" on="1"/>
        <pt x="236" y="728" on="1"/>
        <pt x="236" y="603" on="1"/>
        <pt x="234" y="547" on="1"/>
        <pt x="257" y="566" on="0"/>
        <pt x="310" y="590" on="0"/>
        <pt x="338" y="590" on="1"/>
        <pt x="404" y="590" on="0"/>
        <pt x="472" y="501" on="0"/>
        <pt x="472" y="426" on="1"/>
        <pt x="472" y="385" on="0"/>
        <pt x="448" y="320" on="0"/>
        <pt x="408" y="275" on="0"/>
        <pt x="355" y="252" on="0"/>
        <pt x="327" y="252" on="1"/>
        <pt x="303" y="252" on="0"/>
        <pt x="253" y="273" on="0"/>
        <pt x="230" y="292" on="1"/>
        <pt x="229" y="292" on="1"/>
        <pt x="222" y="260" on="1"/>
        <pt x="172" y="260" on="1"/>
      </contour>
      <contour>
        <pt x="236" y="335" on="1"/>
        <pt x="257" y="318" on="0"/>
        <pt x="297" y="305" on="0"/>
        <pt x="314" y="305" on="1"/>
        <pt x="354" y="305" on="0"/>
        <pt x="406" y="368" on="0"/>
        <pt x="406" y="425" on="1"/>
        <pt x="406" y="476" on="0"/>
        <pt x="367" y="537" on="0"/>
        <pt x="321" y="537" on="1"/>
        <pt x="280" y="537" on="0"/>
        <pt x="236" y="497" on="1"/>
      </contour>
    </TTGlyph>
    <TTGlyph name="backslash" xMin="99" yMin="-160" xMax="501" yMax="710">
      <contour>
        <pt x="99" y="710" on="1"/>
        <pt x="173" y="710" on="1"/>
        <pt x="501" y="-160" on="1"/>
        <pt x="427" y="-160" on="1"/>
      </contour>
    </TTGlyph>
    <TTGlyph name="bar" xMin="263" yMin="-250" xMax="337" yMax="750">
      <contour>
        <pt x="263" y="750" on="1"/>
        <pt x="337" y="750" on="1"/>
        <pt x="337" y="-250" on="1"/>
        <pt x="263" y="-250" on="1"/>
      </contour>
    </TTGlyph>
    <TTGlyph name="braceleft" xMin="120" yMin="-152" xMax="502" yMax="708">
      <contour>
        <pt x="256" y="-19" on="1"/>
        <pt x="256" y="8" on="0"/>
        <pt x="259" y="57" on="0"/>
        <pt x="262" y="103" on="0"/>
        <pt x="265" y="149" on="0"/>
        <pt x="265" y="174" on="1"/>
        <pt x="265" y="189" on="0"/>
        <pt x="253" y="216" on="0"/>
        <pt x="221" y="238" on="0"/>
        <pt x="164" y="252" on="0"/>
        <pt x="120" y="252" on="1"/>
        <pt x="120" y="304" on="1"/>
        <pt x="164" y="304" on="0"/>
        <pt x="221" y="318" on="0"/>
        <pt x="253" y="340" on="0"/>
        <pt x="265" y="367" on="0"/>
        <pt x="265" y="382" on="1"/>
        <pt x="265" y="430" on="0"/>
        <pt x="256" y="523" on="0"/>
        <pt x="256" y="575" on="1"/>
        <pt x="256" y="614" on="0"/>
        <pt x="278" y="665" on="0"/>
        <pt x="324" y="695" on="0"/>
        <pt x="394" y="708" on="0"/>
        <pt x="441" y="708" on="1"/>
        <pt x="502" y="708" on="1"/>
        <pt x="502" y="660" on="1"/>
        <pt x="450" y="660" on="1"/>
        <pt x="412" y="660" on="0"/>
        <pt x="363" y="650" on="0"/>
        <pt x="336" y="629" on="0"/>
        <pt x="326" y="594" on="0"/>
        <pt x="326" y="570" on="1"/>
        <pt x="326" y="527" on="0"/>
        <pt x="332" y="436" on="0"/>
        <pt x="332" y="389" on="1"/>
        <pt x="332" y="340" on="0"/>
        <pt x="293" y="289" on="0"/>
        <pt x="241" y="280" on="1"/>
        <pt x="241" y="276" on="1"/>
        <pt x="293" y="267" on="0"/>
        <pt x="332" y="216" on="0"/>
        <pt x="332" y="167" on="1"/>
        <pt x="332" y="116" on="0"/>
        <pt x="326" y="32" on="0"/>
        <pt x="326" y="-14" on="1"/>
        <pt x="326" y="-38" on="0"/>
        <pt x="336" y="-73" on="0"/>
        <pt x="363" y="-94" on="0"/>
        <pt x="412" y="-104" on="0"/>
        <pt x="450" y="-104" on="1"/>
        <pt x="502" y="-104" on="1"/>
        <pt x="502" y="-152" on="1"/>
        <pt x="441" y="-152" on="1"/>
        <pt x="394" y="-152" on="0"/>
        <pt x="324" y="-139" on="0"/>
        <pt x="278" y="-109" on="0"/>
        <pt x="256" y="-58" on="0"/>
      </contour>
    </TTGlyph>
    <TTGlyph name="braceright" xMin="99" yMin="-152" xMax="480" yMax="708">
      <contour>
        <pt x="150" y="-104" on="1"/>
        <pt x="188" y="-104" on="0"/>
        <pt x="237" y="-94" on="0"/>
        <pt x="265" y="-73" on="0"/>
        <pt x="275" y="-38" on="0"/>
        <pt x="275" y="-14" on="1"/>
        <pt x="275" y="32" on="0"/>
        <pt x="269" y="116" on="0"/>
        <pt x="269" y="167" on="1"/>
        <pt x="269" y="216" on="0"/>
        <pt x="307" y="267" on="0"/>
        <pt x="359" y="276" on="1"/>
        <pt x="359" y="280" on="1"/>
        <pt x="307" y="289" on="0"/>
        <pt x="269" y="340" on="0"/>
        <pt x="269" y="389" on="1"/>
        <pt x="269" y="436" on="0"/>
        <pt x="275" y="527" on="0"/>
        <pt x="275" y="570" on="1"/>
        <pt x="275" y="594" on="0"/>
        <pt x="265" y="629" on="0"/>
        <pt x="237" y="650" on="0"/>
        <pt x="188" y="660" on="0"/>
        <pt x="150" y="660" on="1"/>
        <pt x="99" y="660" on="1"/>
        <pt x="99" y="708" on="1"/>
        <pt x="160" y="708" on="1"/>
        <pt x="207" y="708" on="0"/>
        <pt x="276" y="695" on="0"/>
        <pt x="322" y="665" on="0"/>
        <pt x="344" y="614" on="0"/>
        <pt x="344" y="575" on="1"/>
        <pt x="344" y="523" on="0"/>
        <pt x="335" y="430" on="0"/>
        <pt x="335" y="382" on="1"/>
        <pt x="335" y="367" on="0"/>
        <pt x="347" y="340" on="0"/>
        <pt x="379" y="318" on="0"/>
        <pt x="436" y="304" on="0"/>
        <pt x="480" y="304" on="1"/>
        <pt x="480" y="252" on="1"/>
        <pt x="436" y="252" on="0"/>
        <pt x="379" y="238" on="0"/>
        <pt x="347" y="216" on="0"/>
        <pt x="335" y="189" on="0"/>
        <pt x="335" y="174" on="1"/>
        <pt x="335" y="149" on="0"/>
        <pt x="338" y="103" on="0"/>
        <pt x="341" y="57" on="0"/>
        <pt x="344" y="8" on="0"/>
        <pt x="344" y="-19" on="1"/>
        <pt x="344" y="-58" on="0"/>
        <pt x="322" y="-109" on="0"/>
        <pt x="276" y="-139" on="0"/>
        <pt x="207" y="-152" on="0"/>
        <pt x="160" y="-152" on="1"/>
        <pt x="99" y="-152" on="1"/>
        <pt x="99" y="-104" on="1"/>
      </contour>
    </TTGlyph>
    <TTGlyph name="bracketleft" xMin="226" yMin="-152" xMax="502" yMax="708">
      <contour>
        <pt x="226" y="708" on="1"/>
        <pt x="502" y="708" on="1"/>
        <pt x="502" y="660" on="1"/>
        <pt x="291" y="660" on="1"/>
        <pt x="291" y="-104" on="1"/>
        <pt x="502" y="-104" on="1"/>
        <pt x="502" y="-152" on="1"/>
        <pt x="226" y="-152" on="1"/>
      </contour>
    </TTGlyph>
    <TTGlyph name="bracketright" xMin="99" yMin="-152" xMax="375" yMax="708">
      <contour>
        <pt x="309" y="-104" on="1"/>
        <pt x="309" y="660" on="1"/>
        <pt x="99" y="660" on="1"/>
        <pt x="99" y="708" on="1"/>
        <pt x="375" y="708" on="1"/>
        <pt x="375" y="-152" on="1"/>
        <pt x="99" y="-152" on="1"/>
        <pt x="99" y="-104" on="1"/>
      </contour>
    </TTGlyph>
    <TTGlyph name="breve" xMin="170" yMin="575" xMax="430" yMax="709">
      <component glyphName="uni0306" x="0" y="0" flags="0x204"/>
    </TTGlyph>
    <TTGlyph name="brokenbar" xMin="263" yMin="-250" xMax="337" yMax="750">
      <contour>
        <pt x="263" y="750" on="1"/>
        <pt x="337" y="750" on="1"/>
        <pt x="337" y="291" on="1"/>
        <pt x="263" y="291" on="1"/>
      </contour>
      <contour>
        <pt x="337" y="214" on="1"/>
        <pt x="337" y="-250" on="1"/>
        <pt x="263" y="-250" on="1"/>
        <pt x="263" y="214" on="1"/>
      </contour>
    </TTGlyph>
    <TTGlyph name="bullet" xMin="151" yMin="115" xMax="449" yMax="409">
      <contour>
        <pt x="300" y="115" on="1"/>
        <pt x="270" y="115" on="0"/>
        <pt x="216" y="136" on="0"/>
        <pt x="175" y="175" on="0"/>
        <pt x="151" y="229" on="0"/>
        <pt x="151" y="262" on="1"/>
        <pt x="151" y="295" on="0"/>
        <pt x="175" y="349" on="0"/>
        <pt x="216" y="388" on="0"/>
        <pt x="270" y="409" on="0"/>
        <pt x="300" y="409" on="1"/>
        <pt x="330" y="409" on="0"/>
        <pt x="384" y="388" on="0"/>
        <pt x="425" y="349" on="0"/>
        <pt x="449" y="295" on="0"/>
        <pt x="449" y="262" on="1"/>
        <pt x="449" y="229" on="0"/>
        <pt x="425" y="175" on="0"/>
        <pt x="384" y="136" on="0"/>
        <pt x="330" y="115" on="0"/>
      </contour>
    </TTGlyph>
    <TTGlyph name="c" xMin="80" yMin="-12" xMax="539" yMax="498">
      <contour>
        <pt x="80" y="242" on="1"/>
        <pt x="80" y="303" on="0"/>
        <pt x="123" y="398" on="0"/>
        <pt x="197" y="464" on="0"/>
        <pt x="296" y="498" on="0"/>
        <pt x="351" y="498" on="1"/>
        <pt x="411" y="498" on="0"/>
        <pt x="498" y="456" on="0"/>
        <pt x="528" y="427" on="1"/>
        <pt x="487" y="374" on="1"/>
        <pt x="457" y="400" on="0"/>
        <pt x="392" y="430" on="0"/>
        <pt x="354" y="430" on="1"/>
        <pt x="312" y="430" on="0"/>
        <pt x="242" y="403" on="0"/>
        <pt x="193" y="353" on="0"/>
        <pt x="165" y="284" on="0"/>
        <pt x="165" y="242" on="1"/>
        <pt x="165" y="200" on="0"/>
        <pt x="192" y="132" on="0"/>
        <pt x="241" y="83" on="0"/>
        <pt x="310" y="56" on="0"/>
        <pt x="352" y="56" on="1"/>
        <pt x="397" y="56" on="0"/>
        <pt x="472" y="91" on="0"/>
        <pt x="503" y="117" on="1"/>
        <pt x="539" y="64" on="1"/>
        <pt x="499" y="28" on="0"/>
        <pt x="400" y="-12" on="0"/>
        <pt x="346" y="-12" on="1"/>
        <pt x="289" y="-12" on="0"/>
        <pt x="192" y="22" on="0"/>
        <pt x="120" y="87" on="0"/>
        <pt x="80" y="182" on="0"/>
      </contour>
    </TTGlyph>
    <TTGlyph name="c.sups" xMin="181" yMin="252" xMax="461" yMax="590">
      <contour>
        <pt x="181" y="421" on="1"/>
        <pt x="181" y="461" on="0"/>
        <pt x="209" y="524" on="0"/>
        <pt x="256" y="567" on="0"/>
        <pt x="317" y="590" on="0"/>
        <pt x="351" y="590" on="1"/>
        <pt x="386" y="590" on="0"/>
        <pt x="436" y="568" on="0"/>
        <pt x="454" y="552" on="1"/>
        <pt x="422" y="511" on="1"/>
        <pt x="407" y="524" on="0"/>
        <pt x="374" y="538" on="0"/>
        <pt x="354" y="538" on="1"/>
        <pt x="306" y="538" on="0"/>
        <pt x="246" y="473" on="0"/>
        <pt x="246" y="421" on="1"/>
        <pt x="246" y="368" on="0"/>
        <pt x="304" y="304" on="0"/>
        <pt x="352" y="304" on="1"/>
        <pt x="377" y="304" on="0"/>
        <pt x="417" y="322" on="0"/>
        <pt x="434" y="335" on="1"/>
        <pt x="461" y="294" on="1"/>
        <pt x="437" y="274" on="0"/>
        <pt x="378" y="252" on="0"/>
        <pt x="346" y="252" on="1"/>
        <pt x="311" y="252" on="0"/>
        <pt x="250" y="275" on="0"/>
        <pt x="206" y="318" on="0"/>
        <pt x="181" y="381" on="0"/>
      </contour>
    </TTGlyph>
    <TTGlyph name="cacute" xMin="80" yMin="-12" xMax="539" yMax="721">
      <component glyphName="c" x="0" y="0" flags="0x204"/>
      <component glyphName="uni0301" x="43" y="0" flags="0x4"/>
    </TTGlyph>
    <TTGlyph name="caron" xMin="168" yMin="573" xMax="432" yMax="721">
      <component glyphName="uni030C" x="0" y="0" flags="0x204"/>
    </TTGlyph>
    <TTGlyph name="ccaron" xMin="80" yMin="-12" xMax="539" yMax="721">
      <component glyphName="c" x="0" y="0" flags="0x204"/>
      <component glyphName="uni030C" x="43" y="0" flags="0x4"/>
    </TTGlyph>
    <TTGlyph name="ccedilla" xMin="80" yMin="-213" xMax="539" yMax="498">
      <component glyphName="c" x="0" y="0" flags="0x204"/>
      <component glyphName="uni0327" x="42" y="0" flags="0x4"/>
    </TTGlyph>
    <TTGlyph name="ccircumflex" xMin="80" yMin="-12" xMax="539" yMax="721">
      <component glyphName="c" x="0" y="0" flags="0x204"/>
      <component glyphName="uni0302" x="43" y="0" flags="0x4"/>
    </TTGlyph>
    <TTGlyph name="cdotaccent" xMin="80" yMin="-12" xMax="539" yMax="713">
      <component glyphName="c" x="0" y="0" flags="0x204"/>
      <component glyphName="uni0307" x="43" y="0" flags="0x4"/>
    </TTGlyph>
    <TTGlyph name="cedilla" xMin="221" yMin="-213" xMax="374" yMax="3">
      <component glyphName="uni0327" x="6" y="0" flags="0x204"/>
    </TTGlyph>
    <TTGlyph name="cent" xMin="113" yMin="-33" xMax="506" yMax="653">
      <contour>
        <pt x="314" y="477" on="1"/>
        <pt x="258" y="464" on="0"/>
        <pt x="194" y="376" on="0"/>
        <pt x="194" y="310" on="1"/>
        <pt x="194" y="243" on="0"/>
        <pt x="257" y="155" on="0"/>
        <pt x="314" y="142" on="1"/>
      </contour>
      <contour>
        <pt x="506" y="133" on="1"/>
        <pt x="476" y="107" on="0"/>
        <pt x="404" y="73" on="0"/>
        <pt x="365" y="70" on="1"/>
        <pt x="365" y="-33" on="1"/>
        <pt x="314" y="-33" on="1"/>
        <pt x="314" y="71" on="1"/>
        <pt x="269" y="76" on="0"/>
        <pt x="195" y="112" on="0"/>
        <pt x="142" y="173" on="0"/>
        <pt x="113" y="257" on="0"/>
        <pt x="113" y="310" on="1"/>
        <pt x="113" y="362" on="0"/>
        <pt x="144" y="445" on="0"/>
        <pt x="198" y="505" on="0"/>
        <pt x="272" y="541" on="0"/>
        <pt x="314" y="547" on="1"/>
        <pt x="314" y="653" on="1"/>
        <pt x="365" y="653" on="1"/>
        <pt x="365" y="550" on="1"/>
        <pt x="409" y="548" on="0"/>
        <pt x="473" y="514" on="0"/>
        <pt x="496" y="492" on="1"/>
        <pt x="456" y="440" on="1"/>
        <pt x="436" y="458" on="0"/>
        <pt x="391" y="480" on="0"/>
        <pt x="365" y="482" on="1"/>
        <pt x="365" y="138" on="1"/>
        <pt x="397" y="140" on="0"/>
        <pt x="449" y="167" on="0"/>
        <pt x="470" y="185" on="1"/>
      </contour>
    </TTGlyph>
    <TTGlyph name="circumflex" xMin="168" yMin="573" xMax="432" yMax="721">
      <component glyphName="uni0302" x="0" y="0" flags="0x204"/>
    </TTGlyph>
    <TTGlyph name="colon" xMin="219" yMin="-12" xMax="381" yMax="515">
      <component glyphName="period" x="0" y="358" flags="0x204"/>
      <component glyphName="period" x="0" y="0" flags="0x4"/>
    </TTGlyph>
    <TTGlyph name="colonmonetary" xMin="96" yMin="-110" xMax="546" yMax="748">
      <contour>
        <pt x="287" y="71" on="1"/>
        <pt x="310" y="58" on="0"/>
        <pt x="343" y="55" on="1"/>
        <pt x="405" y="579" on="1"/>
        <pt x="395" y="581" on="0"/>
        <pt x="376" y="584" on="0"/>
        <pt x="365" y="584" on="1"/>
        <pt x="360" y="584" on="0"/>
        <pt x="352" y="584" on="0"/>
        <pt x="347" y="583" on="1"/>
      </contour>
      <contour>
        <pt x="308" y="575" on="1"/>
        <pt x="246" y="554" on="0"/>
        <pt x="181" y="421" on="0"/>
        <pt x="181" y="321" on="1"/>
        <pt x="181" y="245" on="0"/>
        <pt x="217" y="130" on="0"/>
        <pt x="252" y="97" on="1"/>
      </contour>
      <contour>
        <pt x="546" y="81" on="1"/>
        <pt x="511" y="41" on="0"/>
        <pt x="427" y="-7" on="0"/>
        <pt x="373" y="-11" on="1"/>
        <pt x="361" y="-110" on="1"/>
        <pt x="323" y="-110" on="1"/>
        <pt x="335" y="-11" on="1"/>
        <pt x="320" y="-10" on="0"/>
        <pt x="292" y="-5" on="0"/>
        <pt x="278" y="-1" on="1"/>
        <pt x="265" y="-110" on="1"/>
        <pt x="227" y="-110" on="1"/>
        <pt x="242" y="14" on="1"/>
        <pt x="174" y="49" on="0"/>
        <pt x="96" y="205" on="0"/>
        <pt x="96" y="318" on="1"/>
        <pt x="96" y="456" on="0"/>
        <pt x="214" y="627" on="0"/>
        <pt x="317" y="645" on="1"/>
        <pt x="329" y="748" on="1"/>
        <pt x="367" y="748" on="1"/>
        <pt x="355" y="650" on="1"/>
        <pt x="370" y="650" on="1"/>
        <pt x="390" y="650" on="0"/>
        <pt x="413" y="645" on="1"/>
        <pt x="425" y="748" on="1"/>
        <pt x="463" y="748" on="1"/>
        <pt x="449" y="634" on="1"/>
        <pt x="475" y="623" on="0"/>
        <pt x="520" y="591" on="0"/>
        <pt x="537" y="572" on="1"/>
        <pt x="488" y="525" on="1"/>
        <pt x="477" y="536" on="0"/>
        <pt x="454" y="555" on="0"/>
        <pt x="441" y="563" on="1"/>
        <pt x="381" y="55" on="1"/>
        <pt x="416" y="60" on="0"/>
        <pt x="471" y="95" on="0"/>
        <pt x="497" y="125" on="1"/>
      </contour>
    </TTGlyph>
    <TTGlyph name="comma" xMin="197" yMin="-213" xMax="396" yMax="155">
      <contour>
        <pt x="197" y="-161" on="1"/>
        <pt x="259" y="-133" on="0"/>
        <pt x="321" y="-54" on="0"/>
        <pt x="323" y="6" on="1"/>
        <pt x="318" y="5" on="0"/>
        <pt x="309" y="4" on="0"/>
        <pt x="304" y="4" on="1"/>
        <pt x="272" y="4" on="0"/>
        <pt x="226" y="41" on="0"/>
        <pt x="226" y="79" on="1"/>
        <pt x="226" y="116" on="0"/>
        <pt x="274" y="155" on="0"/>
        <pt x="306" y="155" on="1"/>
        <pt x="351" y="155" on="0"/>
        <pt x="396" y="86" on="0"/>
        <pt x="396" y="27" on="1"/>
        <pt x="396" y="-61" on="0"/>
        <pt x="303" y="-182" on="0"/>
        <pt x="220" y="-213" on="1"/>
      </contour>
    </TTGlyph>
    <TTGlyph name="comma.dnom" xMin="244" yMin="-116" xMax="356" yMax="87">
      <contour>
        <pt x="244" y="-79" on="1"/>
        <pt x="273" y="-68" on="0"/>
        <pt x="308" y="-29" on="0"/>
        <pt x="308" y="0" on="1"/>
        <pt x="306" y="-1" on="0"/>
        <pt x="301" y="-1" on="1"/>
        <pt x="284" y="-1" on="0"/>
        <pt x="255" y="20" on="0"/>
        <pt x="255" y="41" on="1"/>
        <pt x="255" y="62" on="0"/>
        <pt x="283" y="87" on="0"/>
        <pt x="302" y="87" on="1"/>
        <pt x="328" y="87" on="0"/>
        <pt x="356" y="50" on="0"/>
        <pt x="356" y="14" on="1"/>
        <pt x="356" y="-31" on="0"/>
        <pt x="305" y="-99" on="0"/>
        <pt x="260" y="-116" on="1"/>
      </contour>
    </TTGlyph>
    <TTGlyph name="comma.numr" xMin="244" yMin="150" xMax="356" yMax="353">
      <component glyphName="comma.dnom" x="0" y="266" flags="0x204"/>
    </TTGlyph>
    <TTGlyph name="comma.subs" xMin="244" yMin="-285" xMax="356" yMax="-82">
      <component glyphName="comma.dnom" x="0" y="-169" flags="0x204"/>
    </TTGlyph>
    <TTGlyph name="comma.sups" xMin="244" yMin="324" xMax="356" yMax="527">
      <component glyphName="comma.dnom" x="0" y="440" flags="0x204"/>
    </TTGlyph>
    <TTGlyph name="copyright" xMin="30" yMin="-11" xMax="570" yMax="653">
      <contour>
        <pt x="30" y="323" on="1"/>
        <pt x="30" y="399" on="0"/>
        <pt x="71" y="522" on="0"/>
        <pt x="144" y="607" on="0"/>
        <pt x="243" y="653" on="0"/>
        <pt x="300" y="653" on="1"/>
        <pt x="357" y="653" on="0"/>
        <pt x="456" y="607" on="0"/>
        <pt x="529" y="522" on="0"/>
        <pt x="570" y="399" on="0"/>
        <pt x="570" y="323" on="1"/>
        <pt x="570" y="246" on="0"/>
        <pt x="529" y="123" on="0"/>
        <pt x="456" y="36" on="0"/>
        <pt x="357" y="-11" on="0"/>
        <pt x="300" y="-11" on="1"/>
        <pt x="243" y="-11" on="0"/>
        <pt x="144" y="36" on="0"/>
        <pt x="71" y="123" on="0"/>
        <pt x="30" y="246" on="0"/>
      </contour>
      <contour>
        <pt x="76" y="323" on="1"/>
        <pt x="76" y="257" on="0"/>
        <pt x="108" y="150" on="0"/>
        <pt x="167" y="73" on="0"/>
        <pt x="250" y="31" on="0"/>
        <pt x="300" y="31" on="1"/>
        <pt x="350" y="31" on="0"/>
        <pt x="433" y="73" on="0"/>
        <pt x="492" y="150" on="0"/>
        <pt x="524" y="257" on="0"/>
        <pt x="524" y="323" on="1"/>
        <pt x="524" y="389" on="0"/>
        <pt x="492" y="495" on="0"/>
        <pt x="433" y="571" on="0"/>
        <pt x="350" y="612" on="0"/>
        <pt x="300" y="612" on="1"/>
        <pt x="250" y="612" on="0"/>
        <pt x="167" y="571" on="0"/>
        <pt x="108" y="495" on="0"/>
        <pt x="76" y="389" on="0"/>
      </contour>
      <contour>
        <pt x="146" y="323" on="1"/>
        <pt x="146" y="366" on="0"/>
        <pt x="173" y="436" on="0"/>
        <pt x="219" y="486" on="0"/>
        <pt x="278" y="512" on="0"/>
        <pt x="311" y="512" on="1"/>
        <pt x="346" y="512" on="0"/>
        <pt x="395" y="485" on="0"/>
        <pt x="415" y="465" on="1"/>
        <pt x="381" y="426" on="1"/>
        <pt x="365" y="440" on="0"/>
        <pt x="334" y="457" on="0"/>
        <pt x="314" y="457" on="1"/>
        <pt x="268" y="457" on="0"/>
        <pt x="212" y="382" on="0"/>
        <pt x="212" y="323" on="1"/>
        <pt x="212" y="257" on="0"/>
        <pt x="265" y="180" on="0"/>
        <pt x="310" y="180" on="1"/>
        <pt x="336" y="180" on="0"/>
        <pt x="374" y="200" on="0"/>
        <pt x="391" y="214" on="1"/>
        <pt x="421" y="172" on="1"/>
        <pt x="398" y="152" on="0"/>
        <pt x="346" y="125" on="0"/>
        <pt x="308" y="125" on="1"/>
        <pt x="274" y="125" on="0"/>
        <pt x="215" y="152" on="0"/>
        <pt x="171" y="203" on="0"/>
        <pt x="146" y="276" on="0"/>
      </contour>
    </TTGlyph>
    <TTGlyph name="currency" xMin="58" yMin="83" xMax="542" yMax="577">
      <contour>
        <pt x="58" y="128" on="1"/>
        <pt x="142" y="213" on="1"/>
        <pt x="125" y="236" on="0"/>
        <pt x="106" y="294" on="0"/>
        <pt x="106" y="329" on="1"/>
        <pt x="106" y="364" on="0"/>
        <pt x="124" y="423" on="0"/>
        <pt x="141" y="446" on="1"/>
        <pt x="58" y="532" on="1"/>
        <pt x="102" y="577" on="1"/>
        <pt x="189" y="487" on="1"/>
        <pt x="237" y="524" on="0"/>
        <pt x="300" y="524" on="1"/>
        <pt x="362" y="524" on="0"/>
        <pt x="411" y="487" on="1"/>
        <pt x="498" y="577" on="1"/>
        <pt x="542" y="532" on="1"/>
        <pt x="458" y="446" on="1"/>
        <pt x="475" y="423" on="0"/>
        <pt x="494" y="364" on="0"/>
        <pt x="494" y="329" on="1"/>
        <pt x="494" y="294" on="0"/>
        <pt x="475" y="236" on="0"/>
        <pt x="458" y="213" on="1"/>
        <pt x="542" y="128" on="1"/>
        <pt x="498" y="83" on="1"/>
        <pt x="410" y="172" on="1"/>
        <pt x="387" y="153" on="0"/>
        <pt x="330" y="134" on="0"/>
        <pt x="300" y="134" on="1"/>
        <pt x="238" y="134" on="0"/>
        <pt x="189" y="172" on="1"/>
        <pt x="102" y="83" on="1"/>
      </contour>
      <contour>
        <pt x="182" y="329" on="1"/>
        <pt x="182" y="299" on="0"/>
        <pt x="201" y="250" on="0"/>
        <pt x="233" y="214" on="0"/>
        <pt x="276" y="195" on="0"/>
        <pt x="300" y="195" on="1"/>
        <pt x="324" y="195" on="0"/>
        <pt x="367" y="214" on="0"/>
        <pt x="399" y="250" on="0"/>
        <pt x="418" y="299" on="0"/>
        <pt x="418" y="329" on="1"/>
        <pt x="418" y="359" on="0"/>
        <pt x="399" y="408" on="0"/>
        <pt x="367" y="444" on="0"/>
        <pt x="324" y="463" on="0"/>
        <pt x="300" y="463" on="1"/>
        <pt x="276" y="463" on="0"/>
        <pt x="233" y="444" on="0"/>
        <pt x="201" y="408" on="0"/>
        <pt x="182" y="359" on="0"/>
      </contour>
    </TTGlyph>
    <TTGlyph name="d" xMin="60" yMin="-12" xMax="507" yMax="712">
      <contour>
        <pt x="60" y="242" on="1"/>
        <pt x="60" y="301" on="0"/>
        <pt x="97" y="396" on="0"/>
        <pt x="158" y="462" on="0"/>
        <pt x="238" y="498" on="0"/>
        <pt x="281" y="498" on="1"/>
        <pt x="326" y="498" on="0"/>
        <pt x="394" y="464" on="0"/>
        <pt x="428" y="435" on="1"/>
        <pt x="425" y="525" on="1"/>
        <pt x="425" y="712" on="1"/>
        <pt x="507" y="712" on="1"/>
        <pt x="507" y="0" on="1"/>
        <pt x="439" y="0" on="1"/>
        <pt x="432" y="64" on="1"/>
        <pt x="429" y="64" on="1"/>
        <pt x="399" y="33" on="0"/>
        <pt x="316" y="-12" on="0"/>
        <pt x="271" y="-12" on="1"/>
        <pt x="223" y="-12" on="0"/>
        <pt x="146" y="22" on="0"/>
        <pt x="90" y="87" on="0"/>
        <pt x="60" y="181" on="0"/>
      </contour>
      <contour>
        <pt x="145" y="243" on="1"/>
        <pt x="145" y="155" on="0"/>
        <pt x="220" y="57" on="0"/>
        <pt x="288" y="57" on="1"/>
        <pt x="360" y="57" on="0"/>
        <pt x="425" y="130" on="1"/>
        <pt x="425" y="372" on="1"/>
        <pt x="392" y="403" on="0"/>
        <pt x="329" y="429" on="0"/>
        <pt x="297" y="429" on="1"/>
        <pt x="265" y="429" on="0"/>
        <pt x="210" y="402" on="0"/>
        <pt x="169" y="353" on="0"/>
        <pt x="145" y="285" on="0"/>
      </contour>
    </TTGlyph>
    <TTGlyph name="d.sups" xMin="137" yMin="252" xMax="438" yMax="728">
      <contour>
        <pt x="137" y="421" on="1"/>
        <pt x="137" y="460" on="0"/>
        <pt x="161" y="523" on="0"/>
        <pt x="201" y="567" on="0"/>
        <pt x="254" y="590" on="0"/>
        <pt x="283" y="590" on="1"/>
        <pt x="312" y="590" on="0"/>
        <pt x="355" y="570" on="0"/>
        <pt x="376" y="553" on="1"/>
        <pt x="374" y="607" on="1"/>
        <pt x="374" y="728" on="1"/>
        <pt x="438" y="728" on="1"/>
        <pt x="438" y="260" on="1"/>
        <pt x="385" y="260" on="1"/>
        <pt x="380" y="297" on="1"/>
        <pt x="378" y="297" on="1"/>
        <pt x="358" y="278" on="0"/>
        <pt x="305" y="252" on="0"/>
        <pt x="276" y="252" on="1"/>
        <pt x="213" y="252" on="0"/>
        <pt x="137" y="340" on="0"/>
      </contour>
      <contour>
        <pt x="203" y="421" on="1"/>
        <pt x="203" y="366" on="0"/>
        <pt x="249" y="305" on="0"/>
        <pt x="291" y="305" on="1"/>
        <pt x="334" y="305" on="0"/>
        <pt x="374" y="345" on="1"/>
        <pt x="374" y="506" on="1"/>
        <pt x="353" y="523" on="0"/>
        <pt x="315" y="537" on="0"/>
        <pt x="295" y="537" on="1"/>
        <pt x="256" y="537" on="0"/>
        <pt x="203" y="475" on="0"/>
      </contour>
    </TTGlyph>
    <TTGlyph name="dagger" xMin="127" yMin="-80" xMax="473" yMax="712">
      <contour>
        <pt x="270" y="491" on="1"/>
        <pt x="127" y="486" on="1"/>
        <pt x="127" y="557" on="1"/>
        <pt x="270" y="552" on="1"/>
        <pt x="265" y="712" on="1"/>
        <pt x="335" y="712" on="1"/>
        <pt x="330" y="552" on="1"/>
        <pt x="473" y="557" on="1"/>
        <pt x="473" y="486" on="1"/>
        <pt x="330" y="491" on="1"/>
        <pt x="335" y="-80" on="1"/>
        <pt x="265" y="-80" on="1"/>
      </contour>
    </TTGlyph>
    <TTGlyph name="daggerdbl" xMin="127" yMin="-80" xMax="473" yMax="712">
      <contour>
        <pt x="127" y="146" on="1"/>
        <pt x="270" y="139" on="1"/>
        <pt x="265" y="316" on="1"/>
        <pt x="270" y="493" on="1"/>
        <pt x="127" y="486" on="1"/>
        <pt x="127" y="557" on="1"/>
        <pt x="270" y="552" on="1"/>
        <pt x="265" y="712" on="1"/>
        <pt x="335" y="712" on="1"/>
        <pt x="330" y="552" on="1"/>
        <pt x="473" y="557" on="1"/>
        <pt x="473" y="486" on="1"/>
        <pt x="330" y="493" on="1"/>
        <pt x="335" y="316" on="1"/>
        <pt x="330" y="139" on="1"/>
        <pt x="473" y="146" on="1"/>
        <pt x="473" y="75" on="1"/>
        <pt x="330" y="80" on="1"/>
        <pt x="335" y="-80" on="1"/>
        <pt x="265" y="-80" on="1"/>
        <pt x="270" y="80" on="1"/>
        <pt x="127" y="75" on="1"/>
      </contour>
    </TTGlyph>
    <TTGlyph name="dcaron" xMin="51" yMin="-12" xMax="596" yMax="760">
      <component glyphName="d" x="-9" y="0" flags="0x204"/>
      <component glyphName="uni030C.a" x="275" y="0" flags="0x4"/>
    </TTGlyph>
    <TTGlyph name="dcroat" xMin="60" yMin="-12" xMax="579" yMax="712">
      <contour>
        <pt x="425" y="352" on="1"/>
        <pt x="392" y="383" on="0"/>
        <pt x="329" y="409" on="0"/>
        <pt x="298" y="409" on="1"/>
        <pt x="266" y="409" on="0"/>
        <pt x="210" y="383" on="0"/>
        <pt x="169" y="337" on="0"/>
        <pt x="145" y="272" on="0"/>
        <pt x="145" y="233" on="1"/>
        <pt x="145" y="150" on="0"/>
        <pt x="220" y="57" on="0"/>
        <pt x="288" y="57" on="1"/>
        <pt x="360" y="57" on="0"/>
        <pt x="425" y="130" on="1"/>
      </contour>
      <contour>
        <pt x="579" y="576" on="1"/>
        <pt x="507" y="571" on="1"/>
        <pt x="507" y="0" on="1"/>
        <pt x="439" y="0" on="1"/>
        <pt x="432" y="64" on="1"/>
        <pt x="429" y="64" on="1"/>
        <pt x="399" y="33" on="0"/>
        <pt x="316" y="-12" on="0"/>
        <pt x="271" y="-12" on="1"/>
        <pt x="223" y="-12" on="0"/>
        <pt x="146" y="20" on="0"/>
        <pt x="90" y="83" on="0"/>
        <pt x="60" y="173" on="0"/>
        <pt x="60" y="232" on="1"/>
        <pt x="60" y="289" on="0"/>
        <pt x="97" y="380" on="0"/>
        <pt x="158" y="444" on="0"/>
        <pt x="238" y="478" on="0"/>
        <pt x="281" y="478" on="1"/>
        <pt x="326" y="478" on="0"/>
        <pt x="394" y="444" on="0"/>
        <pt x="428" y="415" on="1"/>
        <pt x="425" y="505" on="1"/>
        <pt x="425" y="571" on="1"/>
        <pt x="251" y="571" on="1"/>
        <pt x="251" y="619" on="1"/>
        <pt x="425" y="619" on="1"/>
        <pt x="425" y="712" on="1"/>
        <pt x="507" y="712" on="1"/>
        <pt x="507" y="619" on="1"/>
        <pt x="579" y="619" on="1"/>
      </contour>
    </TTGlyph>
    <TTGlyph name="degree" xMin="175" yMin="429" xMax="426" yMax="685">
      <contour>
        <pt x="300" y="429" on="1"/>
        <pt x="275" y="429" on="0"/>
        <pt x="230" y="447" on="0"/>
        <pt x="195" y="480" on="0"/>
        <pt x="175" y="527" on="0"/>
        <pt x="175" y="556" on="1"/>
        <pt x="175" y="586" on="0"/>
        <pt x="195" y="633" on="0"/>
        <pt x="230" y="667" on="0"/>
        <pt x="275" y="685" on="0"/>
        <pt x="300" y="685" on="1"/>
        <pt x="325" y="685" on="0"/>
        <pt x="371" y="667" on="0"/>
        <pt x="405" y="633" on="0"/>
        <pt x="426" y="586" on="0"/>
        <pt x="426" y="556" on="1"/>
        <pt x="426" y="527" on="0"/>
        <pt x="405" y="480" on="0"/>
        <pt x="371" y="447" on="0"/>
        <pt x="325" y="429" on="0"/>
      </contour>
      <contour>
        <pt x="300" y="475" on="1"/>
        <pt x="334" y="475" on="0"/>
        <pt x="376" y="521" on="0"/>
        <pt x="376" y="556" on="1"/>
        <pt x="376" y="593" on="0"/>
        <pt x="334" y="639" on="0"/>
        <pt x="300" y="639" on="1"/>
        <pt x="267" y="639" on="0"/>
        <pt x="225" y="593" on="0"/>
        <pt x="225" y="556" on="1"/>
        <pt x="225" y="521" on="0"/>
        <pt x="267" y="475" on="0"/>
      </contour>
    </TTGlyph>
    <TTGlyph name="dieresis" xMin="150" yMin="588" xMax="450" yMax="698">
      <component glyphName="uni0308" x="0" y="0" flags="0x204"/>
    </TTGlyph>
    <TTGlyph name="divide" xMin="85" yMin="96" xMax="515" yMax="563">
      <contour>
        <pt x="300" y="456" on="1"/>
        <pt x="277" y="456" on="0"/>
        <pt x="246" y="486" on="0"/>
        <pt x="246" y="510" on="1"/>
        <pt x="246" y="533" on="0"/>
        <pt x="277" y="563" on="0"/>
        <pt x="300" y="563" on="1"/>
        <pt x="323" y="563" on="0"/>
        <pt x="354" y="533" on="0"/>
        <pt x="354" y="510" on="1"/>
        <pt x="354" y="486" on="0"/>
        <pt x="323" y="456" on="0"/>
      </contour>
      <contour>
        <pt x="246" y="150" on="1"/>
        <pt x="246" y="173" on="0"/>
        <pt x="277" y="203" on="0"/>
        <pt x="300" y="203" on="1"/>
        <pt x="323" y="203" on="0"/>
        <pt x="354" y="173" on="0"/>
        <pt x="354" y="150" on="1"/>
        <pt x="354" y="126" on="0"/>
        <pt x="323" y="96" on="0"/>
        <pt x="300" y="96" on="1"/>
        <pt x="277" y="96" on="0"/>
        <pt x="246" y="126" on="0"/>
      </contour>
      <contour>
        <pt x="85" y="361" on="1"/>
        <pt x="515" y="361" on="1"/>
        <pt x="515" y="299" on="1"/>
        <pt x="85" y="299" on="1"/>
      </contour>
    </TTGlyph>
    <TTGlyph name="dollar" xMin="85" yMin="-110" xMax="512" yMax="748">
      <contour>
        <pt x="451" y="493" on="1"/>
        <pt x="434" y="506" on="0"/>
        <pt x="403" y="527" on="0"/>
        <pt x="369" y="542" on="0"/>
        <pt x="329" y="550" on="0"/>
        <pt x="304" y="550" on="1"/>
        <pt x="253" y="550" on="0"/>
        <pt x="194" y="505" on="0"/>
        <pt x="194" y="467" on="1"/>
        <pt x="194" y="439" on="0"/>
        <pt x="241" y="403" on="0"/>
        <pt x="312" y="373" on="0"/>
        <pt x="394" y="343" on="0"/>
        <pt x="465" y="301" on="0"/>
        <pt x="512" y="241" on="0"/>
        <pt x="512" y="195" on="1"/>
        <pt x="512" y="163" on="0"/>
        <pt x="487" y="108" on="0"/>
        <pt x="440" y="67" on="0"/>
        <pt x="375" y="40" on="0"/>
        <pt x="336" y="36" on="1"/>
        <pt x="336" y="-110" on="1"/>
        <pt x="276" y="-110" on="1"/>
        <pt x="276" y="35" on="1"/>
        <pt x="220" y="40" on="0"/>
        <pt x="120" y="84" on="0"/>
        <pt x="85" y="113" on="1"/>
        <pt x="124" y="170" on="1"/>
        <pt x="162" y="143" on="0"/>
        <pt x="253" y="102" on="0"/>
        <pt x="310" y="102" on="1"/>
        <pt x="370" y="102" on="0"/>
        <pt x="431" y="151" on="0"/>
        <pt x="431" y="189" on="1"/>
        <pt x="431" y="220" on="0"/>
        <pt x="384" y="261" on="0"/>
        <pt x="314" y="293" on="0"/>
        <pt x="231" y="323" on="0"/>
        <pt x="161" y="364" on="0"/>
        <pt x="114" y="421" on="0"/>
        <pt x="114" y="465" on="1"/>
        <pt x="114" y="528" on="0"/>
        <pt x="203" y="608" on="0"/>
        <pt x="276" y="616" on="1"/>
        <pt x="276" y="748" on="1"/>
        <pt x="336" y="748" on="1"/>
        <pt x="336" y="617" on="1"/>
        <pt x="391" y="612" on="0"/>
        <pt x="465" y="570" on="0"/>
        <pt x="495" y="541" on="1"/>
      </contour>
    </TTGlyph>
    <TTGlyph name="dollar.a" xMin="85" yMin="-113" xMax="515" yMax="751">
      <contour>
        <pt x="293" y="103" on="1"/>
        <pt x="298" y="102" on="0"/>
        <pt x="309" y="102" on="0"/>
        <pt x="314" y="102" on="1"/>
        <pt x="373" y="102" on="0"/>
        <pt x="435" y="151" on="0"/>
        <pt x="435" y="189" on="1"/>
        <pt x="435" y="225" on="0"/>
        <pt x="372" y="269" on="0"/>
        <pt x="327" y="287" on="1"/>
      </contour>
      <contour>
        <pt x="319" y="549" on="1"/>
        <pt x="314" y="550" on="0"/>
        <pt x="305" y="550" on="0"/>
        <pt x="300" y="550" on="1"/>
        <pt x="249" y="550" on="0"/>
        <pt x="190" y="505" on="0"/>
        <pt x="190" y="467" on="1"/>
        <pt x="190" y="437" on="0"/>
        <pt x="246" y="399" on="0"/>
        <pt x="288" y="383" on="1"/>
      </contour>
      <contour>
        <pt x="341" y="363" on="1"/>
        <pt x="373" y="351" on="0"/>
        <pt x="435" y="322" on="0"/>
        <pt x="485" y="283" on="0"/>
        <pt x="515" y="231" on="0"/>
        <pt x="515" y="195" on="1"/>
        <pt x="515" y="159" on="0"/>
        <pt x="484" y="100" on="0"/>
        <pt x="429" y="57" on="0"/>
        <pt x="351" y="34" on="0"/>
        <pt x="304" y="34" on="1"/>
        <pt x="298" y="34" on="0"/>
        <pt x="286" y="34" on="0"/>
        <pt x="280" y="35" on="1"/>
        <pt x="253" y="-113" on="1"/>
        <pt x="197" y="-107" on="1"/>
        <pt x="225" y="44" on="1"/>
        <pt x="183" y="55" on="0"/>
        <pt x="111" y="91" on="0"/>
        <pt x="85" y="113" on="1"/>
        <pt x="124" y="170" on="1"/>
        <pt x="149" y="153" on="0"/>
        <pt x="206" y="122" on="0"/>
        <pt x="238" y="113" on="1"/>
        <pt x="274" y="308" on="1"/>
        <pt x="243" y="320" on="0"/>
        <pt x="184" y="348" on="0"/>
        <pt x="138" y="384" on="0"/>
        <pt x="110" y="432" on="0"/>
        <pt x="110" y="465" on="1"/>
        <pt x="110" y="500" on="0"/>
        <pt x="139" y="557" on="0"/>
        <pt x="191" y="597" on="0"/>
        <pt x="263" y="618" on="0"/>
        <pt x="306" y="618" on="1"/>
        <pt x="313" y="618" on="0"/>
        <pt x="325" y="618" on="0"/>
        <pt x="331" y="617" on="1"/>
        <pt x="356" y="751" on="1"/>
        <pt x="412" y="744" on="1"/>
        <pt x="387" y="607" on="1"/>
        <pt x="420" y="597" on="0"/>
        <pt x="472" y="563" on="0"/>
        <pt x="495" y="541" on="1"/>
        <pt x="451" y="493" on="1"/>
        <pt x="431" y="508" on="0"/>
        <pt x="394" y="531" on="0"/>
        <pt x="374" y="538" on="1"/>
      </contour>
    </TTGlyph>
    <TTGlyph name="dong" xMin="109" yMin="0" xMax="546" yMax="665">
      <contour>
        <pt x="121" y="49" on="1"/>
        <pt x="499" y="49" on="1"/>
        <pt x="499" y="0" on="1"/>
        <pt x="121" y="0" on="1"/>
      </contour>
      <contour>
        <pt x="397" y="377" on="1"/>
        <pt x="370" y="399" on="0"/>
        <pt x="325" y="418" on="0"/>
        <pt x="295" y="418" on="1"/>
        <pt x="272" y="418" on="0"/>
        <pt x="231" y="400" on="0"/>
        <pt x="200" y="368" on="0"/>
        <pt x="182" y="325" on="0"/>
        <pt x="182" y="300" on="1"/>
        <pt x="182" y="238" on="0"/>
        <pt x="239" y="169" on="0"/>
        <pt x="291" y="169" on="1"/>
        <pt x="319" y="169" on="0"/>
        <pt x="371" y="194" on="0"/>
        <pt x="397" y="222" on="1"/>
      </contour>
      <contour>
        <pt x="546" y="598" on="1"/>
        <pt x="546" y="554" on="1"/>
        <pt x="468" y="549" on="1"/>
        <pt x="468" y="120" on="1"/>
        <pt x="410" y="120" on="1"/>
        <pt x="404" y="163" on="1"/>
        <pt x="400" y="163" on="1"/>
        <pt x="377" y="140" on="0"/>
        <pt x="315" y="110" on="0"/>
        <pt x="276" y="110" on="1"/>
        <pt x="200" y="110" on="0"/>
        <pt x="109" y="207" on="0"/>
        <pt x="109" y="299" on="1"/>
        <pt x="109" y="340" on="0"/>
        <pt x="138" y="406" on="0"/>
        <pt x="187" y="453" on="0"/>
        <pt x="250" y="478" on="0"/>
        <pt x="283" y="478" on="1"/>
        <pt x="322" y="478" on="0"/>
        <pt x="375" y="454" on="0"/>
        <pt x="401" y="432" on="1"/>
        <pt x="397" y="515" on="1"/>
        <pt x="397" y="549" on="1"/>
        <pt x="242" y="549" on="1"/>
        <pt x="242" y="598" on="1"/>
        <pt x="397" y="598" on="1"/>
        <pt x="397" y="665" on="1"/>
        <pt x="468" y="665" on="1"/>
        <pt x="468" y="598" on="1"/>
      </contour>
    </TTGlyph>
    <TTGlyph name="dotaccent" xMin="234" yMin="586" xMax="366" yMax="713">
      <component glyphName="uni0307" x="0" y="0" flags="0x204"/>
    </TTGlyph>
    <TTGlyph name="dotlessi" xMin="90" yMin="0" xMax="398" yMax="486">
      <contour>
        <pt x="90" y="486" on="1"/>
        <pt x="398" y="486" on="1"/>
        <pt x="398" y="0" on="1"/>
        <pt x="316" y="0" on="1"/>
        <pt x="316" y="419" on="1"/>
        <pt x="90" y="419" on="1"/>
      </contour>
    </TTGlyph>
    <TTGlyph name="e" xMin="69" yMin="-12" xMax="537" yMax="498">
      <contour>
        <pt x="69" y="242" on="1"/>
        <pt x="69" y="302" on="0"/>
        <pt x="111" y="397" on="0"/>
        <pt x="180" y="463" on="0"/>
        <pt x="269" y="498" on="0"/>
        <pt x="316" y="498" on="1"/>
        <pt x="368" y="498" on="0"/>
        <pt x="450" y="465" on="0"/>
        <pt x="507" y="405" on="0"/>
        <pt x="537" y="321" on="0"/>
        <pt x="537" y="270" on="1"/>
        <pt x="537" y="257" on="0"/>
        <pt x="536" y="232" on="0"/>
        <pt x="534" y="223" on="1"/>
        <pt x="154" y="223" on="1"/>
        <pt x="155" y="184" on="0"/>
        <pt x="184" y="122" on="0"/>
        <pt x="233" y="78" on="0"/>
        <pt x="300" y="54" on="0"/>
        <pt x="340" y="54" on="1"/>
        <pt x="383" y="54" on="0"/>
        <pt x="454" y="78" on="0"/>
        <pt x="488" y="99" on="1"/>
        <pt x="517" y="45" on="1"/>
        <pt x="481" y="22" on="0"/>
        <pt x="389" y="-12" on="0"/>
        <pt x="330" y="-12" on="1"/>
        <pt x="276" y="-12" on="0"/>
        <pt x="181" y="23" on="0"/>
        <pt x="110" y="88" on="0"/>
        <pt x="69" y="182" on="0"/>
      </contour>
      <contour>
        <pt x="461" y="282" on="1"/>
        <pt x="461" y="355" on="0"/>
        <pt x="385" y="433" on="0"/>
        <pt x="317" y="433" on="1"/>
        <pt x="287" y="433" on="0"/>
        <pt x="232" y="413" on="0"/>
        <pt x="188" y="374" on="0"/>
        <pt x="158" y="318" on="0"/>
        <pt x="153" y="282" on="1"/>
      </contour>
    </TTGlyph>
    <TTGlyph name="e.sups" xMin="160" yMin="252" xMax="457" yMax="590">
      <contour>
        <pt x="160" y="421" on="1"/>
        <pt x="160" y="460" on="0"/>
        <pt x="187" y="523" on="0"/>
        <pt x="230" y="567" on="0"/>
        <pt x="287" y="590" on="0"/>
        <pt x="317" y="590" on="1"/>
        <pt x="385" y="590" on="0"/>
        <pt x="457" y="507" on="0"/>
        <pt x="457" y="438" on="1"/>
        <pt x="457" y="418" on="0"/>
        <pt x="454" y="406" on="1"/>
        <pt x="223" y="406" on="1"/>
        <pt x="227" y="357" on="0"/>
        <pt x="288" y="302" on="0"/>
        <pt x="335" y="302" on="1"/>
        <pt x="359" y="302" on="0"/>
        <pt x="401" y="315" on="0"/>
        <pt x="421" y="327" on="1"/>
        <pt x="444" y="286" on="1"/>
        <pt x="420" y="272" on="0"/>
        <pt x="361" y="252" on="0"/>
        <pt x="326" y="252" on="1"/>
        <pt x="291" y="252" on="0"/>
        <pt x="231" y="275" on="0"/>
        <pt x="186" y="318" on="0"/>
        <pt x="160" y="381" on="0"/>
      </contour>
      <contour>
        <pt x="401" y="447" on="1"/>
        <pt x="401" y="492" on="0"/>
        <pt x="358" y="540" on="0"/>
        <pt x="318" y="540" on="1"/>
        <pt x="283" y="540" on="0"/>
        <pt x="228" y="492" on="0"/>
        <pt x="222" y="447" on="1"/>
      </contour>
    </TTGlyph>
    <TTGlyph name="eacute" xMin="69" yMin="-12" xMax="537" yMax="721">
      <component glyphName="e" x="0" y="0" flags="0x204"/>
      <component glyphName="uni0301" x="15" y="0" flags="0x4"/>
    </TTGlyph>
    <TTGlyph name="eacute.sups" xMin="160" yMin="252" xMax="457" yMax="739">
      <contour>
        <pt x="160" y="421" on="1"/>
        <pt x="160" y="460" on="0"/>
        <pt x="187" y="523" on="0"/>
        <pt x="230" y="567" on="0"/>
        <pt x="287" y="590" on="0"/>
        <pt x="317" y="590" on="1"/>
        <pt x="385" y="590" on="0"/>
        <pt x="457" y="507" on="0"/>
        <pt x="457" y="438" on="1"/>
        <pt x="457" y="418" on="0"/>
        <pt x="454" y="406" on="1"/>
        <pt x="223" y="406" on="1"/>
        <pt x="227" y="357" on="0"/>
        <pt x="288" y="302" on="0"/>
        <pt x="335" y="302" on="1"/>
        <pt x="359" y="302" on="0"/>
        <pt x="401" y="315" on="0"/>
        <pt x="421" y="327" on="1"/>
        <pt x="444" y="286" on="1"/>
        <pt x="420" y="272" on="0"/>
        <pt x="361" y="252" on="0"/>
        <pt x="326" y="252" on="1"/>
        <pt x="291" y="252" on="0"/>
        <pt x="231" y="275" on="0"/>
        <pt x="186" y="318" on="0"/>
        <pt x="160" y="381" on="0"/>
      </contour>
      <contour>
        <pt x="401" y="447" on="1"/>
        <pt x="401" y="492" on="0"/>
        <pt x="358" y="540" on="0"/>
        <pt x="318" y="540" on="1"/>
        <pt x="283" y="540" on="0"/>
        <pt x="228" y="492" on="0"/>
        <pt x="222" y="447" on="1"/>
      </contour>
      <contour>
        <pt x="318" y="638" on="1"/>
        <pt x="270" y="638" on="1"/>
        <pt x="331" y="739" on="1"/>
        <pt x="399" y="739" on="1"/>
      </contour>
    </TTGlyph>
    <TTGlyph name="ebreve" xMin="69" yMin="-12" xMax="537" yMax="709">
      <component glyphName="e" x="0" y="0" flags="0x204"/>
      <component glyphName="uni0306" x="15" y="0" flags="0x4"/>
    </TTGlyph>
    <TTGlyph name="ecaron" xMin="69" yMin="-12" xMax="537" yMax="721">
      <component glyphName="e" x="0" y="0" flags="0x204"/>
      <component glyphName="uni030C" x="15" y="0" flags="0x4"/>
    </TTGlyph>
    <TTGlyph name="ecircumflex" xMin="69" yMin="-12" xMax="537" yMax="721">
      <component glyphName="e" x="0" y="0" flags="0x204"/>
      <component glyphName="uni0302" x="15" y="0" flags="0x4"/>
    </TTGlyph>
    <TTGlyph name="edieresis" xMin="69" yMin="-12" xMax="537" yMax="698">
      <component glyphName="e" x="0" y="0" flags="0x204"/>
      <component glyphName="uni0308" x="15" y="0" flags="0x4"/>
    </TTGlyph>
    <TTGlyph name="edotaccent" xMin="69" yMin="-12" xMax="537" yMax="713">
      <component glyphName="e" x="0" y="0" flags="0x204"/>
      <component glyphName="uni0307" x="15" y="0" flags="0x4"/>
    </TTGlyph>
    <TTGlyph name="egrave" xMin="69" yMin="-12" xMax="537" yMax="721">
      <component glyphName="e" x="0" y="0" flags="0x204"/>
      <component glyphName="uni0300" x="15" y="0" flags="0x4"/>
    </TTGlyph>
    <TTGlyph name="egrave.sups" xMin="160" yMin="252" xMax="457" yMax="739">
      <contour>
        <pt x="160" y="421" on="1"/>
        <pt x="160" y="460" on="0"/>
        <pt x="187" y="523" on="0"/>
        <pt x="230" y="567" on="0"/>
        <pt x="287" y="590" on="0"/>
        <pt x="317" y="590" on="1"/>
        <pt x="385" y="590" on="0"/>
        <pt x="457" y="507" on="0"/>
        <pt x="457" y="438" on="1"/>
        <pt x="457" y="418" on="0"/>
        <pt x="454" y="406" on="1"/>
        <pt x="223" y="406" on="1"/>
        <pt x="227" y="357" on="0"/>
        <pt x="288" y="302" on="0"/>
        <pt x="335" y="302" on="1"/>
        <pt x="359" y="302" on="0"/>
        <pt x="401" y="315" on="0"/>
        <pt x="421" y="327" on="1"/>
        <pt x="444" y="286" on="1"/>
        <pt x="420" y="272" on="0"/>
        <pt x="361" y="252" on="0"/>
        <pt x="326" y="252" on="1"/>
        <pt x="291" y="252" on="0"/>
        <pt x="231" y="275" on="0"/>
        <pt x="186" y="318" on="0"/>
        <pt x="160" y="381" on="0"/>
      </contour>
      <contour>
        <pt x="401" y="447" on="1"/>
        <pt x="401" y="492" on="0"/>
        <pt x="358" y="540" on="0"/>
        <pt x="318" y="540" on="1"/>
        <pt x="283" y="540" on="0"/>
        <pt x="228" y="492" on="0"/>
        <pt x="222" y="447" on="1"/>
      </contour>
      <contour>
        <pt x="233" y="739" on="1"/>
        <pt x="302" y="739" on="1"/>
        <pt x="362" y="638" on="1"/>
        <pt x="313" y="638" on="1"/>
      </contour>
    </TTGlyph>
    <TTGlyph name="eight" xMin="68" yMin="-12" xMax="531" yMax="650">
      <contour>
        <pt x="143" y="171" on="1"/>
        <pt x="143" y="117" on="0"/>
        <pt x="230" y="49" on="0"/>
        <pt x="304" y="49" on="1"/>
        <pt x="376" y="49" on="0"/>
        <pt x="452" y="111" on="0"/>
        <pt x="452" y="161" on="1"/>
        <pt x="452" y="194" on="0"/>
        <pt x="421" y="239" on="0"/>
        <pt x="367" y="271" on="0"/>
        <pt x="294" y="296" on="0"/>
        <pt x="252" y="310" on="1"/>
        <pt x="205" y="284" on="0"/>
        <pt x="143" y="219" on="0"/>
      </contour>
      <contour>
        <pt x="352" y="348" on="1"/>
        <pt x="432" y="406" on="0"/>
        <pt x="432" y="476" on="1"/>
        <pt x="432" y="524" on="0"/>
        <pt x="366" y="589" on="0"/>
        <pt x="303" y="589" on="1"/>
        <pt x="249" y="589" on="0"/>
        <pt x="183" y="533" on="0"/>
        <pt x="183" y="486" on="1"/>
        <pt x="183" y="457" on="0"/>
        <pt x="209" y="416" on="0"/>
        <pt x="255" y="384" on="0"/>
        <pt x="316" y="359" on="0"/>
      </contour>
      <contour>
        <pt x="68" y="163" on="1"/>
        <pt x="68" y="196" on="0"/>
        <pt x="92" y="248" on="0"/>
        <pt x="130" y="290" on="0"/>
        <pt x="179" y="321" on="0"/>
        <pt x="205" y="333" on="1"/>
        <pt x="205" y="337" on="1"/>
        <pt x="165" y="362" on="0"/>
        <pt x="108" y="435" on="0"/>
        <pt x="108" y="486" on="1"/>
        <pt x="108" y="523" on="0"/>
        <pt x="137" y="583" on="0"/>
        <pt x="190" y="626" on="0"/>
        <pt x="262" y="650" on="0"/>
        <pt x="305" y="650" on="1"/>
        <pt x="352" y="650" on="0"/>
        <pt x="425" y="625" on="0"/>
        <pt x="476" y="580" on="0"/>
        <pt x="503" y="517" on="0"/>
        <pt x="503" y="480" on="1"/>
        <pt x="503" y="435" on="0"/>
        <pt x="446" y="356" on="0"/>
        <pt x="406" y="328" on="1"/>
        <pt x="406" y="324" on="1"/>
        <pt x="432" y="311" on="0"/>
        <pt x="478" y="281" on="0"/>
        <pt x="512" y="243" on="0"/>
        <pt x="531" y="192" on="0"/>
        <pt x="531" y="158" on="1"/>
        <pt x="531" y="122" on="0"/>
        <pt x="500" y="60" on="0"/>
        <pt x="442" y="14" on="0"/>
        <pt x="357" y="-12" on="0"/>
        <pt x="302" y="-12" on="1"/>
        <pt x="248" y="-12" on="0"/>
        <pt x="161" y="14" on="0"/>
        <pt x="101" y="61" on="0"/>
        <pt x="68" y="125" on="0"/>
      </contour>
    </TTGlyph>
    <TTGlyph name="eight.dnom" xMin="175" yMin="-12" xMax="425" yMax="317">
      <contour>
        <pt x="233" y="80" on="1"/>
        <pt x="233" y="60" on="0"/>
        <pt x="272" y="33" on="0"/>
        <pt x="300" y="33" on="1"/>
        <pt x="326" y="33" on="0"/>
        <pt x="367" y="58" on="0"/>
        <pt x="367" y="78" on="1"/>
        <pt x="367" y="92" on="0"/>
        <pt x="352" y="111" on="0"/>
        <pt x="328" y="124" on="0"/>
        <pt x="297" y="134" on="0"/>
        <pt x="280" y="139" on="1"/>
        <pt x="233" y="117" on="0"/>
      </contour>
      <contour>
        <pt x="320" y="177" on="1"/>
        <pt x="340" y="189" on="0"/>
        <pt x="356" y="215" on="0"/>
        <pt x="356" y="230" on="1"/>
        <pt x="356" y="248" on="0"/>
        <pt x="327" y="272" on="0"/>
        <pt x="300" y="272" on="1"/>
        <pt x="275" y="272" on="0"/>
        <pt x="245" y="249" on="0"/>
        <pt x="245" y="232" on="1"/>
        <pt x="245" y="210" on="0"/>
        <pt x="289" y="186" on="0"/>
      </contour>
      <contour>
        <pt x="175" y="76" on="1"/>
        <pt x="175" y="108" on="0"/>
        <pt x="214" y="145" on="0"/>
        <pt x="240" y="157" on="1"/>
        <pt x="240" y="161" on="1"/>
        <pt x="217" y="175" on="0"/>
        <pt x="186" y="206" on="0"/>
        <pt x="186" y="233" on="1"/>
        <pt x="186" y="251" on="0"/>
        <pt x="204" y="282" on="0"/>
        <pt x="235" y="305" on="0"/>
        <pt x="277" y="317" on="0"/>
        <pt x="300" y="317" on="1"/>
        <pt x="350" y="317" on="0"/>
        <pt x="415" y="270" on="0"/>
        <pt x="415" y="233" on="1"/>
        <pt x="415" y="205" on="0"/>
        <pt x="382" y="172" on="0"/>
        <pt x="362" y="161" on="1"/>
        <pt x="362" y="157" on="1"/>
        <pt x="388" y="146" on="0"/>
        <pt x="425" y="109" on="0"/>
        <pt x="425" y="76" on="1"/>
        <pt x="425" y="58" on="0"/>
        <pt x="406" y="26" on="0"/>
        <pt x="372" y="2" on="0"/>
        <pt x="327" y="-12" on="0"/>
        <pt x="300" y="-12" on="1"/>
        <pt x="272" y="-12" on="0"/>
        <pt x="226" y="2" on="0"/>
        <pt x="193" y="26" on="0"/>
        <pt x="175" y="58" on="0"/>
      </contour>
    </TTGlyph>
    <TTGlyph name="eight.numr" xMin="175" yMin="320" xMax="425" yMax="649">
      <component glyphName="eight.dnom" x="0" y="332" flags="0x204"/>
    </TTGlyph>
    <TTGlyph name="eight.onum" xMin="68" yMin="-12" xMax="531" yMax="650">
      <component glyphName="eight" x="0" y="0" flags="0x204"/>
    </TTGlyph>
    <TTGlyph name="eight.subs" xMin="175" yMin="-181" xMax="425" yMax="148">
      <component glyphName="eight.dnom" x="0" y="-169" flags="0x204"/>
    </TTGlyph>
    <TTGlyph name="eight.sups" xMin="175" yMin="428" xMax="425" yMax="757">
      <component glyphName="eight.dnom" x="0" y="440" flags="0x204"/>
    </TTGlyph>
    <TTGlyph name="ellipsis" xMin="32" yMin="-12" xMax="568" yMax="138">
      <contour>
        <pt x="32" y="63" on="1"/>
        <pt x="32" y="97" on="0"/>
        <pt x="73" y="138" on="0"/>
        <pt x="102" y="138" on="1"/>
        <pt x="131" y="138" on="0"/>
        <pt x="171" y="97" on="0"/>
        <pt x="171" y="63" on="1"/>
        <pt x="171" y="30" on="0"/>
        <pt x="131" y="-12" on="0"/>
        <pt x="102" y="-12" on="1"/>
        <pt x="73" y="-12" on="0"/>
        <pt x="32" y="30" on="0"/>
      </contour>
      <contour>
        <pt x="230" y="63" on="1"/>
        <pt x="230" y="97" on="0"/>
        <pt x="271" y="138" on="0"/>
        <pt x="300" y="138" on="1"/>
        <pt x="329" y="138" on="0"/>
        <pt x="370" y="97" on="0"/>
        <pt x="370" y="63" on="1"/>
        <pt x="370" y="30" on="0"/>
        <pt x="329" y="-12" on="0"/>
        <pt x="300" y="-12" on="1"/>
        <pt x="271" y="-12" on="0"/>
        <pt x="230" y="30" on="0"/>
      </contour>
      <contour>
        <pt x="429" y="63" on="1"/>
        <pt x="429" y="97" on="0"/>
        <pt x="469" y="138" on="0"/>
        <pt x="498" y="138" on="1"/>
        <pt x="527" y="138" on="0"/>
        <pt x="568" y="97" on="0"/>
        <pt x="568" y="63" on="1"/>
        <pt x="568" y="30" on="0"/>
        <pt x="527" y="-12" on="0"/>
        <pt x="498" y="-12" on="1"/>
        <pt x="469" y="-12" on="0"/>
        <pt x="429" y="30" on="0"/>
      </contour>
    </TTGlyph>
    <TTGlyph name="emacron" xMin="69" yMin="-12" xMax="537" yMax="658">
      <component glyphName="e" x="0" y="0" flags="0x204"/>
      <component glyphName="uni0304" x="15" y="0" flags="0x4"/>
    </TTGlyph>
    <TTGlyph name="emdash" xMin="20" yMin="216" xMax="580" yMax="288">
      <contour>
        <pt x="20" y="288" on="1"/>
        <pt x="580" y="288" on="1"/>
        <pt x="580" y="216" on="1"/>
        <pt x="20" y="216" on="1"/>
      </contour>
    </TTGlyph>
    <TTGlyph name="endash" xMin="80" yMin="216" xMax="520" yMax="288">
      <contour>
        <pt x="80" y="288" on="1"/>
        <pt x="520" y="288" on="1"/>
        <pt x="520" y="216" on="1"/>
        <pt x="80" y="216" on="1"/>
      </contour>
    </TTGlyph>
    <TTGlyph name="eogonek" xMin="69" yMin="-206" xMax="537" yMax="498">
      <contour>
        <pt x="517" y="45" on="1"/>
        <pt x="483" y="21" on="0"/>
        <pt x="438" y="-20" on="0"/>
        <pt x="411" y="-56" on="0"/>
        <pt x="400" y="-89" on="0"/>
        <pt x="400" y="-105" on="1"/>
        <pt x="400" y="-128" on="0"/>
        <pt x="428" y="-151" on="0"/>
        <pt x="447" y="-151" on="1"/>
        <pt x="458" y="-151" on="0"/>
        <pt x="477" y="-144" on="0"/>
        <pt x="487" y="-138" on="1"/>
        <pt x="508" y="-179" on="1"/>
        <pt x="494" y="-190" on="0"/>
        <pt x="449" y="-206" on="0"/>
        <pt x="430" y="-206" on="1"/>
        <pt x="392" y="-206" on="0"/>
        <pt x="340" y="-163" on="0"/>
        <pt x="340" y="-121" on="1"/>
        <pt x="340" y="-102" on="0"/>
        <pt x="352" y="-66" on="0"/>
        <pt x="372" y="-34" on="0"/>
        <pt x="395" y="-9" on="0"/>
        <pt x="406" y="0" on="1"/>
        <pt x="384" y="-8" on="0"/>
        <pt x="350" y="-12" on="0"/>
        <pt x="330" y="-12" on="1"/>
        <pt x="276" y="-12" on="0"/>
        <pt x="181" y="23" on="0"/>
        <pt x="110" y="88" on="0"/>
        <pt x="69" y="182" on="0"/>
        <pt x="69" y="242" on="1"/>
        <pt x="69" y="302" on="0"/>
        <pt x="111" y="397" on="0"/>
        <pt x="180" y="463" on="0"/>
        <pt x="269" y="498" on="0"/>
        <pt x="316" y="498" on="1"/>
        <pt x="368" y="498" on="0"/>
        <pt x="450" y="465" on="0"/>
        <pt x="507" y="405" on="0"/>
        <pt x="537" y="321" on="0"/>
        <pt x="537" y="270" on="1"/>
        <pt x="537" y="257" on="0"/>
        <pt x="536" y="232" on="0"/>
        <pt x="534" y="223" on="1"/>
        <pt x="154" y="223" on="1"/>
        <pt x="155" y="184" on="0"/>
        <pt x="184" y="122" on="0"/>
        <pt x="233" y="78" on="0"/>
        <pt x="300" y="54" on="0"/>
        <pt x="340" y="54" on="1"/>
        <pt x="383" y="54" on="0"/>
        <pt x="454" y="78" on="0"/>
        <pt x="488" y="99" on="1"/>
      </contour>
      <contour>
        <pt x="461" y="282" on="1"/>
        <pt x="461" y="355" on="0"/>
        <pt x="385" y="433" on="0"/>
        <pt x="317" y="433" on="1"/>
        <pt x="287" y="433" on="0"/>
        <pt x="232" y="413" on="0"/>
        <pt x="188" y="374" on="0"/>
        <pt x="158" y="318" on="0"/>
        <pt x="153" y="282" on="1"/>
      </contour>
    </TTGlyph>
    <TTGlyph name="equal" xMin="85" yMin="193" xMax="515" yMax="468">
      <component glyphName="minus" x="0" y="107" flags="0x204"/>
      <component glyphName="minus" x="0" y="-106" flags="0x4"/>
    </TTGlyph>
    <TTGlyph name="estimated" xMin="26" yMin="-12" xMax="574" yMax="660">
      <contour>
        <pt x="164" y="68" on="1"/>
        <pt x="190" y="39" on="0"/>
        <pt x="261" y="8" on="0"/>
        <pt x="302" y="8" on="1"/>
        <pt x="355" y="8" on="0"/>
        <pt x="449" y="69" on="0"/>
        <pt x="484" y="120" on="1"/>
        <pt x="522" y="120" on="1"/>
        <pt x="481" y="60" on="0"/>
        <pt x="368" y="-12" on="0"/>
        <pt x="300" y="-12" on="1"/>
        <pt x="243" y="-12" on="0"/>
        <pt x="144" y="41" on="0"/>
        <pt x="69" y="132" on="0"/>
        <pt x="26" y="254" on="0"/>
        <pt x="26" y="324" on="1"/>
        <pt x="26" y="394" on="0"/>
        <pt x="69" y="516" on="0"/>
        <pt x="144" y="607" on="0"/>
        <pt x="243" y="660" on="0"/>
        <pt x="300" y="660" on="1"/>
        <pt x="357" y="660" on="0"/>
        <pt x="456" y="607" on="0"/>
        <pt x="531" y="516" on="0"/>
        <pt x="574" y="394" on="0"/>
        <pt x="574" y="324" on="1"/>
        <pt x="574" y="316" on="1"/>
        <pt x="160" y="316" on="1"/>
        <pt x="156" y="316" on="0"/>
        <pt x="156" y="312" on="1"/>
        <pt x="156" y="88" on="1"/>
        <pt x="156" y="82" on="0"/>
        <pt x="161" y="73" on="0"/>
      </contour>
      <contour>
        <pt x="440" y="334" on="1"/>
        <pt x="446" y="334" on="0"/>
        <pt x="446" y="340" on="1"/>
        <pt x="446" y="564" on="1"/>
        <pt x="446" y="576" on="0"/>
        <pt x="436" y="586" on="1"/>
        <pt x="410" y="612" on="0"/>
        <pt x="340" y="640" on="0"/>
        <pt x="302" y="640" on="1"/>
        <pt x="261" y="640" on="0"/>
        <pt x="190" y="609" on="0"/>
        <pt x="164" y="582" on="1"/>
        <pt x="161" y="577" on="0"/>
        <pt x="156" y="565" on="0"/>
        <pt x="156" y="560" on="1"/>
        <pt x="156" y="340" on="1"/>
        <pt x="156" y="334" on="0"/>
        <pt x="160" y="334" on="1"/>
      </contour>
    </TTGlyph>
    <TTGlyph name="eth" xMin="60" yMin="-12" xMax="536" yMax="730">
      <contour>
        <pt x="300" y="56" on="1"/>
        <pt x="340" y="56" on="0"/>
        <pt x="399" y="85" on="0"/>
        <pt x="438" y="138" on="0"/>
        <pt x="457" y="210" on="0"/>
        <pt x="457" y="254" on="1"/>
        <pt x="457" y="265" on="0"/>
        <pt x="457" y="287" on="0"/>
        <pt x="456" y="298" on="1"/>
        <pt x="421" y="345" on="0"/>
        <pt x="339" y="383" on="0"/>
        <pt x="300" y="383" on="1"/>
        <pt x="260" y="383" on="0"/>
        <pt x="199" y="359" on="0"/>
        <pt x="158" y="315" on="0"/>
        <pt x="137" y="256" on="0"/>
        <pt x="137" y="222" on="1"/>
        <pt x="137" y="184" on="0"/>
        <pt x="163" y="123" on="0"/>
        <pt x="207" y="80" on="0"/>
        <pt x="267" y="56" on="0"/>
      </contour>
      <contour>
        <pt x="390" y="610" on="1"/>
        <pt x="456" y="549" on="0"/>
        <pt x="536" y="378" on="0"/>
        <pt x="536" y="257" on="1"/>
        <pt x="536" y="197" on="0"/>
        <pt x="503" y="98" on="0"/>
        <pt x="441" y="27" on="0"/>
        <pt x="353" y="-12" on="0"/>
        <pt x="298" y="-12" on="1"/>
        <pt x="251" y="-12" on="0"/>
        <pt x="165" y="20" on="0"/>
        <pt x="99" y="81" on="0"/>
        <pt x="60" y="168" on="0"/>
        <pt x="60" y="222" on="1"/>
        <pt x="60" y="273" on="0"/>
        <pt x="94" y="356" on="0"/>
        <pt x="155" y="415" on="0"/>
        <pt x="238" y="447" on="0"/>
        <pt x="288" y="447" on="1"/>
        <pt x="335" y="447" on="0"/>
        <pt x="419" y="405" on="0"/>
        <pt x="447" y="367" on="1"/>
        <pt x="433" y="436" on="0"/>
        <pt x="372" y="537" on="0"/>
        <pt x="326" y="577" on="1"/>
        <pt x="176" y="500" on="1"/>
        <pt x="153" y="541" on="1"/>
        <pt x="285" y="609" on="1"/>
        <pt x="259" y="628" on="0"/>
        <pt x="199" y="661" on="0"/>
        <pt x="165" y="678" on="1"/>
        <pt x="203" y="730" on="1"/>
        <pt x="243" y="711" on="0"/>
        <pt x="317" y="669" on="0"/>
        <pt x="351" y="643" on="1"/>
        <pt x="486" y="712" on="1"/>
        <pt x="509" y="671" on="1"/>
      </contour>
    </TTGlyph>
    <TTGlyph name="exclam" xMin="227" yMin="-12" xMax="373" yMax="670">
      <contour>
        <pt x="262" y="576" on="1"/>
        <pt x="260" y="670" on="1"/>
        <pt x="340" y="670" on="1"/>
        <pt x="338" y="576" on="1"/>
        <pt x="328" y="232" on="1"/>
        <pt x="272" y="232" on="1"/>
      </contour>
      <contour>
        <pt x="227" y="66" on="1"/>
        <pt x="227" y="101" on="0"/>
        <pt x="270" y="142" on="0"/>
        <pt x="300" y="142" on="1"/>
        <pt x="330" y="142" on="0"/>
        <pt x="373" y="101" on="0"/>
        <pt x="373" y="66" on="1"/>
        <pt x="373" y="30" on="0"/>
        <pt x="330" y="-12" on="0"/>
        <pt x="300" y="-12" on="1"/>
        <pt x="270" y="-12" on="0"/>
        <pt x="227" y="30" on="0"/>
      </contour>
    </TTGlyph>
    <TTGlyph name="exclamdown" xMin="227" yMin="-184" xMax="373" yMax="498">
      <contour>
        <pt x="338" y="-90" on="1"/>
        <pt x="340" y="-184" on="1"/>
        <pt x="260" y="-184" on="1"/>
        <pt x="262" y="-90" on="1"/>
        <pt x="272" y="254" on="1"/>
        <pt x="328" y="254" on="1"/>
      </contour>
      <contour>
        <pt x="373" y="421" on="1"/>
        <pt x="373" y="385" on="0"/>
        <pt x="330" y="344" on="0"/>
        <pt x="300" y="344" on="1"/>
        <pt x="270" y="344" on="0"/>
        <pt x="227" y="385" on="0"/>
        <pt x="227" y="421" on="1"/>
        <pt x="227" y="456" on="0"/>
        <pt x="270" y="498" on="0"/>
        <pt x="300" y="498" on="1"/>
        <pt x="330" y="498" on="0"/>
        <pt x="373" y="456" on="0"/>
      </contour>
    </TTGlyph>
    <TTGlyph name="f" xMin="103" yMin="0" xMax="578" yMax="724">
      <contour>
        <pt x="559" y="634" on="1"/>
        <pt x="529" y="648" on="0"/>
        <pt x="478" y="657" on="0"/>
        <pt x="446" y="657" on="1"/>
        <pt x="380" y="657" on="0"/>
        <pt x="323" y="590" on="0"/>
        <pt x="323" y="530" on="1"/>
        <pt x="323" y="486" on="1"/>
        <pt x="527" y="486" on="1"/>
        <pt x="527" y="419" on="1"/>
        <pt x="323" y="419" on="1"/>
        <pt x="323" y="0" on="1"/>
        <pt x="242" y="0" on="1"/>
        <pt x="242" y="419" on="1"/>
        <pt x="103" y="419" on="1"/>
        <pt x="103" y="481" on="1"/>
        <pt x="242" y="486" on="1"/>
        <pt x="242" y="527" on="1"/>
        <pt x="242" y="616" on="0"/>
        <pt x="337" y="724" on="0"/>
        <pt x="438" y="724" on="1"/>
        <pt x="510" y="724" on="0"/>
        <pt x="578" y="696" on="1"/>
      </contour>
    </TTGlyph>
    <TTGlyph name="f.sups" xMin="198" yMin="260" xMax="503" yMax="736">
      <contour>
        <pt x="489" y="672" on="1"/>
        <pt x="472" y="679" on="0"/>
        <pt x="438" y="686" on="0"/>
        <pt x="418" y="686" on="1"/>
        <pt x="376" y="686" on="0"/>
        <pt x="340" y="644" on="0"/>
        <pt x="340" y="609" on="1"/>
        <pt x="340" y="582" on="1"/>
        <pt x="468" y="582" on="1"/>
        <pt x="468" y="531" on="1"/>
        <pt x="340" y="531" on="1"/>
        <pt x="340" y="260" on="1"/>
        <pt x="277" y="260" on="1"/>
        <pt x="277" y="531" on="1"/>
        <pt x="198" y="531" on="1"/>
        <pt x="198" y="579" on="1"/>
        <pt x="277" y="582" on="1"/>
        <pt x="277" y="607" on="1"/>
        <pt x="277" y="665" on="0"/>
        <pt x="342" y="736" on="0"/>
        <pt x="411" y="736" on="1"/>
        <pt x="436" y="736" on="0"/>
        <pt x="481" y="728" on="0"/>
        <pt x="503" y="720" on="1"/>
      </contour>
    </TTGlyph>
    <TTGlyph name="fi" xMin="52" yMin="0" xMax="522" yMax="724">
      <contour>
        <pt x="118" y="563" on="1"/>
        <pt x="118" y="638" on="0"/>
        <pt x="187" y="724" on="0"/>
        <pt x="260" y="724" on="1"/>
        <pt x="283" y="724" on="0"/>
        <pt x="324" y="715" on="0"/>
        <pt x="341" y="708" on="1"/>
        <pt x="324" y="645" on="1"/>
        <pt x="295" y="657" on="0"/>
        <pt x="269" y="657" on="1"/>
        <pt x="200" y="657" on="0"/>
        <pt x="200" y="563" on="1"/>
        <pt x="200" y="486" on="1"/>
        <pt x="303" y="486" on="1"/>
        <pt x="303" y="419" on="1"/>
        <pt x="200" y="419" on="1"/>
        <pt x="200" y="0" on="1"/>
        <pt x="118" y="0" on="1"/>
        <pt x="118" y="419" on="1"/>
        <pt x="52" y="419" on="1"/>
        <pt x="52" y="481" on="1"/>
        <pt x="118" y="486" on="1"/>
      </contour>
      <contour>
        <pt x="414" y="486" on="1"/>
        <pt x="496" y="486" on="1"/>
        <pt x="496" y="0" on="1"/>
        <pt x="414" y="0" on="1"/>
      </contour>
      <contour>
        <pt x="455" y="714" on="1"/>
        <pt x="484" y="714" on="0"/>
        <pt x="522" y="679" on="0"/>
        <pt x="522" y="650" on="1"/>
        <pt x="522" y="621" on="0"/>
        <pt x="484" y="586" on="0"/>
        <pt x="455" y="586" on="1"/>
        <pt x="426" y="586" on="0"/>
        <pt x="387" y="621" on="0"/>
        <pt x="387" y="650" on="1"/>
        <pt x="387" y="679" on="0"/>
        <pt x="426" y="714" on="0"/>
      </contour>
    </TTGlyph>
    <TTGlyph name="figuredash" xMin="80" yMin="216" xMax="520" yMax="288">
      <contour>
        <pt x="80" y="288" on="1"/>
        <pt x="520" y="288" on="1"/>
        <pt x="520" y="216" on="1"/>
        <pt x="80" y="216" on="1"/>
      </contour>
    </TTGlyph>
    <TTGlyph name="five" xMin="56" yMin="-12" xMax="522" yMax="638">
      <contour>
        <pt x="97" y="129" on="1"/>
        <pt x="113" y="115" on="0"/>
        <pt x="149" y="88" on="0"/>
        <pt x="192" y="68" on="0"/>
        <pt x="245" y="56" on="0"/>
        <pt x="277" y="56" on="1"/>
        <pt x="311" y="56" on="0"/>
        <pt x="370" y="77" on="0"/>
        <pt x="414" y="115" on="0"/>
        <pt x="439" y="169" on="0"/>
        <pt x="439" y="202" on="1"/>
        <pt x="439" y="268" on="0"/>
        <pt x="354" y="342" on="0"/>
        <pt x="282" y="342" on="1"/>
        <pt x="242" y="342" on="0"/>
        <pt x="186" y="322" on="0"/>
        <pt x="152" y="303" on="1"/>
        <pt x="108" y="331" on="1"/>
        <pt x="129" y="638" on="1"/>
        <pt x="490" y="638" on="1"/>
        <pt x="490" y="567" on="1"/>
        <pt x="202" y="567" on="1"/>
        <pt x="185" y="378" on="1"/>
        <pt x="213" y="390" on="0"/>
        <pt x="266" y="404" on="0"/>
        <pt x="303" y="404" on="1"/>
        <pt x="349" y="404" on="0"/>
        <pt x="429" y="380" on="0"/>
        <pt x="488" y="331" on="0"/>
        <pt x="522" y="256" on="0"/>
        <pt x="522" y="204" on="1"/>
        <pt x="522" y="152" on="0"/>
        <pt x="483" y="72" on="0"/>
        <pt x="417" y="17" on="0"/>
        <pt x="332" y="-12" on="0"/>
        <pt x="286" y="-12" on="1"/>
        <pt x="243" y="-12" on="0"/>
        <pt x="174" y="3" on="0"/>
        <pt x="119" y="27" on="0"/>
        <pt x="74" y="58" on="0"/>
        <pt x="56" y="75" on="1"/>
      </contour>
    </TTGlyph>
    <TTGlyph name="five.dnom" xMin="172" yMin="-12" xMax="425" yMax="305">
      <contour>
        <pt x="204" y="81" on="1"/>
        <pt x="221" y="63" on="0"/>
        <pt x="266" y="38" on="0"/>
        <pt x="296" y="38" on="1"/>
        <pt x="325" y="38" on="0"/>
        <pt x="362" y="68" on="0"/>
        <pt x="362" y="95" on="1"/>
        <pt x="362" y="124" on="0"/>
        <pt x="326" y="153" on="0"/>
        <pt x="295" y="153" on="1"/>
        <pt x="275" y="153" on="0"/>
        <pt x="246" y="141" on="0"/>
        <pt x="231" y="130" on="1"/>
        <pt x="200" y="150" on="1"/>
        <pt x="217" y="305" on="1"/>
        <pt x="406" y="305" on="1"/>
        <pt x="406" y="251" on="1"/>
        <pt x="267" y="251" on="1"/>
        <pt x="257" y="181" on="1"/>
        <pt x="281" y="193" on="0"/>
        <pt x="313" y="193" on="1"/>
        <pt x="363" y="193" on="0"/>
        <pt x="425" y="142" on="0"/>
        <pt x="425" y="94" on="1"/>
        <pt x="425" y="46" on="0"/>
        <pt x="355" y="-12" on="0"/>
        <pt x="301" y="-12" on="1"/>
        <pt x="259" y="-12" on="0"/>
        <pt x="199" y="16" on="0"/>
        <pt x="172" y="42" on="1"/>
      </contour>
    </TTGlyph>
    <TTGlyph name="five.numr" xMin="172" yMin="320" xMax="425" yMax="637">
      <component glyphName="five.dnom" x="0" y="332" flags="0x204"/>
    </TTGlyph>
    <TTGlyph name="five.onum" xMin="56" yMin="-86" xMax="522" yMax="574">
      <contour>
        <pt x="97" y="55" on="1"/>
        <pt x="113" y="41" on="0"/>
        <pt x="149" y="15" on="0"/>
        <pt x="192" y="-5" on="0"/>
        <pt x="245" y="-17" on="0"/>
        <pt x="277" y="-17" on="1"/>
        <pt x="311" y="-17" on="0"/>
        <pt x="370" y="4" on="0"/>
        <pt x="414" y="42" on="0"/>
        <pt x="439" y="97" on="0"/>
        <pt x="439" y="132" on="1"/>
        <pt x="439" y="200" on="0"/>
        <pt x="354" y="274" on="0"/>
        <pt x="282" y="274" on="1"/>
        <pt x="242" y="274" on="0"/>
        <pt x="186" y="254" on="0"/>
        <pt x="152" y="235" on="1"/>
        <pt x="108" y="263" on="1"/>
        <pt x="129" y="574" on="1"/>
        <pt x="490" y="574" on="1"/>
        <pt x="490" y="503" on="1"/>
        <pt x="202" y="503" on="1"/>
        <pt x="185" y="310" on="1"/>
        <pt x="213" y="323" on="0"/>
        <pt x="266" y="336" on="0"/>
        <pt x="303" y="336" on="1"/>
        <pt x="349" y="336" on="0"/>
        <pt x="429" y="313" on="0"/>
        <pt x="488" y="263" on="0"/>
        <pt x="522" y="187" on="0"/>
        <pt x="522" y="134" on="1"/>
        <pt x="522" y="81" on="0"/>
        <pt x="483" y="0" on="0"/>
        <pt x="417" y="-57" on="0"/>
        <pt x="332" y="-86" on="0"/>
        <pt x="286" y="-86" on="1"/>
        <pt x="243" y="-86" on="0"/>
        <pt x="174" y="-71" on="0"/>
        <pt x="119" y="-47" on="0"/>
        <pt x="74" y="-15" on="0"/>
        <pt x="56" y="2" on="1"/>
      </contour>
    </TTGlyph>
    <TTGlyph name="five.subs" xMin="172" yMin="-181" xMax="425" yMax="136">
      <component glyphName="five.dnom" x="0" y="-169" flags="0x204"/>
    </TTGlyph>
    <TTGlyph name="five.sups" xMin="172" yMin="428" xMax="425" yMax="745">
      <component glyphName="five.dnom" x="0" y="440" flags="0x204"/>
    </TTGlyph>
    <TTGlyph name="fiveeighths" xMin="28" yMin="-12" xMax="572" yMax="638">
      <component glyphName="five.dnom" x="-133" y="333" flags="0x204"/>
      <component glyphName="fraction" x="0" y="0" flags="0x4"/>
      <component glyphName="eight.dnom" x="135" y="0" flags="0x4"/>
    </TTGlyph>
    <TTGlyph name="fl" xMin="57" yMin="-12" xMax="535" yMax="724">
      <contour>
        <pt x="123" y="563" on="1"/>
        <pt x="123" y="638" on="0"/>
        <pt x="192" y="724" on="0"/>
        <pt x="265" y="724" on="1"/>
        <pt x="288" y="724" on="0"/>
        <pt x="329" y="715" on="0"/>
        <pt x="346" y="708" on="1"/>
        <pt x="328" y="645" on="1"/>
        <pt x="301" y="657" on="0"/>
        <pt x="273" y="657" on="1"/>
        <pt x="205" y="657" on="0"/>
        <pt x="205" y="563" on="1"/>
        <pt x="205" y="486" on="1"/>
        <pt x="308" y="486" on="1"/>
        <pt x="308" y="419" on="1"/>
        <pt x="205" y="419" on="1"/>
        <pt x="205" y="0" on="1"/>
        <pt x="123" y="0" on="1"/>
        <pt x="123" y="419" on="1"/>
        <pt x="57" y="419" on="1"/>
        <pt x="57" y="481" on="1"/>
        <pt x="123" y="486" on="1"/>
      </contour>
      <contour>
        <pt x="535" y="-4" on="1"/>
        <pt x="526" y="-8" on="0"/>
        <pt x="504" y="-12" on="0"/>
        <pt x="488" y="-12" on="1"/>
        <pt x="441" y="-12" on="0"/>
        <pt x="401" y="44" on="0"/>
        <pt x="401" y="98" on="1"/>
        <pt x="401" y="712" on="1"/>
        <pt x="483" y="712" on="1"/>
        <pt x="483" y="92" on="1"/>
        <pt x="483" y="72" on="0"/>
        <pt x="497" y="56" on="0"/>
        <pt x="506" y="56" on="1"/>
        <pt x="510" y="56" on="0"/>
        <pt x="517" y="56" on="0"/>
        <pt x="524" y="58" on="1"/>
      </contour>
    </TTGlyph>
    <TTGlyph name="four" xMin="39" yMin="0" xMax="545" yMax="638">
      <contour>
        <pt x="368" y="242" on="1"/>
        <pt x="368" y="440" on="1"/>
        <pt x="369" y="466" on="0"/>
        <pt x="371" y="527" on="0"/>
        <pt x="373" y="553" on="1"/>
        <pt x="368" y="553" on="1"/>
        <pt x="353" y="530" on="0"/>
        <pt x="319" y="483" on="0"/>
        <pt x="303" y="460" on="1"/>
        <pt x="130" y="242" on="1"/>
      </contour>
      <contour>
        <pt x="545" y="176" on="1"/>
        <pt x="446" y="176" on="1"/>
        <pt x="446" y="0" on="1"/>
        <pt x="368" y="0" on="1"/>
        <pt x="368" y="176" on="1"/>
        <pt x="39" y="176" on="1"/>
        <pt x="39" y="231" on="1"/>
        <pt x="358" y="638" on="1"/>
        <pt x="446" y="638" on="1"/>
        <pt x="446" y="242" on="1"/>
        <pt x="545" y="242" on="1"/>
      </contour>
    </TTGlyph>
    <TTGlyph name="four.dnom" xMin="172" yMin="0" xMax="441" yMax="305">
      <contour>
        <pt x="334" y="116" on="1"/>
        <pt x="334" y="172" on="1"/>
        <pt x="338" y="254" on="1"/>
        <pt x="335" y="254" on="1"/>
        <pt x="290" y="189" on="1"/>
        <pt x="236" y="116" on="1"/>
      </contour>
      <contour>
        <pt x="441" y="73" on="1"/>
        <pt x="391" y="73" on="1"/>
        <pt x="391" y="0" on="1"/>
        <pt x="334" y="0" on="1"/>
        <pt x="334" y="73" on="1"/>
        <pt x="172" y="73" on="1"/>
        <pt x="172" y="104" on="1"/>
        <pt x="320" y="305" on="1"/>
        <pt x="391" y="305" on="1"/>
        <pt x="391" y="116" on="1"/>
        <pt x="441" y="116" on="1"/>
      </contour>
    </TTGlyph>
    <TTGlyph name="four.numr" xMin="172" yMin="332" xMax="441" yMax="637">
      <component glyphName="four.dnom" x="0" y="332" flags="0x204"/>
    </TTGlyph>
    <TTGlyph name="four.onum" xMin="39" yMin="-74" xMax="545" yMax="574">
      <contour>
        <pt x="368" y="161" on="1"/>
        <pt x="368" y="376" on="1"/>
        <pt x="369" y="402" on="0"/>
        <pt x="371" y="463" on="0"/>
        <pt x="373" y="489" on="1"/>
        <pt x="368" y="489" on="1"/>
        <pt x="353" y="464" on="0"/>
        <pt x="320" y="415" on="0"/>
        <pt x="304" y="392" on="1"/>
        <pt x="129" y="161" on="1"/>
      </contour>
      <contour>
        <pt x="545" y="94" on="1"/>
        <pt x="446" y="94" on="1"/>
        <pt x="446" y="-74" on="1"/>
        <pt x="368" y="-74" on="1"/>
        <pt x="368" y="94" on="1"/>
        <pt x="39" y="94" on="1"/>
        <pt x="39" y="149" on="1"/>
        <pt x="358" y="574" on="1"/>
        <pt x="446" y="574" on="1"/>
        <pt x="446" y="161" on="1"/>
        <pt x="545" y="161" on="1"/>
      </contour>
    </TTGlyph>
    <TTGlyph name="four.subs" xMin="172" yMin="-169" xMax="441" yMax="136">
      <component glyphName="four.dnom" x="0" y="-169" flags="0x204"/>
    </TTGlyph>
    <TTGlyph name="four.sups" xMin="172" yMin="440" xMax="441" yMax="745">
      <component glyphName="four.dnom" x="0" y="440" flags="0x204"/>
    </TTGlyph>
    <TTGlyph name="fraction" xMin="28" yMin="32" xMax="572" yMax="624">
      <contour>
        <pt x="28" y="77" on="1"/>
        <pt x="211" y="265" on="1"/>
        <pt x="244" y="235" on="1"/>
        <pt x="77" y="32" on="1"/>
      </contour>
      <contour>
        <pt x="572" y="579" on="1"/>
        <pt x="389" y="391" on="1"/>
        <pt x="356" y="421" on="1"/>
        <pt x="523" y="624" on="1"/>
      </contour>
    </TTGlyph>
    <TTGlyph name="g" xMin="72" yMin="-224" xMax="566" yMax="498">
      <contour>
        <pt x="143" y="-81" on="1"/>
        <pt x="143" y="-119" on="0"/>
        <pt x="224" y="-167" on="0"/>
        <pt x="302" y="-167" on="1"/>
        <pt x="344" y="-167" on="0"/>
        <pt x="412" y="-150" on="0"/>
        <pt x="460" y="-122" on="0"/>
        <pt x="485" y="-86" on="0"/>
        <pt x="485" y="-67" on="1"/>
        <pt x="485" y="-32" on="0"/>
        <pt x="430" y="-8" on="0"/>
        <pt x="374" y="-8" on="1"/>
        <pt x="279" y="-8" on="1"/>
        <pt x="258" y="-8" on="0"/>
        <pt x="221" y="-5" on="0"/>
        <pt x="205" y="0" on="1"/>
        <pt x="170" y="-19" on="0"/>
        <pt x="143" y="-60" on="0"/>
      </contour>
      <contour>
        <pt x="72" y="-89" on="1"/>
        <pt x="72" y="-60" on="0"/>
        <pt x="113" y="-4" on="0"/>
        <pt x="152" y="19" on="1"/>
        <pt x="152" y="23" on="1"/>
        <pt x="132" y="34" on="0"/>
        <pt x="102" y="72" on="0"/>
        <pt x="102" y="103" on="1"/>
        <pt x="102" y="126" on="0"/>
        <pt x="132" y="175" on="0"/>
        <pt x="160" y="194" on="1"/>
        <pt x="160" y="198" on="1"/>
        <pt x="135" y="217" on="0"/>
        <pt x="100" y="280" on="0"/>
        <pt x="100" y="324" on="1"/>
        <pt x="100" y="364" on="0"/>
        <pt x="131" y="428" on="0"/>
        <pt x="183" y="473" on="0"/>
        <pt x="252" y="498" on="0"/>
        <pt x="291" y="498" on="1"/>
        <pt x="331" y="498" on="0"/>
        <pt x="363" y="486" on="1"/>
        <pt x="564" y="486" on="1"/>
        <pt x="564" y="423" on="1"/>
        <pt x="434" y="423" on="1"/>
        <pt x="451" y="405" on="0"/>
        <pt x="479" y="353" on="0"/>
        <pt x="479" y="321" on="1"/>
        <pt x="479" y="282" on="0"/>
        <pt x="450" y="220" on="0"/>
        <pt x="399" y="177" on="0"/>
        <pt x="330" y="154" on="0"/>
        <pt x="291" y="154" on="1"/>
        <pt x="272" y="154" on="0"/>
        <pt x="229" y="163" on="0"/>
        <pt x="209" y="172" on="1"/>
        <pt x="171" y="148" on="0"/>
        <pt x="171" y="116" on="1"/>
        <pt x="171" y="87" on="0"/>
        <pt x="224" y="60" on="0"/>
        <pt x="272" y="60" on="1"/>
        <pt x="381" y="60" on="1"/>
        <pt x="475" y="60" on="0"/>
        <pt x="566" y="8" on="0"/>
        <pt x="566" y="-54" on="1"/>
        <pt x="566" y="-88" on="0"/>
        <pt x="528" y="-150" on="0"/>
        <pt x="458" y="-196" on="0"/>
        <pt x="358" y="-224" on="0"/>
        <pt x="296" y="-224" on="1"/>
        <pt x="189" y="-224" on="0"/>
        <pt x="72" y="-154" on="0"/>
      </contour>
      <contour>
        <pt x="291" y="209" on="1"/>
        <pt x="338" y="209" on="0"/>
        <pt x="403" y="271" on="0"/>
        <pt x="403" y="324" on="1"/>
        <pt x="403" y="349" on="0"/>
        <pt x="385" y="391" on="0"/>
        <pt x="355" y="421" on="0"/>
        <pt x="314" y="438" on="0"/>
        <pt x="291" y="438" on="1"/>
        <pt x="268" y="438" on="0"/>
        <pt x="227" y="421" on="0"/>
        <pt x="197" y="391" on="0"/>
        <pt x="179" y="349" on="0"/>
        <pt x="179" y="324" on="1"/>
        <pt x="179" y="271" on="0"/>
        <pt x="245" y="209" on="0"/>
      </contour>
    </TTGlyph>
    <TTGlyph name="g.a" xMin="60" yMin="-217" xMax="507" yMax="498">
      <component glyphName="uni0261" x="0" y="0" flags="0x204"/>
    </TTGlyph>
    <TTGlyph name="g.supa" xMin="137" yMin="121" xMax="438" yMax="590">
      <contour>
        <pt x="183" y="200" on="1"/>
        <pt x="208" y="184" on="0"/>
        <pt x="260" y="171" on="0"/>
        <pt x="283" y="171" on="1"/>
        <pt x="328" y="171" on="0"/>
        <pt x="373" y="213" on="0"/>
        <pt x="374" y="249" on="1"/>
        <pt x="375" y="305" on="1"/>
        <pt x="356" y="288" on="0"/>
        <pt x="305" y="264" on="0"/>
        <pt x="276" y="264" on="1"/>
        <pt x="213" y="264" on="0"/>
        <pt x="137" y="351" on="0"/>
        <pt x="137" y="426" on="1"/>
        <pt x="137" y="463" on="0"/>
        <pt x="162" y="524" on="0"/>
        <pt x="202" y="567" on="0"/>
        <pt x="255" y="590" on="0"/>
        <pt x="283" y="590" on="1"/>
        <pt x="311" y="590" on="0"/>
        <pt x="356" y="571" on="0"/>
        <pt x="378" y="552" on="1"/>
        <pt x="379" y="552" on="1"/>
        <pt x="385" y="582" on="1"/>
        <pt x="438" y="582" on="1"/>
        <pt x="438" y="248" on="1"/>
        <pt x="438" y="188" on="0"/>
        <pt x="357" y="121" on="0"/>
        <pt x="283" y="121" on="1"/>
        <pt x="252" y="121" on="0"/>
        <pt x="187" y="139" on="0"/>
        <pt x="160" y="156" on="1"/>
      </contour>
      <contour>
        <pt x="291" y="316" on="1"/>
        <pt x="314" y="316" on="0"/>
        <pt x="354" y="337" on="0"/>
        <pt x="374" y="358" on="1"/>
        <pt x="374" y="506" on="1"/>
        <pt x="354" y="523" on="0"/>
        <pt x="314" y="537" on="0"/>
        <pt x="294" y="537" on="1"/>
        <pt x="256" y="537" on="0"/>
        <pt x="202" y="477" on="0"/>
        <pt x="202" y="427" on="1"/>
        <pt x="202" y="376" on="0"/>
        <pt x="249" y="316" on="0"/>
      </contour>
    </TTGlyph>
    <TTGlyph name="g.sups" xMin="149" yMin="114" xMax="482" yMax="590">
      <contour>
        <pt x="203" y="210" on="1"/>
        <pt x="203" y="186" on="0"/>
        <pt x="254" y="157" on="0"/>
        <pt x="304" y="157" on="1"/>
        <pt x="358" y="157" on="0"/>
        <pt x="421" y="194" on="0"/>
        <pt x="421" y="217" on="1"/>
        <pt x="421" y="238" on="0"/>
        <pt x="384" y="253" on="0"/>
        <pt x="349" y="253" on="1"/>
        <pt x="290" y="253" on="1"/>
        <pt x="275" y="253" on="0"/>
        <pt x="252" y="255" on="0"/>
        <pt x="241" y="258" on="1"/>
        <pt x="220" y="247" on="0"/>
        <pt x="203" y="222" on="0"/>
      </contour>
      <contour>
        <pt x="149" y="202" on="1"/>
        <pt x="149" y="242" on="0"/>
        <pt x="202" y="272" on="1"/>
        <pt x="202" y="275" on="1"/>
        <pt x="189" y="282" on="0"/>
        <pt x="169" y="308" on="0"/>
        <pt x="169" y="328" on="1"/>
        <pt x="169" y="344" on="0"/>
        <pt x="190" y="376" on="0"/>
        <pt x="208" y="388" on="1"/>
        <pt x="208" y="391" on="1"/>
        <pt x="191" y="404" on="0"/>
        <pt x="167" y="445" on="0"/>
        <pt x="167" y="474" on="1"/>
        <pt x="167" y="501" on="0"/>
        <pt x="188" y="544" on="0"/>
        <pt x="223" y="574" on="0"/>
        <pt x="270" y="590" on="0"/>
        <pt x="297" y="590" on="1"/>
        <pt x="311" y="590" on="0"/>
        <pt x="335" y="587" on="0"/>
        <pt x="346" y="582" on="1"/>
        <pt x="480" y="582" on="1"/>
        <pt x="480" y="534" on="1"/>
        <pt x="398" y="534" on="1"/>
        <pt x="409" y="523" on="0"/>
        <pt x="423" y="492" on="0"/>
        <pt x="423" y="473" on="1"/>
        <pt x="423" y="446" on="0"/>
        <pt x="404" y="405" on="0"/>
        <pt x="370" y="377" on="0"/>
        <pt x="324" y="362" on="0"/>
        <pt x="297" y="362" on="1"/>
        <pt x="274" y="362" on="0"/>
        <pt x="244" y="373" on="1"/>
        <pt x="222" y="359" on="0"/>
        <pt x="222" y="339" on="1"/>
        <pt x="222" y="305" on="0"/>
        <pt x="285" y="305" on="1"/>
        <pt x="356" y="305" on="1"/>
        <pt x="420" y="305" on="0"/>
        <pt x="482" y="269" on="0"/>
        <pt x="482" y="228" on="1"/>
        <pt x="482" y="204" on="0"/>
        <pt x="456" y="163" on="0"/>
        <pt x="408" y="132" on="0"/>
        <pt x="340" y="114" on="0"/>
        <pt x="298" y="114" on="1"/>
        <pt x="228" y="114" on="0"/>
        <pt x="149" y="159" on="0"/>
      </contour>
      <contour>
        <pt x="297" y="404" on="1"/>
        <pt x="326" y="404" on="0"/>
        <pt x="366" y="442" on="0"/>
        <pt x="366" y="474" on="1"/>
        <pt x="366" y="506" on="0"/>
        <pt x="326" y="546" on="0"/>
        <pt x="297" y="546" on="1"/>
        <pt x="268" y="546" on="0"/>
        <pt x="228" y="506" on="0"/>
        <pt x="228" y="474" on="1"/>
        <pt x="228" y="442" on="0"/>
        <pt x="268" y="404" on="0"/>
      </contour>
    </TTGlyph>
    <TTGlyph name="gbreve" xMin="72" yMin="-224" xMax="566" yMax="709">
      <component glyphName="g" x="0" y="0" flags="0x204"/>
      <component glyphName="uni0306" x="7" y="0" flags="0x4"/>
    </TTGlyph>
    <TTGlyph name="gbreve.a" xMin="60" yMin="-217" xMax="507" yMax="709">
      <component glyphName="uni0261" x="0" y="0" flags="0x204"/>
      <component glyphName="uni0306" x="7" y="0" flags="0x4"/>
    </TTGlyph>
    <TTGlyph name="gcaron" xMin="72" yMin="-224" xMax="566" yMax="721">
      <component glyphName="g" x="0" y="0" flags="0x204"/>
      <component glyphName="uni030C" x="7" y="0" flags="0x4"/>
    </TTGlyph>
    <TTGlyph name="gcaron.a" xMin="60" yMin="-217" xMax="507" yMax="721">
      <component glyphName="uni0261" x="0" y="0" flags="0x204"/>
      <component glyphName="uni030C" x="7" y="0" flags="0x4"/>
    </TTGlyph>
    <TTGlyph name="gcircumflex" xMin="72" yMin="-224" xMax="566" yMax="721">
      <component glyphName="g" x="0" y="0" flags="0x204"/>
      <component glyphName="uni0302" x="7" y="0" flags="0x4"/>
    </TTGlyph>
    <TTGlyph name="gcircumflex.a" xMin="60" yMin="-217" xMax="507" yMax="721">
      <component glyphName="uni0261" x="0" y="0" flags="0x204"/>
      <component glyphName="uni0302" x="7" y="0" flags="0x4"/>
    </TTGlyph>
    <TTGlyph name="gdotaccent" xMin="72" yMin="-224" xMax="566" yMax="713">
      <component glyphName="g" x="0" y="0" flags="0x204"/>
      <component glyphName="uni0307" x="7" y="0" flags="0x4"/>
    </TTGlyph>
    <TTGlyph name="gdotaccent.a" xMin="60" yMin="-217" xMax="507" yMax="713">
      <component glyphName="uni0261" x="0" y="0" flags="0x204"/>
      <component glyphName="uni0307" x="7" y="0" flags="0x4"/>
    </TTGlyph>
    <TTGlyph name="germandbls" xMin="88" yMin="-12" xMax="564" yMax="724">
      <contour>
        <pt x="88" y="519" on="1"/>
        <pt x="88" y="565" on="0"/>
        <pt x="116" y="641" on="0"/>
        <pt x="168" y="695" on="0"/>
        <pt x="242" y="724" on="0"/>
        <pt x="289" y="724" on="1"/>
        <pt x="329" y="724" on="0"/>
        <pt x="390" y="700" on="0"/>
        <pt x="432" y="659" on="0"/>
        <pt x="453" y="606" on="0"/>
        <pt x="453" y="576" on="1"/>
        <pt x="453" y="538" on="0"/>
        <pt x="425" y="485" on="0"/>
        <pt x="391" y="441" on="0"/>
        <pt x="363" y="400" on="0"/>
        <pt x="363" y="374" on="1"/>
        <pt x="363" y="350" on="0"/>
        <pt x="393" y="318" on="0"/>
        <pt x="437" y="291" on="0"/>
        <pt x="490" y="265" on="0"/>
        <pt x="534" y="229" on="0"/>
        <pt x="564" y="176" on="0"/>
        <pt x="564" y="137" on="1"/>
        <pt x="564" y="105" on="0"/>
        <pt x="541" y="51" on="0"/>
        <pt x="498" y="11" on="0"/>
        <pt x="438" y="-12" on="0"/>
        <pt x="401" y="-12" on="1"/>
        <pt x="359" y="-12" on="0"/>
        <pt x="289" y="12" on="0"/>
        <pt x="257" y="33" on="1"/>
        <pt x="290" y="91" on="1"/>
        <pt x="318" y="71" on="0"/>
        <pt x="370" y="52" on="0"/>
        <pt x="399" y="52" on="1"/>
        <pt x="441" y="52" on="0"/>
        <pt x="486" y="99" on="0"/>
        <pt x="486" y="130" on="1"/>
        <pt x="486" y="159" on="0"/>
        <pt x="456" y="197" on="0"/>
        <pt x="411" y="226" on="0"/>
        <pt x="359" y="251" on="0"/>
        <pt x="314" y="284" on="0"/>
        <pt x="284" y="329" on="0"/>
        <pt x="284" y="364" on="1"/>
        <pt x="284" y="398" on="0"/>
        <pt x="312" y="447" on="0"/>
        <pt x="346" y="492" on="0"/>
        <pt x="374" y="539" on="0"/>
        <pt x="374" y="571" on="1"/>
        <pt x="374" y="608" on="0"/>
        <pt x="330" y="657" on="0"/>
        <pt x="288" y="657" on="1"/>
        <pt x="233" y="657" on="0"/>
        <pt x="170" y="582" on="0"/>
        <pt x="170" y="507" on="1"/>
        <pt x="170" y="0" on="1"/>
        <pt x="88" y="0" on="1"/>
      </contour>
    </TTGlyph>
    <TTGlyph name="grave" xMin="185" yMin="573" xMax="365" yMax="721">
      <component glyphName="uni0300" x="0" y="0" flags="0x204"/>
    </TTGlyph>
    <TTGlyph name="greater" xMin="107" yMin="48" xMax="480" yMax="616">
      <contour>
        <pt x="480" y="301" on="1"/>
        <pt x="107" y="48" on="1"/>
        <pt x="107" y="127" on="1"/>
        <pt x="408" y="330" on="1"/>
        <pt x="408" y="334" on="1"/>
        <pt x="107" y="537" on="1"/>
        <pt x="107" y="616" on="1"/>
        <pt x="480" y="363" on="1"/>
      </contour>
    </TTGlyph>
    <TTGlyph name="greaterequal" xMin="85" yMin="0" xMax="515" yMax="533">
      <contour>
        <pt x="85" y="62" on="1"/>
        <pt x="515" y="62" on="1"/>
        <pt x="515" y="0" on="1"/>
        <pt x="85" y="0" on="1"/>
      </contour>
      <contour>
        <pt x="515" y="306" on="1"/>
        <pt x="85" y="153" on="1"/>
        <pt x="85" y="224" on="1"/>
        <pt x="295" y="297" on="1"/>
        <pt x="430" y="341" on="1"/>
        <pt x="430" y="345" on="1"/>
        <pt x="295" y="389" on="1"/>
        <pt x="85" y="462" on="1"/>
        <pt x="85" y="533" on="1"/>
        <pt x="515" y="380" on="1"/>
      </contour>
    </TTGlyph>
    <TTGlyph name="guillemotleft" xMin="83" yMin="52" xMax="504" yMax="452">
      <component glyphName="guilsinglleft" x="-114" y="0" flags="0x204"/>
      <component glyphName="guilsinglleft" x="115" y="0" flags="0x4"/>
    </TTGlyph>
    <TTGlyph name="guillemotright" xMin="97" yMin="52" xMax="518" yMax="452">
      <component glyphName="guilsinglright" x="-114" y="0" flags="0x204"/>
      <component glyphName="guilsinglright" x="115" y="0" flags="0x4"/>
    </TTGlyph>
    <TTGlyph name="guilsinglleft" xMin="197" yMin="52" xMax="389" yMax="452">
      <contour>
        <pt x="197" y="212" on="1"/>
        <pt x="197" y="292" on="1"/>
        <pt x="350" y="452" on="1"/>
        <pt x="389" y="417" on="1"/>
        <pt x="262" y="252" on="1"/>
        <pt x="389" y="86" on="1"/>
        <pt x="350" y="52" on="1"/>
      </contour>
    </TTGlyph>
    <TTGlyph name="guilsinglright" xMin="211" yMin="52" xMax="403" yMax="452">
      <contour>
        <pt x="338" y="252" on="1"/>
        <pt x="211" y="417" on="1"/>
        <pt x="250" y="452" on="1"/>
        <pt x="403" y="292" on="1"/>
        <pt x="403" y="212" on="1"/>
        <pt x="250" y="52" on="1"/>
        <pt x="211" y="86" on="1"/>
      </contour>
    </TTGlyph>
    <TTGlyph name="h" xMin="93" yMin="0" xMax="523" yMax="712">
      <contour>
        <pt x="93" y="712" on="1"/>
        <pt x="175" y="712" on="1"/>
        <pt x="175" y="518" on="1"/>
        <pt x="171" y="403" on="1"/>
        <pt x="210" y="444" on="0"/>
        <pt x="298" y="498" on="0"/>
        <pt x="355" y="498" on="1"/>
        <pt x="442" y="498" on="0"/>
        <pt x="523" y="399" on="0"/>
        <pt x="523" y="302" on="1"/>
        <pt x="523" y="0" on="1"/>
        <pt x="441" y="0" on="1"/>
        <pt x="441" y="291" on="1"/>
        <pt x="441" y="360" on="0"/>
        <pt x="389" y="427" on="0"/>
        <pt x="329" y="427" on="1"/>
        <pt x="307" y="427" on="0"/>
        <pt x="270" y="416" on="0"/>
        <pt x="234" y="394" on="0"/>
        <pt x="196" y="361" on="0"/>
        <pt x="175" y="339" on="1"/>
        <pt x="175" y="0" on="1"/>
        <pt x="93" y="0" on="1"/>
      </contour>
    </TTGlyph>
    <TTGlyph name="h.sups" xMin="175" yMin="260" xMax="460" yMax="728">
      <contour>
        <pt x="175" y="728" on="1"/>
        <pt x="239" y="728" on="1"/>
        <pt x="239" y="603" on="1"/>
        <pt x="235" y="534" on="1"/>
        <pt x="259" y="557" on="0"/>
        <pt x="315" y="590" on="0"/>
        <pt x="351" y="590" on="1"/>
        <pt x="408" y="590" on="0"/>
        <pt x="460" y="525" on="0"/>
        <pt x="460" y="463" on="1"/>
        <pt x="460" y="260" on="1"/>
        <pt x="396" y="260" on="1"/>
        <pt x="396" y="455" on="1"/>
        <pt x="396" y="497" on="0"/>
        <pt x="365" y="536" on="0"/>
        <pt x="329" y="536" on="1"/>
        <pt x="303" y="536" on="0"/>
        <pt x="264" y="511" on="0"/>
        <pt x="239" y="487" on="1"/>
        <pt x="239" y="260" on="1"/>
        <pt x="175" y="260" on="1"/>
      </contour>
    </TTGlyph>
    <TTGlyph name="hbar" xMin="20" yMin="0" xMax="523" yMax="712">
      <contour>
        <pt x="171" y="383" on="1"/>
        <pt x="210" y="424" on="0"/>
        <pt x="298" y="478" on="0"/>
        <pt x="355" y="478" on="1"/>
        <pt x="442" y="478" on="0"/>
        <pt x="523" y="379" on="0"/>
        <pt x="523" y="282" on="1"/>
        <pt x="523" y="0" on="1"/>
        <pt x="441" y="0" on="1"/>
        <pt x="441" y="271" on="1"/>
        <pt x="441" y="340" on="0"/>
        <pt x="389" y="407" on="0"/>
        <pt x="329" y="407" on="1"/>
        <pt x="307" y="407" on="0"/>
        <pt x="270" y="396" on="0"/>
        <pt x="234" y="374" on="0"/>
        <pt x="196" y="341" on="0"/>
        <pt x="175" y="319" on="1"/>
        <pt x="175" y="0" on="1"/>
        <pt x="93" y="0" on="1"/>
        <pt x="93" y="571" on="1"/>
        <pt x="20" y="571" on="1"/>
        <pt x="20" y="614" on="1"/>
        <pt x="93" y="619" on="1"/>
        <pt x="93" y="712" on="1"/>
        <pt x="175" y="712" on="1"/>
        <pt x="175" y="619" on="1"/>
        <pt x="387" y="619" on="1"/>
        <pt x="387" y="571" on="1"/>
        <pt x="175" y="571" on="1"/>
        <pt x="175" y="498" on="1"/>
      </contour>
    </TTGlyph>
    <TTGlyph name="hcircumflex" xMin="10" yMin="0" xMax="523" yMax="860">
      <component glyphName="h" x="0" y="0" flags="0x204"/>
      <component glyphName="uni0302.cap" x="-154" y="42" flags="0x4"/>
    </TTGlyph>
    <TTGlyph name="hungarumlaut" xMin="202" yMin="571" xMax="492" yMax="714">
      <component glyphName="uni030B" x="0" y="0" flags="0x204"/>
    </TTGlyph>
    <TTGlyph name="hyphen" xMin="85" yMin="299" xMax="515" yMax="361">
      <component glyphName="minus" x="0" y="0" flags="0x204"/>
    </TTGlyph>
    <TTGlyph name="hyphen.a" xMin="134" yMin="216" xMax="466" yMax="288">
      <contour>
        <pt x="134" y="288" on="1"/>
        <pt x="466" y="288" on="1"/>
        <pt x="466" y="216" on="1"/>
        <pt x="134" y="216" on="1"/>
      </contour>
    </TTGlyph>
    <TTGlyph name="i" xMin="90" yMin="0" xMax="414" yMax="713">
      <contour>
        <pt x="90" y="486" on="1"/>
        <pt x="398" y="486" on="1"/>
        <pt x="398" y="0" on="1"/>
        <pt x="316" y="0" on="1"/>
        <pt x="316" y="419" on="1"/>
        <pt x="90" y="419" on="1"/>
      </contour>
      <contour>
        <pt x="348" y="586" on="1"/>
        <pt x="319" y="586" on="0"/>
        <pt x="282" y="620" on="0"/>
        <pt x="282" y="649" on="1"/>
        <pt x="282" y="678" on="0"/>
        <pt x="319" y="713" on="0"/>
        <pt x="348" y="713" on="1"/>
        <pt x="376" y="713" on="0"/>
        <pt x="414" y="678" on="0"/>
        <pt x="414" y="649" on="1"/>
        <pt x="414" y="620" on="0"/>
        <pt x="376" y="586" on="0"/>
      </contour>
    </TTGlyph>
    <TTGlyph name="i.sups" xMin="175" yMin="260" xMax="395" yMax="736">
      <contour>
        <pt x="175" y="582" on="1"/>
        <pt x="380" y="582" on="1"/>
        <pt x="380" y="260" on="1"/>
        <pt x="316" y="260" on="1"/>
        <pt x="316" y="531" on="1"/>
        <pt x="175" y="531" on="1"/>
      </contour>
      <contour>
        <pt x="347" y="645" on="1"/>
        <pt x="326" y="645" on="0"/>
        <pt x="299" y="669" on="0"/>
        <pt x="299" y="690" on="1"/>
        <pt x="299" y="710" on="0"/>
        <pt x="326" y="736" on="0"/>
        <pt x="347" y="736" on="1"/>
        <pt x="368" y="736" on="0"/>
        <pt x="395" y="710" on="0"/>
        <pt x="395" y="690" on="1"/>
        <pt x="395" y="669" on="0"/>
        <pt x="368" y="645" on="0"/>
      </contour>
    </TTGlyph>
    <TTGlyph name="iacute" xMin="90" yMin="0" xMax="463" yMax="721">
      <component glyphName="dotlessi" x="0" y="0" flags="0x204"/>
      <component glyphName="uni0301" x="48" y="0" flags="0x4"/>
    </TTGlyph>
    <TTGlyph name="icircumflex" xMin="90" yMin="0" xMax="480" yMax="721">
      <component glyphName="dotlessi" x="0" y="0" flags="0x204"/>
      <component glyphName="uni0302" x="48" y="0" flags="0x4"/>
    </TTGlyph>
    <TTGlyph name="idieresis" xMin="90" yMin="0" xMax="498" yMax="698">
      <component glyphName="dotlessi" x="0" y="0" flags="0x204"/>
      <component glyphName="uni0308" x="48" y="0" flags="0x4"/>
    </TTGlyph>
    <TTGlyph name="igrave" xMin="90" yMin="0" xMax="413" yMax="721">
      <component glyphName="dotlessi" x="0" y="0" flags="0x204"/>
      <component glyphName="uni0300" x="48" y="0" flags="0x4"/>
    </TTGlyph>
    <TTGlyph name="imacron" xMin="90" yMin="0" xMax="471" yMax="658">
      <component glyphName="dotlessi" x="0" y="0" flags="0x204"/>
      <component glyphName="uni0304" x="48" y="0" flags="0x4"/>
    </TTGlyph>
    <TTGlyph name="infinity" xMin="-4" yMin="150" xMax="604" yMax="507">
      <contour>
        <pt x="130" y="170" on="1"/>
        <pt x="103" y="170" on="0"/>
        <pt x="54" y="194" on="0"/>
        <pt x="17" y="236" on="0"/>
        <pt x="-4" y="292" on="0"/>
        <pt x="-4" y="324" on="1"/>
        <pt x="-4" y="363" on="0"/>
        <pt x="19" y="425" on="0"/>
        <pt x="58" y="468" on="0"/>
        <pt x="111" y="491" on="0"/>
        <pt x="142" y="491" on="1"/>
        <pt x="167" y="491" on="0"/>
        <pt x="208" y="475" on="0"/>
        <pt x="243" y="447" on="0"/>
        <pt x="271" y="411" on="0"/>
        <pt x="282" y="390" on="1"/>
        <pt x="286" y="390" on="1"/>
        <pt x="317" y="443" on="0"/>
        <pt x="396" y="507" on="0"/>
        <pt x="450" y="507" on="1"/>
        <pt x="483" y="507" on="0"/>
        <pt x="540" y="482" on="0"/>
        <pt x="581" y="436" on="0"/>
        <pt x="604" y="373" on="0"/>
        <pt x="604" y="336" on="1"/>
        <pt x="604" y="294" on="0"/>
        <pt x="581" y="225" on="0"/>
        <pt x="540" y="177" on="0"/>
        <pt x="483" y="150" on="0"/>
        <pt x="449" y="150" on="1"/>
        <pt x="394" y="150" on="0"/>
        <pt x="315" y="207" on="0"/>
        <pt x="277" y="269" on="1"/>
        <pt x="273" y="269" on="1"/>
        <pt x="262" y="251" on="0"/>
        <pt x="234" y="216" on="0"/>
        <pt x="199" y="187" on="0"/>
        <pt x="156" y="170" on="0"/>
      </contour>
      <contour>
        <pt x="313" y="340" on="1"/>
        <pt x="346" y="278" on="0"/>
        <pt x="408" y="229" on="0"/>
        <pt x="446" y="229" on="1"/>
        <pt x="491" y="229" on="0"/>
        <pt x="539" y="290" on="0"/>
        <pt x="539" y="333" on="1"/>
        <pt x="539" y="381" on="0"/>
        <pt x="487" y="444" on="0"/>
        <pt x="439" y="444" on="1"/>
        <pt x="404" y="444" on="0"/>
        <pt x="343" y="395" on="0"/>
      </contour>
      <contour>
        <pt x="142" y="233" on="1"/>
        <pt x="206" y="233" on="0"/>
        <pt x="246" y="321" on="1"/>
        <pt x="221" y="370" on="0"/>
        <pt x="169" y="413" on="0"/>
        <pt x="140" y="413" on="1"/>
        <pt x="104" y="413" on="0"/>
        <pt x="61" y="368" on="0"/>
        <pt x="61" y="327" on="1"/>
        <pt x="61" y="286" on="0"/>
        <pt x="108" y="233" on="0"/>
      </contour>
    </TTGlyph>
    <TTGlyph name="integral" xMin="186" yMin="-158" xMax="441" yMax="789">
      <contour>
        <pt x="195" y="-89" on="1"/>
        <pt x="207" y="-93" on="0"/>
        <pt x="230" y="-93" on="1"/>
        <pt x="272" y="-93" on="0"/>
        <pt x="297" y="-11" on="0"/>
        <pt x="297" y="67" on="1"/>
        <pt x="297" y="122" on="0"/>
        <pt x="284" y="248" on="0"/>
        <pt x="268" y="378" on="0"/>
        <pt x="255" y="505" on="0"/>
        <pt x="255" y="561" on="1"/>
        <pt x="255" y="609" on="0"/>
        <pt x="266" y="693" on="0"/>
        <pt x="297" y="754" on="0"/>
        <pt x="351" y="789" on="0"/>
        <pt x="394" y="789" on="1"/>
        <pt x="409" y="789" on="0"/>
        <pt x="435" y="785" on="0"/>
        <pt x="441" y="783" on="1"/>
        <pt x="431" y="721" on="1"/>
        <pt x="424" y="723" on="0"/>
        <pt x="407" y="725" on="0"/>
        <pt x="396" y="725" on="1"/>
        <pt x="355" y="725" on="0"/>
        <pt x="331" y="640" on="0"/>
        <pt x="331" y="563" on="1"/>
        <pt x="331" y="509" on="0"/>
        <pt x="344" y="383" on="0"/>
        <pt x="359" y="253" on="0"/>
        <pt x="372" y="126" on="0"/>
        <pt x="372" y="71" on="1"/>
        <pt x="372" y="22" on="0"/>
        <pt x="361" y="-62" on="0"/>
        <pt x="330" y="-123" on="0"/>
        <pt x="276" y="-158" on="0"/>
        <pt x="233" y="-158" on="1"/>
        <pt x="202" y="-158" on="0"/>
        <pt x="186" y="-151" on="1"/>
        <pt x="195" y="-89" on="1"/>
      </contour>
    </TTGlyph>
    <TTGlyph name="iogonek" xMin="90" yMin="-206" xMax="441" yMax="713">
      <contour>
        <pt x="316" y="419" on="1"/>
        <pt x="90" y="419" on="1"/>
        <pt x="90" y="486" on="1"/>
        <pt x="398" y="486" on="1"/>
        <pt x="398" y="0" on="1"/>
        <pt x="368" y="-22" on="0"/>
        <pt x="333" y="-76" on="0"/>
        <pt x="333" y="-105" on="1"/>
        <pt x="333" y="-128" on="0"/>
        <pt x="361" y="-151" on="0"/>
        <pt x="380" y="-151" on="1"/>
        <pt x="391" y="-151" on="0"/>
        <pt x="410" y="-144" on="0"/>
        <pt x="420" y="-138" on="1"/>
        <pt x="441" y="-179" on="1"/>
        <pt x="427" y="-190" on="0"/>
        <pt x="382" y="-206" on="0"/>
        <pt x="363" y="-206" on="1"/>
        <pt x="325" y="-206" on="0"/>
        <pt x="272" y="-163" on="0"/>
        <pt x="272" y="-121" on="1"/>
        <pt x="272" y="-101" on="0"/>
        <pt x="284" y="-66" on="0"/>
        <pt x="303" y="-36" on="0"/>
        <pt x="325" y="-11" on="0"/>
        <pt x="335" y="0" on="1"/>
        <pt x="316" y="0" on="1"/>
      </contour>
      <contour>
        <pt x="348" y="586" on="1"/>
        <pt x="319" y="586" on="0"/>
        <pt x="282" y="620" on="0"/>
        <pt x="282" y="649" on="1"/>
        <pt x="282" y="678" on="0"/>
        <pt x="319" y="713" on="0"/>
        <pt x="348" y="713" on="1"/>
        <pt x="376" y="713" on="0"/>
        <pt x="414" y="678" on="0"/>
        <pt x="414" y="649" on="1"/>
        <pt x="414" y="620" on="0"/>
        <pt x="376" y="586" on="0"/>
      </contour>
    </TTGlyph>
    <TTGlyph name="iogonek.d" xMin="90" yMin="-206" xMax="441" yMax="486">
      <contour>
        <pt x="316" y="419" on="1"/>
        <pt x="90" y="419" on="1"/>
        <pt x="90" y="486" on="1"/>
        <pt x="398" y="486" on="1"/>
        <pt x="398" y="0" on="1"/>
        <pt x="368" y="-22" on="0"/>
        <pt x="333" y="-76" on="0"/>
        <pt x="333" y="-105" on="1"/>
        <pt x="333" y="-128" on="0"/>
        <pt x="361" y="-151" on="0"/>
        <pt x="380" y="-151" on="1"/>
        <pt x="391" y="-151" on="0"/>
        <pt x="410" y="-144" on="0"/>
        <pt x="420" y="-138" on="1"/>
        <pt x="441" y="-179" on="1"/>
        <pt x="427" y="-190" on="0"/>
        <pt x="382" y="-206" on="0"/>
        <pt x="363" y="-206" on="1"/>
        <pt x="325" y="-206" on="0"/>
        <pt x="272" y="-163" on="0"/>
        <pt x="272" y="-121" on="1"/>
        <pt x="272" y="-101" on="0"/>
        <pt x="284" y="-66" on="0"/>
        <pt x="303" y="-36" on="0"/>
        <pt x="325" y="-11" on="0"/>
        <pt x="335" y="0" on="1"/>
        <pt x="316" y="0" on="1"/>
      </contour>
    </TTGlyph>
    <TTGlyph name="itilde" xMin="90" yMin="0" xMax="490" yMax="688">
      <component glyphName="dotlessi" x="0" y="0" flags="0x204"/>
      <component glyphName="uni0303" x="48" y="0" flags="0x4"/>
    </TTGlyph>
    <TTGlyph name="j" xMin="55" yMin="-217" xMax="414" yMax="713">
      <contour>
        <pt x="90" y="486" on="1"/>
        <pt x="398" y="486" on="1"/>
        <pt x="398" y="-12" on="1"/>
        <pt x="398" y="-57" on="0"/>
        <pt x="378" y="-132" on="0"/>
        <pt x="331" y="-187" on="0"/>
        <pt x="253" y="-217" on="0"/>
        <pt x="194" y="-217" on="1"/>
        <pt x="156" y="-217" on="0"/>
        <pt x="84" y="-198" on="0"/>
        <pt x="55" y="-184" on="1"/>
        <pt x="82" y="-123" on="1"/>
        <pt x="108" y="-136" on="0"/>
        <pt x="165" y="-150" on="0"/>
        <pt x="193" y="-150" on="1"/>
        <pt x="229" y="-150" on="0"/>
        <pt x="277" y="-132" on="0"/>
        <pt x="305" y="-98" on="0"/>
        <pt x="316" y="-49" on="0"/>
        <pt x="316" y="-18" on="1"/>
        <pt x="316" y="419" on="1"/>
        <pt x="90" y="419" on="1"/>
      </contour>
      <contour>
        <pt x="348" y="586" on="1"/>
        <pt x="319" y="586" on="0"/>
        <pt x="282" y="620" on="0"/>
        <pt x="282" y="649" on="1"/>
        <pt x="282" y="678" on="0"/>
        <pt x="319" y="713" on="0"/>
        <pt x="348" y="713" on="1"/>
        <pt x="376" y="713" on="0"/>
        <pt x="414" y="678" on="0"/>
        <pt x="414" y="649" on="1"/>
        <pt x="414" y="620" on="0"/>
        <pt x="376" y="586" on="0"/>
      </contour>
    </TTGlyph>
</ttFont>
